<svg width="537" height="154" viewBox="0 0 537 154" fill="none" xmlns="http://www.w3.org/2000/svg">
<path fill-rule="evenodd" clip-rule="evenodd" d="M536.722 -187.796C536.723 -187.798 536.724 -187.799 536.278 -188.068C535.832 -188.336 535.832 -188.336 535.831 -188.334L535.826 -188.325L535.805 -188.292C535.787 -188.261 535.759 -188.215 535.722 -188.155C535.648 -188.033 535.536 -187.852 535.388 -187.612C535.091 -187.133 534.645 -186.42 534.053 -185.49C532.868 -183.631 531.095 -180.903 528.746 -177.429C524.048 -170.482 517.044 -160.556 507.826 -148.642C489.388 -124.814 462.095 -93.0432 426.673 -61.2733C355.823 2.27063 252.495 65.775 122.491 65.775V66.8154C252.848 66.8154 356.414 3.13827 427.368 -60.4993C462.847 -92.3202 490.183 -124.14 508.649 -148.005C517.882 -159.938 524.899 -169.883 529.608 -176.847C531.963 -180.329 533.741 -183.065 534.931 -184.932C535.526 -185.865 535.973 -186.581 536.273 -187.064C536.422 -187.306 536.535 -187.489 536.61 -187.612C536.648 -187.674 536.676 -187.72 536.695 -187.752L536.717 -187.787L536.722 -187.796ZM536.672 -111.263C536.674 -111.265 536.675 -111.265 536.278 -111.603C535.882 -111.94 535.882 -111.939 535.881 -111.938L535.876 -111.933L535.855 -111.909L535.819 -111.867L535.772 -111.812C535.741 -111.776 535.702 -111.731 535.657 -111.679L535.585 -111.596C535.541 -111.546 535.492 -111.49 535.439 -111.429C535.142 -111.09 534.697 -110.587 534.105 -109.929C532.921 -108.615 531.149 -106.685 528.801 -104.228C524.104 -99.3149 517.103 -92.2926 507.886 -83.8648C489.452 -67.0087 462.162 -44.5306 426.741 -22.0525C355.899 22.9042 252.548 67.8557 122.491 67.8557V68.896C252.796 68.896 356.338 23.8582 427.299 -21.1745C462.78 -43.6905 490.118 -66.2076 508.589 -83.0975C517.824 -91.5425 524.843 -98.5809 529.554 -103.51C531.909 -105.975 533.688 -107.912 534.879 -109.233C535.474 -109.895 535.922 -110.402 536.222 -110.744C536.372 -110.915 536.485 -111.045 536.56 -111.133C536.598 -111.176 536.626 -111.209 536.645 -111.231L536.667 -111.256L536.672 -111.263ZM536.278 -58.5455C536.613 -58.1476 536.613 -58.1466 536.611 -58.1455L536.606 -58.1408L536.584 -58.1226L536.528 -58.0758L536.499 -58.0519C536.423 -57.989 536.31 -57.8958 536.16 -57.7731C535.86 -57.5276 535.411 -57.164 534.816 -56.6896C533.625 -55.7418 531.846 -54.353 529.49 -52.5865C524.778 -49.053 517.758 -44.0073 508.523 -37.9541C490.052 -25.8472 462.714 -9.70836 427.236 6.42886C356.279 38.7044 252.759 70.9767 122.491 70.9767V69.9364C252.584 69.9364 355.958 37.7077 426.804 5.48215C462.228 -10.6306 489.519 -26.7429 507.952 -38.8238C517.168 -44.8646 524.169 -49.8972 528.865 -53.4182C531.213 -55.179 532.984 -56.5616 534.167 -57.5036C534.759 -57.9744 535.204 -58.3354 535.5 -58.5778C535.564 -58.6298 535.621 -58.6766 535.671 -58.7177C535.737 -58.7723 535.791 -58.8171 535.834 -58.8524C535.871 -58.8826 535.898 -58.906 535.916 -58.9211L535.937 -58.9383L535.942 -58.9424C535.942 -58.9424 535.942 -58.9429 535.953 -58.931C535.958 -58.9253 535.965 -58.9169 535.975 -58.9045C535.995 -58.8816 536.026 -58.8452 536.075 -58.7864L536.278 -58.5455ZM536.501 -0.33647C536.501 -0.33647 536.501 -0.336462 536.501 -0.337502C536.501 -0.338542 536.5 -0.340631 536.498 -0.345312C536.494 -0.354155 536.486 -0.371842 536.468 -0.408254C536.439 -0.470674 536.383 -0.587708 536.278 -0.806699C536.177 -1.01893 536.121 -1.13492 536.09 -1.19838C536.076 -1.22803 536.067 -1.24624 536.062 -1.25769C536.056 -1.26861 536.054 -1.27276 536.053 -1.27432C536.052 -1.27537 536.052 -1.27537 536.052 -1.27537L536.047 -1.27277L536.027 -1.2629L535.944 -1.22388C535.87 -1.18902 535.759 -1.13701 535.611 -1.06783C535.314 -0.929987 534.869 -0.72451 534.277 -0.456623C533.093 0.0786319 531.321 0.86513 528.973 1.86646C524.276 3.86911 517.274 6.73108 508.055 10.1658C489.619 17.0362 462.322 26.1984 426.89 35.3617C356.025 53.6878 252.623 72.0171 122.491 72.0171V73.0574C252.721 73.0574 356.212 54.7147 427.15 36.3688C462.62 27.1961 489.952 18.0224 508.419 11.1406C517.653 7.69963 524.671 4.83194 529.382 2.82357C531.737 1.81912 533.516 1.0295 534.706 0.491122C535.302 0.221674 535.75 0.0146512 536.05 -0.124754C536.2 -0.194457 536.313 -0.247523 536.388 -0.282894L536.474 -0.323469L536.495 -0.333867L536.501 -0.33647ZM536.278 45.4884C536.349 45.8603 536.368 45.9618 536.372 45.9893C536.374 45.9997 536.374 45.9997 536.374 45.9997L536.368 46.0008L536.347 46.0049L536.262 46.0211C536.187 46.0351 536.074 46.0559 535.925 46.0835L535.785 46.1095L535.612 46.1412C535.517 46.1584 535.413 46.1776 535.3 46.1979C535.091 46.2359 534.853 46.2791 534.584 46.3274C533.395 46.5412 531.618 46.8544 529.264 47.2528C524.557 48.0502 517.543 49.1884 508.314 50.5543C489.854 53.2863 462.532 56.9285 427.073 60.5707C356.155 67.8547 252.691 75.1381 122.491 75.1381V74.0977C252.653 74.0977 356.081 66.8164 426.967 59.5356C462.41 55.8954 489.716 52.2553 508.161 49.5254C517.383 48.1605 524.39 47.0234 529.09 46.2271C531.44 45.8291 533.214 45.5165 534.4 45.3037C534.992 45.1971 535.438 45.1154 535.736 45.0603C535.884 45.0333 535.996 45.0125 536.07 44.9984L536.154 44.9828L536.174 44.9786L536.18 44.9776C536.18 44.9776 536.18 44.9776 536.182 44.9875C536.184 44.9974 536.188 45.0161 536.195 45.053L536.211 45.1352C536.225 45.2106 536.247 45.323 536.278 45.4884ZM536.273 73.5776C536.274 73.5776 536.274 73.5776 536.278 74.0977C536.282 74.6179 536.282 74.6179 536.28 74.6179H536.275H536.266L536.254 74.6184H536.238H536.219H536.196L536.17 74.619H536.14L536.107 74.6195H536.07L536.03 74.62H535.986L535.939 74.6205L535.888 74.621L535.834 74.6215H535.776L535.715 74.6221L535.651 74.6226L535.583 74.6231L535.511 74.6236L535.436 74.6242L535.358 74.6252L535.276 74.6257L535.19 74.6262L535.101 74.6268L535.009 74.6278L534.913 74.6283L534.814 74.6288L534.711 74.6299L534.605 74.6304L534.496 74.6314L534.383 74.6325L534.266 74.633L534.146 74.634L534.023 74.6351L533.896 74.6361L533.766 74.6372L533.632 74.6382L533.495 74.6392L533.355 74.6403L533.211 74.6413L533.063 74.6424L532.912 74.6434L532.758 74.6444L532.601 74.6455L532.44 74.647L532.275 74.6481L532.107 74.6496L531.936 74.6507L531.761 74.6522L531.583 74.6533L531.402 74.6549L531.217 74.6564L531.029 74.6574L530.837 74.659L530.642 74.6606L530.443 74.6621L530.241 74.6637L530.036 74.6652L529.827 74.6668L529.615 74.6684L529.4 74.6699L529.181 74.6715L528.959 74.673L528.733 74.6751L528.505 74.6767L528.272 74.6783L528.037 74.6803L527.797 74.6819L527.555 74.684L527.309 74.6855L527.06 74.6876L526.808 74.6897L526.552 74.6913L526.293 74.6933L526.03 74.6954L525.764 74.6975L525.495 74.6996L525.222 74.7011L524.946 74.7032L524.667 74.7058L524.384 74.7079L524.098 74.71L523.809 74.7121L523.516 74.7141L523.22 74.7167L522.921 74.7188L522.619 74.7209L522.313 74.7235L522.003 74.7256L521.691 74.7282L521.375 74.7303L521.055 74.7329L520.733 74.7355L520.407 74.7376L520.078 74.7401L519.745 74.7427L519.409 74.7454L519.07 74.748L518.728 74.7506L518.382 74.7532L518.033 74.7558L517.681 74.7584L517.325 74.761L516.966 74.7636L516.604 74.7662L516.239 74.7693L515.87 74.7719L515.498 74.775L515.122 74.7776L514.744 74.7802L514.362 74.7833L513.977 74.7865L513.588 74.7891L513.197 74.7922L512.802 74.7953L512.403 74.7979L512.002 74.801L511.597 74.8041L511.189 74.8073L510.778 74.8104L510.363 74.8135L509.945 74.8166L509.524 74.8197L509.1 74.8229L508.672 74.826L508.241 74.8296L507.807 74.8327L507.37 74.8359L506.929 74.8395L506.485 74.8426L506.038 74.8463L505.588 74.8494L505.135 74.853L504.678 74.8562L504.218 74.8598L503.755 74.8634L503.288 74.8671L502.819 74.8702L502.346 74.8738L501.87 74.8775L501.39 74.8811L500.908 74.8848L500.422 74.8884L499.933 74.892L499.441 74.8957L498.946 74.8998L498.447 74.9035L497.945 74.9071L497.44 74.9108L496.932 74.9149L496.421 74.9186L495.906 74.9227L495.388 74.9264L494.868 74.9305L494.343 74.9342L493.816 74.9383L493.286 74.9425L492.752 74.9461L492.215 74.9503L491.675 74.9545L491.132 74.9586L490.585 74.9628L490.036 74.9669L489.483 74.9711L488.927 74.9753L488.368 74.9794L487.806 74.9836L487.241 74.9878L486.672 74.9919L486.101 74.9966L485.526 75.0008L484.948 75.0049L484.366 75.0096L483.782 75.0138L483.195 75.0184L482.604 75.0226L482.011 75.0273L481.414 75.032L480.814 75.0361L480.21 75.0408L479.604 75.0455L478.995 75.0502L478.382 75.0549L477.767 75.0595L477.148 75.0642L476.526 75.0689L475.901 75.0736L475.273 75.0783L474.642 75.083L474.007 75.0876L473.37 75.0923L472.729 75.0975L472.086 75.1022L471.439 75.1069L470.788 75.1121L470.136 75.1168L469.479 75.122L468.821 75.1266L468.158 75.1318L467.493 75.137L466.824 75.1417L466.152 75.1469L465.478 75.1521L464.8 75.1573L464.119 75.1625L463.436 75.1672L462.749 75.1724L462.058 75.1776L461.365 75.1828L460.669 75.1885L459.97 75.1937L459.268 75.1989L458.562 75.2042L457.853 75.2093L457.142 75.2151L456.427 75.2203L455.709 75.2255L454.989 75.2312L454.265 75.2364L453.538 75.2421L452.808 75.2478L452.075 75.253L451.339 75.2588L450.6 75.2645L449.858 75.2697L449.113 75.2754L448.365 75.2811L447.614 75.2869L446.86 75.2926L446.102 75.2983L445.342 75.304L444.579 75.3097L443.812 75.3155L443.043 75.3212L442.27 75.3269L441.495 75.3331L440.717 75.3389L439.935 75.3446L439.151 75.3508L438.363 75.3566L437.573 75.3623L436.779 75.3685L435.983 75.3742L435.184 75.3805L434.381 75.3867L433.576 75.3925L432.767 75.3987L431.955 75.4049L431.141 75.4112L430.324 75.4174L429.503 75.4231L428.68 75.4294L427.854 75.4356L427.024 75.4419L426.192 75.4481L425.356 75.4549L424.518 75.4611L423.677 75.4673L422.832 75.4736L421.985 75.4798L421.135 75.4866L420.282 75.4928L419.426 75.4996L418.566 75.5058L417.705 75.5126L416.84 75.5188L415.971 75.5256L415.101 75.5318L414.227 75.5386L413.35 75.5454L412.47 75.5516L411.588 75.5584L410.702 75.5651L409.813 75.5719L408.922 75.5787L408.027 75.5854L407.13 75.5922L406.229 75.5989L405.326 75.6057L404.42 75.6125L403.511 75.6192L402.599 75.6265L401.684 75.6333L400.766 75.64L399.846 75.6468L398.922 75.6541L397.995 75.6609L397.066 75.6681L396.133 75.6749L395.198 75.6822L394.26 75.6889L393.318 75.6962L392.375 75.7035L391.427 75.7108L390.477 75.7176L389.525 75.7248L388.569 75.7321L387.611 75.7394L386.649 75.7467L385.685 75.754L384.718 75.7612L383.748 75.7685L382.775 75.7758L381.799 75.7831L380.82 75.7904L379.839 75.7982L378.854 75.8055L377.867 75.8127L376.877 75.8206L375.883 75.8278L374.888 75.8351L373.889 75.8429L372.888 75.8502L371.883 75.858L370.875 75.8658L369.866 75.8731L368.852 75.8809L367.836 75.8887L366.818 75.896L365.796 75.9038L364.772 75.9116L363.744 75.9194L362.714 75.9272L361.681 75.935L360.646 75.9428L359.607 75.9506L358.565 75.9584L357.521 75.9662L356.474 75.974L355.424 75.9823L354.372 75.9901L353.316 75.9979L352.258 76.0062L351.196 76.014L350.132 76.0219L349.065 76.0302L347.996 76.038L346.924 76.0463L345.848 76.0541L344.77 76.0624L343.689 76.0707L342.606 76.0786L341.519 76.0869L340.43 76.0952L339.338 76.1035L338.243 76.1118L337.146 76.1202L336.045 76.1285L334.942 76.1368L333.836 76.1451L332.727 76.1535L331.616 76.1618L330.502 76.1701L329.385 76.1784L328.265 76.1867L327.142 76.1956L326.017 76.2039L324.889 76.2122L323.758 76.2211L322.624 76.2294L321.488 76.2382L320.349 76.2466L319.207 76.2554L318.062 76.2637L316.914 76.2726L315.764 76.2814L314.611 76.2897L313.456 76.2986L312.297 76.3074L311.136 76.3163L309.972 76.3251L308.806 76.334L307.636 76.3428L306.464 76.3516L305.289 76.3605L304.111 76.3693L302.932 76.3782L301.748 76.387L300.563 76.3959L299.374 76.4047L298.183 76.4141L296.989 76.4229L295.793 76.4317L294.593 76.4411L293.391 76.45L292.187 76.4593L290.979 76.4682L289.769 76.4775L288.556 76.4864L287.34 76.4957L286.122 76.5051L284.901 76.5139L283.678 76.5233L282.451 76.5327L281.223 76.542L279.991 76.5509L278.757 76.5602L277.519 76.5696L276.28 76.5789L275.037 76.5883L273.792 76.5977L272.545 76.607L271.294 76.6164L270.041 76.6263L268.785 76.6356L267.526 76.645L266.266 76.6544L265.002 76.6643L263.735 76.6736L262.466 76.6835L261.195 76.6929L259.92 76.7022L258.643 76.7121L257.363 76.7215L256.081 76.7314L254.796 76.7412L253.509 76.7506L252.218 76.7605L250.926 76.7704L249.63 76.7803L248.332 76.7896L247.031 76.7995L245.727 76.8094L244.422 76.8193L243.113 76.8292L241.801 76.839L240.488 76.8489L239.171 76.8588L237.852 76.8687L236.53 76.8791L235.205 76.889L233.879 76.8989L232.549 76.9087L231.217 76.9191L229.882 76.929L228.545 76.9389L227.204 76.9493L225.862 76.9592L224.517 76.9696L223.169 76.9795L221.818 76.9899L220.465 77.0003L219.11 77.0102L217.751 77.0206L216.391 77.031L215.027 77.0409L213.661 77.0513L212.293 77.0617L210.921 77.0721L209.548 77.0825L208.172 77.0929L206.793 77.1033L205.412 77.1137L204.028 77.1241L202.641 77.1345L201.252 77.1449L199.861 77.1553L198.466 77.1662L197.069 77.1766L195.67 77.187L194.269 77.1974L192.864 77.2084L191.457 77.2188L190.047 77.2297L188.635 77.2401L187.221 77.251L185.804 77.2614L184.384 77.2723L182.962 77.2827L181.537 77.2937L180.11 77.3046L178.68 77.315L177.248 77.3259L175.813 77.3368L174.376 77.3478L172.936 77.3587L171.494 77.3696L170.049 77.3805L168.601 77.3915L167.151 77.4024L165.698 77.4133L164.244 77.4242L162.786 77.4351L161.326 77.4461L159.864 77.457L158.399 77.4684L156.931 77.4794L155.462 77.4903L153.989 77.5012L152.514 77.5127L151.037 77.5236L149.557 77.535L148.074 77.5459L146.589 77.5574L145.102 77.5683L143.612 77.5798L142.12 77.5912L140.625 77.6021L139.128 77.6136L137.628 77.625L136.126 77.6359L134.621 77.6474L133.114 77.6588L131.605 77.6703L130.093 77.6817L128.578 77.6931L127.061 77.7046L125.541 77.716L124.019 77.7275L122.495 77.7389L122.488 76.6986L124.012 76.6871L125.534 76.6757L127.053 76.6643L128.57 76.6528L130.085 76.6414L131.597 76.6299L133.106 76.6185L134.613 76.607L136.118 76.5961L137.62 76.5847L139.12 76.5732L140.617 76.5618L142.112 76.5509L143.604 76.5394L145.095 76.528L146.582 76.5171L148.066 76.5056L149.549 76.4947L151.029 76.4832L152.506 76.4723L153.981 76.4614L155.454 76.45L156.924 76.439L158.391 76.4281L159.856 76.4167L161.319 76.4057L162.779 76.3948L164.236 76.3839L165.691 76.373L167.143 76.362L168.593 76.3511L170.041 76.3402L171.486 76.3293L172.928 76.3184L174.368 76.3074L175.805 76.2965L177.24 76.2856L178.672 76.2747L180.102 76.2643L181.529 76.2533L182.954 76.2424L184.376 76.232L185.796 76.2211L187.213 76.2107L188.627 76.1997L190.04 76.1893L191.449 76.1784L192.856 76.168L194.261 76.1571L195.662 76.1467L197.061 76.1363L198.458 76.1259L199.853 76.115L201.244 76.1046L202.633 76.0942L204.02 76.0837L205.404 76.0733L206.785 76.063L208.164 76.0525L209.54 76.0421L210.914 76.0317L212.285 76.0213L213.654 76.0109L215.019 76.0005L216.383 75.9906L217.743 75.9802L219.102 75.9698L220.457 75.9599L221.811 75.9495L223.161 75.9391L224.509 75.9293L225.854 75.9189L227.197 75.909L228.536 75.8986L229.874 75.8887L231.209 75.8788L232.541 75.8684L233.871 75.8585L235.197 75.8486L236.522 75.8387L237.844 75.8283L239.163 75.8185L240.479 75.8086L241.794 75.7987L243.105 75.7888L244.414 75.7789L245.72 75.7691L247.023 75.7592L248.324 75.7498L249.622 75.7399L250.918 75.73L252.211 75.7201L253.501 75.7103L254.788 75.7009L256.073 75.691L257.356 75.6817L258.636 75.6718L259.912 75.6619L261.187 75.6525L262.459 75.6432L263.727 75.6333L264.994 75.6239L266.258 75.614L267.519 75.6047L268.777 75.5953L270.033 75.5859L271.286 75.5766L272.537 75.5667L273.784 75.5573L275.029 75.548L276.272 75.5386L277.512 75.5293L278.749 75.5199L279.983 75.5105L281.215 75.5017L282.444 75.4923L283.67 75.483L284.894 75.4736L286.115 75.4647L287.333 75.4554L288.548 75.446L289.761 75.4372L290.971 75.4278L292.179 75.419L293.383 75.4096L294.586 75.4008L295.785 75.3914L296.981 75.3826L298.175 75.3737L299.366 75.3644L300.555 75.3555L301.741 75.3467L302.924 75.3378L304.104 75.329L305.282 75.3201L306.456 75.3113L307.628 75.3025L308.798 75.2936L309.964 75.2848L311.128 75.2759L312.289 75.2671L313.448 75.2582L314.603 75.2494L315.756 75.2411L316.907 75.2322L318.054 75.2234L319.199 75.2151L320.341 75.2062L321.48 75.1979L322.616 75.1891L323.75 75.1807L324.881 75.1719L326.009 75.1636L327.134 75.1552L328.257 75.1464L329.377 75.1381L330.494 75.1298L331.608 75.1214L332.72 75.1131L333.828 75.1048L334.934 75.0965L336.038 75.0881L337.138 75.0798L338.236 75.0715L339.33 75.0632L340.422 75.0549L341.512 75.0465L342.598 75.0387L343.681 75.0304L344.763 75.0221L345.84 75.0143L346.916 75.006L347.988 74.9976L349.058 74.9898L350.125 74.9815L351.188 74.9737L352.25 74.9659L353.308 74.9576L354.363 74.9498L355.416 74.942L356.466 74.9337L357.513 74.9259L358.558 74.918L359.599 74.9103L360.638 74.9024L361.674 74.8946L362.706 74.8868L363.736 74.879L364.764 74.8712L365.788 74.8634L366.81 74.8556L367.828 74.8483L368.844 74.8405L369.857 74.8327L370.868 74.8255L371.875 74.8177L372.88 74.8098L373.881 74.8026L374.88 74.7948L375.876 74.7875L376.869 74.7802L377.859 74.7724L378.847 74.7651L379.831 74.7578L380.812 74.75L381.791 74.7427L382.767 74.7355L383.74 74.7282L384.71 74.7209L385.677 74.7136L386.641 74.7063L387.603 74.6991L388.561 74.6918L389.517 74.6845L390.47 74.6772L391.419 74.6705L392.366 74.6632L393.31 74.6559L394.251 74.6491L395.19 74.6418L396.125 74.6346L397.058 74.6278L397.987 74.6205L398.914 74.6138L399.837 74.607L400.759 74.5997L401.676 74.5929L402.591 74.5862L403.503 74.5789L404.412 74.5721L405.319 74.5654L406.222 74.5586L407.122 74.5518L408.019 74.5451L408.914 74.5383L409.806 74.5316L410.694 74.5248L411.579 74.518L412.462 74.5113L413.342 74.505L414.219 74.4983L415.093 74.4915L415.964 74.4853L416.832 74.4785L417.697 74.4723L418.559 74.4655L419.418 74.4593L420.274 74.4525L421.127 74.4463L421.977 74.44L422.825 74.4332L423.669 74.427L424.51 74.4208L425.348 74.4145L426.184 74.4083L427.016 74.4015L427.846 74.3953L428.672 74.389L429.495 74.3828L430.316 74.3771L431.133 74.3708L431.948 74.3646L432.759 74.3584L433.567 74.3521L434.373 74.3464L435.176 74.3401L435.975 74.3344L436.772 74.3282L437.565 74.3219L438.355 74.3162L439.143 74.3105L439.927 74.3043L440.709 74.2985L441.487 74.2928L442.263 74.2866L443.035 74.2808L443.804 74.2751L444.571 74.2694L445.334 74.2637L446.095 74.258L446.852 74.2522L447.606 74.2465L448.357 74.2408L449.105 74.2351L449.85 74.2293L450.593 74.2241L451.332 74.2184L452.068 74.2127L452.8 74.2075L453.53 74.2018L454.257 74.1961L454.981 74.1908L455.702 74.1857L456.419 74.1799L457.134 74.1747L457.846 74.169L458.554 74.1638L459.259 74.1586L459.962 74.1534L460.661 74.1482L461.357 74.1425L462.051 74.1373L462.741 74.1321L463.428 74.1269L464.112 74.1222L464.792 74.117L465.47 74.1118L466.145 74.1066L466.816 74.1014L467.485 74.0967L468.15 74.0915L468.813 74.0863L469.472 74.0816L470.128 74.0764L470.781 74.0717L471.431 74.0665L472.078 74.0619L472.721 74.0572L473.362 74.052L473.999 74.0473L474.634 74.0426L475.265 74.0379L475.893 74.0332L476.518 74.0286L477.14 74.0239L477.759 74.0192L478.375 74.0145L478.987 74.0098L479.597 74.0051L480.203 74.0005L480.806 73.9958L481.406 73.9916L482.003 73.9869L482.596 73.9828L483.187 73.9781L483.775 73.9734L484.359 73.9693L484.94 73.9651L485.518 73.9604L486.093 73.9563L486.664 73.9521L487.233 73.9474L487.798 73.9433L488.36 73.9391L488.919 73.9349L489.475 73.9308L490.028 73.9266L490.578 73.9224L491.124 73.9183L491.667 73.9141L492.207 73.91L492.744 73.9058L493.278 73.9022L493.808 73.898L494.336 73.8938L494.86 73.8902L495.381 73.886L495.898 73.8824L496.413 73.8782L496.924 73.8746L497.432 73.8704L497.937 73.8668L498.439 73.8632L498.938 73.8595L499.433 73.8553L499.925 73.8517L500.414 73.8481L500.9 73.8444L501.382 73.8408L501.862 73.8371L502.338 73.8335L502.811 73.8298L503.28 73.8267L503.747 73.8231L504.21 73.8194L504.67 73.8158L505.127 73.8127L505.58 73.8091L506.031 73.8059L506.478 73.8023L506.921 73.7992L507.362 73.7955L507.799 73.7924L508.233 73.7893L508.664 73.7862L509.092 73.7825L509.516 73.7794L509.937 73.7763L510.355 73.7732L510.77 73.77L511.181 73.7669L511.589 73.7638L511.994 73.7607L512.395 73.7576L512.794 73.755L513.189 73.7518L513.58 73.7487L513.969 73.7461L514.354 73.743L514.736 73.7399L515.115 73.7373L515.49 73.7347L515.862 73.7315L516.231 73.7289L516.596 73.7263L516.958 73.7232L517.317 73.7206L517.673 73.718L518.025 73.7154L518.374 73.7128L518.72 73.7102L519.063 73.7076L519.402 73.705L519.737 73.7024L520.07 73.6998L520.399 73.6972L520.725 73.6951L521.048 73.6925L521.367 73.6899L521.683 73.6879L521.995 73.6852L522.305 73.6832L522.611 73.6806L522.913 73.6785L523.213 73.6764L523.509 73.6738L523.801 73.6717L524.091 73.6696L524.377 73.6676L524.659 73.6655L524.938 73.6634L525.214 73.6613L525.487 73.6592L525.756 73.6572L526.022 73.6551L526.285 73.653L526.544 73.6509L526.8 73.6494L527.052 73.6473L527.301 73.6452L527.547 73.6436L527.79 73.6415L528.029 73.64L528.264 73.6379L528.497 73.6364L528.726 73.6348L528.951 73.6327L529.173 73.6311L529.392 73.6296L529.608 73.628L529.82 73.6265L530.028 73.6249L530.234 73.6234L530.435 73.6218L530.634 73.6202L530.829 73.6187L531.021 73.6171L531.209 73.6161L531.394 73.6145L531.575 73.6129L531.753 73.6119L531.928 73.6103L532.099 73.6093L532.267 73.6077L532.432 73.6067L532.593 73.6057L532.75 73.6041L532.905 73.6031L533.055 73.602L533.203 73.601L533.347 73.5999L533.487 73.5989L533.624 73.5979L533.758 73.5968L533.888 73.5958L534.015 73.5947L534.138 73.5937L534.258 73.5927L534.375 73.5921L534.488 73.5911L534.597 73.5906L534.703 73.5895L534.806 73.5885L534.905 73.588L535.001 73.5875L535.093 73.5864L535.182 73.5859L535.268 73.5854L535.35 73.5849L535.428 73.5838L535.503 73.5833L535.575 73.5828L535.643 73.5823L535.707 73.5817H535.769L535.826 73.5812L535.88 73.5807L535.931 73.5802L535.978 73.5797H536.022L536.062 73.5791H536.099L536.132 73.5786H536.162L536.188 73.5781H536.211H536.23H536.246L536.259 73.5776H536.267H536.273ZM536.278 213.503C536.613 213.105 536.613 213.105 536.611 213.104L536.606 213.099L536.584 213.081L536.579 213.076L536.533 213.038L536.499 213.01L536.435 212.957L536.362 212.897C536.305 212.849 536.237 212.794 536.16 212.731C535.86 212.485 535.411 212.122 534.816 211.648C533.625 210.7 531.846 209.311 529.49 207.544C524.778 204.011 517.758 198.965 508.523 192.912C490.052 180.805 462.714 164.667 427.236 148.529C356.279 116.253 252.759 83.981 122.491 83.981V85.0213C252.584 85.0213 355.958 117.25 426.804 149.476C462.228 165.589 489.519 181.701 507.952 193.782C517.168 199.822 524.169 204.855 528.865 208.376C531.213 210.137 532.984 211.52 534.167 212.461C534.759 212.933 535.204 213.293 535.5 213.535C535.649 213.657 535.76 213.749 535.834 213.81C535.863 213.835 535.887 213.854 535.905 213.869L535.916 213.879L535.937 213.896L535.942 213.9C535.942 213.9 535.942 213.901 535.967 213.872C536.002 213.831 536.084 213.734 536.278 213.503ZM536.501 154.774C536.502 154.775 536.503 154.775 536.278 155.244C536.054 155.713 536.053 155.713 536.052 155.713L536.047 155.71L536.027 155.701L535.944 155.661C535.87 155.627 535.759 155.575 535.611 155.505C535.489 155.449 535.342 155.381 535.17 155.302C535.066 155.254 534.951 155.201 534.828 155.145C534.661 155.069 534.478 154.985 534.277 154.895C533.093 154.359 531.321 153.572 528.973 152.571C524.276 150.569 517.274 147.707 508.055 144.272C489.619 137.401 462.322 128.239 426.89 119.076C356.025 100.75 252.623 82.4205 122.491 82.4205V81.3801C252.721 81.3801 356.212 99.7229 427.15 118.069C462.62 127.241 489.952 136.415 508.419 143.297C517.653 146.738 524.671 149.606 529.382 151.614C531.737 152.618 533.516 153.408 534.706 153.947C535.302 154.216 535.75 154.423 536.05 154.562C536.134 154.602 536.207 154.636 536.268 154.664C536.315 154.686 536.355 154.705 536.388 154.721L536.474 154.761L536.495 154.771L536.501 154.774ZM536.278 108.429C536.375 107.918 536.375 107.918 536.374 107.918L536.368 107.917L536.347 107.912L536.262 107.897C536.187 107.883 536.074 107.861 535.925 107.834C535.626 107.779 535.178 107.697 534.584 107.59C533.395 107.376 531.618 107.063 529.264 106.665C524.557 105.868 517.543 104.729 508.314 103.363C489.854 100.631 462.532 96.9889 427.073 93.3466C356.155 86.0627 252.691 78.7793 122.491 78.7793V79.8196C252.653 79.8196 356.081 87.1009 426.967 94.3818C462.41 98.0219 489.716 101.662 508.161 104.392C517.383 105.757 524.39 106.894 529.09 107.69C531.44 108.088 533.214 108.401 534.4 108.614C534.758 108.678 535.062 108.733 535.313 108.779C535.477 108.809 535.618 108.835 535.736 108.857C535.884 108.885 535.996 108.905 536.07 108.919L536.154 108.935L536.174 108.939L536.18 108.94C536.181 108.94 536.181 108.94 536.278 108.429Z" fill="url(#paint0_linear_172_595)"/>
<path fill-rule="evenodd" clip-rule="evenodd" d="M-246.578 -187.796C-246.579 -187.798 -246.579 -187.799 -246.134 -188.068C-245.688 -188.336 -245.687 -188.336 -245.686 -188.334L-245.681 -188.325L-245.661 -188.292C-245.642 -188.261 -245.615 -188.215 -245.577 -188.155C-245.503 -188.033 -245.392 -187.852 -245.243 -187.612C-244.946 -187.133 -244.501 -186.42 -243.908 -185.49C-242.723 -183.631 -240.951 -180.903 -238.601 -177.429C-233.903 -170.482 -226.899 -160.556 -217.681 -148.642C-199.244 -124.814 -171.95 -93.0432 -136.528 -61.2733C-65.6784 2.27063 37.6497 65.775 167.653 65.775V66.8154C37.2963 66.8154 -66.2696 3.13827 -137.223 -60.4993C-172.702 -92.3202 -200.038 -124.14 -218.505 -148.005C-227.738 -159.938 -234.755 -169.883 -239.464 -176.847C-241.819 -180.329 -243.596 -183.065 -244.786 -184.932C-245.381 -185.865 -245.829 -186.581 -246.128 -187.064C-246.278 -187.306 -246.39 -187.489 -246.466 -187.612C-246.503 -187.674 -246.532 -187.72 -246.551 -187.752L-246.572 -187.787L-246.578 -187.796ZM-246.528 -111.263C-246.529 -111.265 -246.53 -111.265 -246.134 -111.603C-245.738 -111.94 -245.737 -111.939 -245.736 -111.938L-245.731 -111.933L-245.711 -111.909L-245.674 -111.867L-245.628 -111.812C-245.596 -111.776 -245.558 -111.731 -245.512 -111.679L-245.44 -111.596C-245.396 -111.546 -245.347 -111.49 -245.294 -111.429C-244.997 -111.09 -244.552 -110.587 -243.96 -109.929C-242.776 -108.615 -241.005 -106.685 -238.656 -104.228C-233.96 -99.3149 -226.958 -92.2926 -217.741 -83.8648C-199.308 -67.0087 -172.017 -44.5306 -136.597 -22.0525C-65.7543 22.9042 37.5966 67.8557 167.653 67.8557V68.896C37.3489 68.896 -66.1936 23.8582 -137.155 -21.1745C-172.635 -43.6905 -199.974 -66.2076 -218.444 -83.0975C-227.679 -91.5425 -234.698 -98.5809 -239.409 -103.51C-241.765 -105.975 -243.543 -107.912 -244.734 -109.233C-245.329 -109.895 -245.778 -110.402 -246.077 -110.744C-246.227 -110.915 -246.34 -111.045 -246.416 -111.133C-246.453 -111.176 -246.482 -111.209 -246.501 -111.231L-246.522 -111.256L-246.528 -111.263ZM-246.134 -58.5455C-246.469 -58.1476 -246.468 -58.1466 -246.467 -58.1455L-246.461 -58.1408L-246.439 -58.1226L-246.383 -58.0758L-246.354 -58.0519C-246.278 -57.989 -246.165 -57.8958 -246.015 -57.7731C-245.715 -57.5276 -245.267 -57.164 -244.671 -56.6896C-243.48 -55.7418 -241.701 -54.353 -239.345 -52.5865C-234.633 -49.053 -227.614 -44.0073 -218.378 -37.9541C-199.907 -25.8472 -172.569 -9.70836 -137.091 6.42886C-66.1348 38.7044 37.3853 70.9767 167.653 70.9767V69.9364C37.5602 69.9364 -65.8131 37.7077 -136.66 5.48215C-172.083 -10.6306 -199.375 -26.7429 -217.807 -38.8238C-227.024 -44.8646 -234.025 -49.8972 -238.72 -53.4182C-241.068 -55.179 -242.839 -56.5616 -244.023 -57.5036C-244.615 -57.9744 -245.06 -58.3354 -245.356 -58.5778C-245.42 -58.6298 -245.476 -58.6766 -245.526 -58.7177C-245.593 -58.7723 -245.647 -58.8171 -245.689 -58.8524C-245.726 -58.8826 -245.754 -58.906 -245.772 -58.9211L-245.792 -58.9383L-245.797 -58.9424C-245.797 -58.9424 -245.798 -58.9429 -245.808 -58.931C-245.813 -58.9253 -245.82 -58.9169 -245.831 -58.9045C-245.85 -58.8816 -245.881 -58.8452 -245.931 -58.7864L-246.134 -58.5455ZM-246.356 -0.33647C-246.356 -0.33647 -246.357 -0.336462 -246.356 -0.337502C-246.356 -0.338542 -246.355 -0.340631 -246.353 -0.345312C-246.349 -0.354155 -246.341 -0.371842 -246.324 -0.408254C-246.294 -0.470674 -246.239 -0.587708 -246.134 -0.806699C-246.032 -1.01893 -245.977 -1.13492 -245.946 -1.19838C-245.932 -1.22803 -245.923 -1.24624 -245.917 -1.25769C-245.912 -1.26861 -245.91 -1.27276 -245.909 -1.27432C-245.908 -1.27537 -245.908 -1.27537 -245.908 -1.27537L-245.903 -1.27277L-245.882 -1.2629L-245.799 -1.22388C-245.725 -1.18902 -245.614 -1.13701 -245.466 -1.06783C-245.169 -0.929987 -244.724 -0.72451 -244.132 -0.456623C-242.949 0.0786319 -241.177 0.86513 -238.828 1.86646C-234.132 3.86911 -227.129 6.73108 -217.911 10.1658C-199.475 17.0362 -172.177 26.1984 -136.745 35.3617C-65.8808 53.6878 37.5217 72.0171 167.653 72.0171V73.0574C37.4238 73.0574 -66.0672 54.7147 -137.006 36.3688C-172.475 27.1961 -199.807 18.0224 -218.275 11.1406C-227.508 7.69963 -234.526 4.83194 -239.237 2.82357C-241.592 1.81912 -243.371 1.0295 -244.562 0.491122C-245.157 0.221674 -245.605 0.0146512 -245.905 -0.124754C-246.055 -0.194457 -246.168 -0.247523 -246.244 -0.282894L-246.329 -0.323469L-246.351 -0.333867L-246.356 -0.33647ZM-246.134 45.4884C-246.204 45.8603 -246.223 45.9618 -246.228 45.9893C-246.23 45.9997 -246.229 45.9997 -246.229 45.9997L-246.224 46.0008L-246.202 46.0049L-246.117 46.0211C-246.042 46.0351 -245.93 46.0559 -245.78 46.0835L-245.64 46.1095L-245.468 46.1412C-245.373 46.1584 -245.268 46.1776 -245.155 46.1979C-244.947 46.2359 -244.708 46.2791 -244.439 46.3274C-243.25 46.5412 -241.473 46.8544 -239.12 47.2528C-234.412 48.0502 -227.399 49.1884 -218.169 50.5543C-199.71 53.2863 -172.387 56.9285 -136.929 60.5707C-66.0109 67.8547 37.4535 75.1381 167.653 75.1381V74.0977C37.492 74.0977 -65.9365 66.8164 -136.822 59.5356C-172.265 55.8954 -199.572 52.2553 -218.017 49.5254C-227.239 48.1605 -234.245 47.0234 -238.946 46.2271C-241.296 45.8291 -243.069 45.5165 -244.255 45.3037C-244.848 45.1971 -245.294 45.1154 -245.591 45.0603C-245.74 45.0333 -245.851 45.0125 -245.926 44.9984L-246.009 44.9828L-246.03 44.9786L-246.035 44.9776C-246.035 44.9776 -246.036 44.9776 -246.038 44.9875C-246.04 44.9974 -246.043 45.0161 -246.051 45.053L-246.066 45.1352C-246.081 45.2106 -246.102 45.323 -246.134 45.4884ZM-246.128 73.5776C-246.129 73.5776 -246.13 73.5776 -246.134 74.0977C-246.138 74.6179 -246.137 74.6179 -246.136 74.6179H-246.131H-246.122L-246.11 74.6184H-246.094H-246.075H-246.052L-246.025 74.619H-245.996L-245.962 74.6195H-245.926L-245.885 74.62H-245.842L-245.794 74.6205L-245.744 74.621L-245.69 74.6215H-245.632L-245.571 74.6221L-245.506 74.6226L-245.438 74.6231L-245.367 74.6236L-245.292 74.6242L-245.213 74.6252L-245.131 74.6257L-245.046 74.6262L-244.957 74.6268L-244.864 74.6278L-244.769 74.6283L-244.669 74.6288L-244.567 74.6299L-244.461 74.6304L-244.351 74.6314L-244.238 74.6325L-244.122 74.633L-244.002 74.634L-243.878 74.6351L-243.752 74.6361L-243.621 74.6372L-243.488 74.6382L-243.351 74.6392L-243.21 74.6403L-243.066 74.6413L-242.919 74.6424L-242.768 74.6434L-242.614 74.6444L-242.456 74.6455L-242.295 74.647L-242.131 74.6481L-241.963 74.6496L-241.791 74.6507L-241.617 74.6522L-241.439 74.6533L-241.257 74.6549L-241.072 74.6564L-240.884 74.6574L-240.692 74.659L-240.497 74.6606L-240.299 74.6621L-240.097 74.6637L-239.892 74.6652L-239.683 74.6668L-239.471 74.6684L-239.255 74.6699L-239.037 74.6715L-238.814 74.673L-238.589 74.6751L-238.36 74.6767L-238.128 74.6783L-237.892 74.6803L-237.653 74.6819L-237.411 74.684L-237.165 74.6855L-236.916 74.6876L-236.663 74.6897L-236.407 74.6913L-236.148 74.6933L-235.886 74.6954L-235.62 74.6975L-235.35 74.6996L-235.078 74.7011L-234.802 74.7032L-234.523 74.7058L-234.24 74.7079L-233.954 74.71L-233.665 74.7121L-233.372 74.7141L-233.076 74.7167L-232.777 74.7188L-232.474 74.7209L-232.168 74.7235L-231.859 74.7256L-231.546 74.7282L-231.23 74.7303L-230.911 74.7329L-230.588 74.7355L-230.262 74.7376L-229.933 74.7401L-229.601 74.7427L-229.265 74.7454L-228.926 74.748L-228.583 74.7506L-228.238 74.7532L-227.889 74.7558L-227.536 74.7584L-227.181 74.761L-226.822 74.7636L-226.46 74.7662L-226.094 74.7693L-225.725 74.7719L-225.353 74.775L-224.978 74.7776L-224.599 74.7802L-224.217 74.7833L-223.832 74.7865L-223.444 74.7891L-223.052 74.7922L-222.657 74.7953L-222.259 74.7979L-221.857 74.801L-221.452 74.8041L-221.044 74.8073L-220.633 74.8104L-220.218 74.8135L-219.801 74.8166L-219.379 74.8197L-218.955 74.8229L-218.528 74.826L-218.097 74.8296L-217.663 74.8327L-217.225 74.8359L-216.785 74.8395L-216.341 74.8426L-215.894 74.8463L-215.444 74.8494L-214.99 74.853L-214.533 74.8562L-214.073 74.8598L-213.61 74.8634L-213.144 74.8671L-212.674 74.8702L-212.201 74.8738L-211.725 74.8775L-211.246 74.8811L-210.763 74.8848L-210.277 74.8884L-209.789 74.892L-209.296 74.8957L-208.801 74.8998L-208.302 74.9035L-207.801 74.9071L-207.296 74.9108L-206.788 74.9149L-206.276 74.9186L-205.762 74.9227L-205.244 74.9264L-204.723 74.9305L-204.199 74.9342L-203.672 74.9383L-203.141 74.9425L-202.607 74.9461L-202.071 74.9503L-201.531 74.9545L-200.987 74.9586L-200.441 74.9628L-199.891 74.9669L-199.339 74.9711L-198.783 74.9753L-198.224 74.9794L-197.662 74.9836L-197.096 74.9878L-196.528 74.9919L-195.956 74.9966L-195.381 75.0008L-194.803 75.0049L-194.222 75.0096L-193.638 75.0138L-193.05 75.0184L-192.46 75.0226L-191.866 75.0273L-191.269 75.032L-190.669 75.0361L-190.066 75.0408L-189.46 75.0455L-188.85 75.0502L-188.238 75.0549L-187.622 75.0595L-187.003 75.0642L-186.381 75.0689L-185.757 75.0736L-185.128 75.0783L-184.497 75.083L-183.863 75.0876L-183.225 75.0923L-182.585 75.0975L-181.941 75.1022L-181.294 75.1069L-180.644 75.1121L-179.991 75.1168L-179.335 75.122L-178.676 75.1266L-178.013 75.1318L-177.348 75.137L-176.679 75.1417L-176.008 75.1469L-175.333 75.1521L-174.656 75.1573L-173.975 75.1625L-173.291 75.1672L-172.604 75.1724L-171.914 75.1776L-171.221 75.1828L-170.525 75.1885L-169.825 75.1937L-169.123 75.1989L-168.417 75.2042L-167.709 75.2093L-166.997 75.2151L-166.283 75.2203L-165.565 75.2255L-164.844 75.2312L-164.121 75.2364L-163.393 75.2421L-162.664 75.2478L-161.931 75.253L-161.195 75.2588L-160.456 75.2645L-159.714 75.2697L-158.968 75.2754L-158.22 75.2811L-157.469 75.2869L-156.715 75.2926L-155.958 75.2983L-155.197 75.304L-154.434 75.3097L-153.668 75.3155L-152.898 75.3212L-152.126 75.3269L-151.35 75.3331L-150.572 75.3389L-149.791 75.3446L-149.006 75.3508L-148.219 75.3566L-147.429 75.3623L-146.635 75.3685L-145.838 75.3742L-145.039 75.3805L-144.236 75.3867L-143.431 75.3925L-142.622 75.3987L-141.811 75.4049L-140.996 75.4112L-140.179 75.4174L-139.359 75.4231L-138.536 75.4294L-137.709 75.4356L-136.879 75.4419L-136.047 75.4481L-135.212 75.4549L-134.373 75.4611L-133.532 75.4673L-132.688 75.4736L-131.841 75.4798L-130.991 75.4866L-130.137 75.4928L-129.281 75.4996L-128.422 75.5058L-127.56 75.5126L-126.695 75.5188L-125.827 75.5256L-124.956 75.5318L-124.082 75.5386L-123.206 75.5454L-122.326 75.5516L-121.443 75.5584L-120.557 75.5651L-119.669 75.5719L-118.777 75.5787L-117.883 75.5854L-116.985 75.5922L-116.085 75.5989L-115.182 75.6057L-114.276 75.6125L-113.366 75.6192L-112.454 75.6265L-111.539 75.6333L-110.622 75.64L-109.701 75.6468L-108.777 75.6541L-107.851 75.6609L-106.921 75.6681L-105.988 75.6749L-105.053 75.6822L-104.115 75.6889L-103.174 75.6962L-102.23 75.7035L-101.283 75.7108L-100.333 75.7176L-99.3804 75.7248L-98.4248 75.7321L-97.466 75.7394L-96.5047 75.7467L-95.5402 75.754L-94.5732 75.7612L-93.603 75.7685L-92.6302 75.7758L-91.6543 75.7831L-90.6757 75.7904L-89.6941 75.7982L-88.7099 75.8055L-87.7225 75.8127L-86.732 75.8206L-85.7389 75.8278L-84.7433 75.8351L-83.7444 75.8429L-82.743 75.8502L-81.7385 75.858L-80.7308 75.8658L-79.7211 75.8731L-78.7077 75.8809L-77.6917 75.8887L-76.6731 75.896L-75.6514 75.9038L-74.6271 75.9116L-73.5996 75.9194L-72.5696 75.9272L-71.5369 75.935L-70.5012 75.9428L-69.4623 75.9506L-68.4208 75.9584L-67.3767 75.9662L-66.3295 75.974L-65.2796 75.9823L-64.2272 75.9901L-63.1717 75.9979L-62.113 76.0062L-61.0517 76.014L-59.9879 76.0219L-58.9209 76.0302L-57.8513 76.038L-56.7791 76.0463L-55.7037 76.0541L-54.6258 76.0624L-53.5448 76.0707L-52.4611 76.0786L-51.3748 76.0869L-50.2855 76.0952L-49.1935 76.1035L-48.0989 76.1118L-47.0012 76.1202L-45.9009 76.1285L-44.7975 76.1368L-43.6914 76.1451L-42.5828 76.1535L-41.4716 76.1618L-40.3572 76.1701L-39.2402 76.1784L-38.1201 76.1867L-36.9975 76.1956L-35.8722 76.2039L-34.7443 76.2122L-33.6132 76.2211L-32.4796 76.2294L-31.3434 76.2382L-30.2041 76.2466L-29.0621 76.2554L-27.9176 76.2637L-26.7699 76.2726L-25.6196 76.2814L-24.4667 76.2897L-23.3113 76.2986L-22.1527 76.3074L-20.9914 76.3163L-19.8276 76.3251L-18.6612 76.334L-17.4917 76.3428L-16.3196 76.3516L-15.1448 76.3605L-13.967 76.3693L-12.787 76.3782L-11.604 76.387L-10.4183 76.3959L-9.22949 76.4047L-8.03862 76.4141L-6.84462 76.4229L-5.64802 76.4317L-4.44882 76.4411L-3.2465 76.45L-2.0421 76.4593L-0.834565 76.4682L0.375573 76.4775L1.5883 76.4864L2.80416 76.4957L4.02209 76.5051L5.24316 76.5139L6.46683 76.5233L7.69309 76.5327L8.92195 76.542L10.1534 76.5509L11.388 76.5602L12.6252 76.5696L13.865 76.5789L15.1074 76.5883L16.3524 76.5977L17.6 76.607L18.8502 76.6164L20.1036 76.6263L21.3595 76.6356L22.618 76.645L23.8787 76.6544L25.1429 76.6643L26.4093 76.6736L27.6782 76.6835L28.9498 76.6929L30.2244 76.7022L31.5012 76.7121L32.7811 76.7215L34.0635 76.7314L35.3481 76.7412L36.6358 76.7506L37.9261 76.7605L39.219 76.7704L40.5145 76.7803L41.8125 76.7896L43.1138 76.7995L44.4171 76.8094L45.723 76.8193L47.032 76.8292L48.3431 76.839L49.6568 76.8489L50.9736 76.8588L52.2925 76.8687L53.6146 76.8791L54.9392 76.889L56.2659 76.8989L57.5958 76.9087L58.9277 76.9191L60.2627 76.929L61.5999 76.9389L62.9401 76.9493L64.283 76.9592L65.6279 76.9696L66.976 76.9795L68.3261 76.9899L69.6794 77.0003L71.0348 77.0102L72.3932 77.0206L73.7538 77.031L75.1175 77.0409L76.4832 77.0513L77.8516 77.0617L79.223 77.0721L80.5966 77.0825L81.9728 77.0929L83.3516 77.1033L84.7329 77.1137L86.1169 77.1241L87.5035 77.1345L88.8927 77.1449L90.2839 77.1553L91.6783 77.1662L93.0753 77.1766L94.4743 77.187L95.876 77.1974L97.2808 77.2084L98.6877 77.2188L100.097 77.2297L101.509 77.2401L102.923 77.251L104.341 77.2614L105.761 77.2723L107.183 77.2827L108.607 77.2937L110.035 77.3046L111.465 77.315L112.896 77.3259L114.331 77.3368L115.769 77.3478L117.209 77.3587L118.651 77.3696L120.096 77.3805L121.543 77.3915L122.993 77.4024L124.446 77.4133L125.901 77.4242L127.358 77.4351L128.818 77.4461L130.281 77.457L131.746 77.4684L133.213 77.4794L134.683 77.4903L136.155 77.5012L137.63 77.5127L139.108 77.5236L140.588 77.535L142.07 77.5459L143.555 77.5574L145.042 77.5683L146.532 77.5798L148.025 77.5912L149.519 77.6021L151.016 77.6136L152.516 77.625L154.019 77.6359L155.523 77.6474L157.031 77.6588L158.54 77.6703L160.052 77.6817L161.567 77.6931L163.083 77.7046L164.603 77.716L166.125 77.7275L167.649 77.7389L167.657 76.6986L166.133 76.6871L164.611 76.6757L163.091 76.6643L161.574 76.6528L160.06 76.6414L158.548 76.6299L157.038 76.6185L155.531 76.607L154.026 76.5961L152.524 76.5847L151.025 76.5732L149.527 76.5618L148.032 76.5509L146.54 76.5394L145.05 76.528L143.563 76.5171L142.078 76.5056L140.596 76.4947L139.115 76.4832L137.638 76.4723L136.163 76.4614L134.691 76.45L133.221 76.439L131.754 76.4281L130.288 76.4167L128.826 76.4057L127.366 76.3948L125.909 76.3839L124.454 76.373L123.001 76.362L121.551 76.3511L120.104 76.3402L118.659 76.3293L117.216 76.3184L115.777 76.3074L114.339 76.2965L112.904 76.2856L111.472 76.2747L110.043 76.2643L108.615 76.2533L107.19 76.2424L105.768 76.232L104.349 76.2211L102.932 76.2107L101.517 76.1997L100.105 76.1893L98.6955 76.1784L97.2886 76.168L95.8838 76.1571L94.4821 76.1467L93.0831 76.1363L91.6861 76.1259L90.2917 76.115L88.9004 76.1046L87.5113 76.0942L86.1247 76.0837L84.7407 76.0733L83.3593 76.063L81.9806 76.0525L80.6044 76.0421L79.2308 76.0317L77.8594 76.0213L76.491 76.0109L75.1252 76.0005L73.7616 75.9906L72.401 75.9802L71.0425 75.9698L69.6872 75.9599L68.3339 75.9495L66.9838 75.9391L65.6357 75.9293L64.2908 75.9189L62.9479 75.909L61.6082 75.8986L60.2706 75.8887L58.9355 75.8788L57.6036 75.8684L56.2737 75.8585L54.947 75.8486L53.6224 75.8387L52.3009 75.8283L50.9814 75.8185L49.6651 75.8086L48.3509 75.7987L47.0398 75.7888L45.7308 75.7789L44.4249 75.7691L43.1216 75.7592L41.8209 75.7498L40.5222 75.7399L39.2268 75.73L37.9339 75.7201L36.6436 75.7103L35.3564 75.7009L34.0713 75.691L32.7889 75.6817L31.509 75.6718L30.2322 75.6619L28.9576 75.6525L27.686 75.6432L26.4171 75.6333L25.1507 75.6239L23.887 75.614L22.6259 75.6047L21.3673 75.5953L20.1114 75.5859L18.8586 75.5766L17.6078 75.5667L16.3602 75.5573L15.1152 75.548L13.8728 75.5386L12.633 75.5293L11.3958 75.5199L10.1618 75.5105L8.92977 75.5017L7.70089 75.4923L6.47463 75.483L5.25097 75.4736L4.02991 75.4647L2.81197 75.4554L1.59611 75.446L0.383372 75.4372L-0.82675 75.4278L-2.03428 75.419L-3.23869 75.4096L-4.44101 75.4008L-5.64022 75.3914L-6.83682 75.3826L-8.03081 75.3737L-9.22168 75.3644L-10.4105 75.3555L-11.5961 75.3467L-12.7792 75.3378L-13.9592 75.329L-15.137 75.3201L-16.3118 75.3113L-17.4839 75.3025L-18.6534 75.2936L-19.8198 75.2848L-20.9836 75.2759L-22.1448 75.2671L-23.3035 75.2582L-24.4589 75.2494L-25.6118 75.2411L-26.7621 75.2322L-27.9098 75.2234L-29.0543 75.2151L-30.1962 75.2062L-31.3351 75.1979L-32.4718 75.1891L-33.6054 75.1807L-34.7365 75.1719L-35.8644 75.1636L-36.9896 75.1552L-38.1123 75.1464L-39.2324 75.1381L-40.3494 75.1298L-41.4637 75.1214L-42.575 75.1131L-43.6836 75.1048L-44.7897 75.0965L-45.8931 75.0881L-46.9934 75.0798L-48.0911 75.0715L-49.1857 75.0632L-50.2777 75.0549L-51.367 75.0465L-52.4533 75.0387L-53.537 75.0304L-54.618 75.0221L-55.6959 75.0143L-56.7713 75.006L-57.8435 74.9976L-58.9131 74.9898L-59.9801 74.9815L-61.0439 74.9737L-62.1052 74.9659L-63.1634 74.9576L-64.2189 74.9498L-65.2718 74.942L-66.3217 74.9337L-67.3689 74.9259L-68.413 74.918L-69.4545 74.9103L-70.4934 74.9024L-71.5291 74.8946L-72.5618 74.8868L-73.5918 74.879L-74.6193 74.8712L-75.6436 74.8634L-76.6653 74.8556L-77.6839 74.8483L-78.6999 74.8405L-79.7127 74.8327L-80.723 74.8255L-81.7307 74.8177L-82.7352 74.8098L-83.7366 74.8026L-84.7354 74.7948L-85.7311 74.7875L-86.7242 74.7802L-87.7147 74.7724L-88.7021 74.7651L-89.6863 74.7578L-90.6679 74.75L-91.6465 74.7427L-92.6224 74.7355L-93.5952 74.7282L-94.5654 74.7209L-95.5324 74.7136L-96.4969 74.7063L-97.4582 74.6991L-98.417 74.6918L-99.3726 74.6845L-100.325 74.6772L-101.275 74.6705L-102.222 74.6632L-103.166 74.6559L-104.107 74.6491L-105.045 74.6418L-105.981 74.6346L-106.913 74.6278L-107.843 74.6205L-108.769 74.6138L-109.693 74.607L-110.614 74.5997L-111.532 74.5929L-112.447 74.5862L-113.359 74.5789L-114.268 74.5721L-115.174 74.5654L-116.077 74.5586L-116.978 74.5518L-117.875 74.5451L-118.77 74.5383L-119.661 74.5316L-120.55 74.5248L-121.435 74.518L-122.318 74.5113L-123.198 74.505L-124.074 74.4983L-124.948 74.4915L-125.819 74.4853L-126.687 74.4785L-127.552 74.4723L-128.414 74.4655L-129.273 74.4593L-130.13 74.4525L-130.983 74.4463L-131.833 74.44L-132.68 74.4332L-133.524 74.427L-134.365 74.4208L-135.204 74.4145L-136.039 74.4083L-136.872 74.4015L-137.701 74.3953L-138.527 74.389L-139.351 74.3828L-140.171 74.3771L-140.989 74.3708L-141.803 74.3646L-142.615 74.3584L-143.423 74.3521L-144.229 74.3464L-145.031 74.3401L-145.831 74.3344L-146.627 74.3282L-147.421 74.3219L-148.211 74.3162L-148.998 74.3105L-149.783 74.3043L-150.565 74.2985L-151.343 74.2928L-152.118 74.2866L-152.891 74.2808L-153.66 74.2751L-154.426 74.2694L-155.19 74.2637L-155.95 74.258L-156.707 74.2522L-157.461 74.2465L-158.213 74.2408L-158.96 74.2351L-159.706 74.2293L-160.448 74.2241L-161.187 74.2184L-161.923 74.2127L-162.656 74.2075L-163.386 74.2018L-164.113 74.1961L-164.836 74.1908L-165.557 74.1857L-166.275 74.1799L-166.989 74.1747L-167.701 74.169L-168.409 74.1638L-169.115 74.1586L-169.817 74.1534L-170.516 74.1482L-171.213 74.1425L-171.906 74.1373L-172.596 74.1321L-173.283 74.1269L-173.967 74.1222L-174.648 74.117L-175.326 74.1118L-176 74.1066L-176.672 74.1014L-177.34 74.0967L-178.006 74.0915L-178.668 74.0863L-179.327 74.0816L-179.983 74.0764L-180.636 74.0717L-181.286 74.0665L-181.933 74.0619L-182.577 74.0572L-183.217 74.052L-183.855 74.0473L-184.489 74.0426L-185.121 74.0379L-185.748 74.0332L-186.373 74.0286L-186.995 74.0239L-187.614 74.0192L-188.23 74.0145L-188.843 74.0098L-189.452 74.0051L-190.058 74.0005L-190.661 73.9958L-191.261 73.9916L-191.858 73.9869L-192.452 73.9828L-193.042 73.9781L-193.63 73.9734L-194.214 73.9693L-194.795 73.9651L-195.373 73.9604L-195.948 73.9563L-196.52 73.9521L-197.088 73.9474L-197.654 73.9433L-198.216 73.9391L-198.775 73.9349L-199.331 73.9308L-199.884 73.9266L-200.433 73.9224L-200.98 73.9183L-201.523 73.9141L-202.063 73.91L-202.6 73.9058L-203.133 73.9022L-203.664 73.898L-204.191 73.8938L-204.715 73.8902L-205.236 73.886L-205.754 73.8824L-206.268 73.8782L-206.78 73.8746L-207.288 73.8704L-207.793 73.8668L-208.295 73.8632L-208.793 73.8595L-209.289 73.8553L-209.781 73.8517L-210.27 73.8481L-210.755 73.8444L-211.238 73.8408L-211.717 73.8371L-212.193 73.8335L-212.666 73.8298L-213.136 73.8267L-213.602 73.8231L-214.065 73.8194L-214.525 73.8158L-214.982 73.8127L-215.436 73.8091L-215.886 73.8059L-216.333 73.8023L-216.777 73.7992L-217.217 73.7955L-217.655 73.7924L-218.089 73.7893L-218.52 73.7862L-218.947 73.7825L-219.372 73.7794L-219.793 73.7763L-220.211 73.7732L-220.625 73.77L-221.036 73.7669L-221.445 73.7638L-221.849 73.7607L-222.251 73.7576L-222.649 73.755L-223.044 73.7518L-223.436 73.7487L-223.824 73.7461L-224.21 73.743L-224.591 73.7399L-224.97 73.7373L-225.345 73.7347L-225.717 73.7315L-226.086 73.7289L-226.452 73.7263L-226.814 73.7232L-227.173 73.7206L-227.528 73.718L-227.881 73.7154L-228.23 73.7128L-228.576 73.7102L-228.918 73.7076L-229.257 73.705L-229.593 73.7024L-229.925 73.6998L-230.255 73.6972L-230.581 73.6951L-230.903 73.6925L-231.222 73.6899L-231.538 73.6879L-231.851 73.6852L-232.16 73.6832L-232.466 73.6806L-232.769 73.6785L-233.068 73.6764L-233.364 73.6738L-233.657 73.6717L-233.946 73.6696L-234.232 73.6676L-234.515 73.6655L-234.794 73.6634L-235.07 73.6613L-235.343 73.6592L-235.612 73.6572L-235.878 73.6551L-236.14 73.653L-236.399 73.6509L-236.655 73.6494L-236.908 73.6473L-237.157 73.6452L-237.403 73.6436L-237.645 73.6415L-237.884 73.64L-238.12 73.6379L-238.352 73.6364L-238.581 73.6348L-238.807 73.6327L-239.029 73.6311L-239.248 73.6296L-239.463 73.628L-239.675 73.6265L-239.884 73.6249L-240.089 73.6234L-240.291 73.6218L-240.489 73.6202L-240.684 73.6187L-240.876 73.6171L-241.064 73.6161L-241.249 73.6145L-241.431 73.6129L-241.609 73.6119L-241.784 73.6103L-241.955 73.6093L-242.123 73.6077L-242.287 73.6067L-242.448 73.6057L-242.606 73.6041L-242.76 73.6031L-242.911 73.602L-243.058 73.601L-243.202 73.5999L-243.343 73.5989L-243.48 73.5979L-243.613 73.5968L-243.744 73.5958L-243.87 73.5947L-243.994 73.5937L-244.114 73.5927L-244.23 73.5921L-244.343 73.5911L-244.453 73.5906L-244.559 73.5895L-244.662 73.5885L-244.761 73.588L-244.857 73.5875L-244.949 73.5864L-245.038 73.5859L-245.123 73.5854L-245.205 73.5849L-245.284 73.5838L-245.359 73.5833L-245.43 73.5828L-245.498 73.5823L-245.563 73.5817H-245.624L-245.682 73.5812L-245.736 73.5807L-245.787 73.5802L-245.834 73.5797H-245.878L-245.918 73.5791H-245.955L-245.988 73.5786H-246.018L-246.044 73.5781H-246.067H-246.086H-246.102L-246.114 73.5776H-246.123H-246.128ZM-246.134 213.503C-246.469 213.105 -246.468 213.105 -246.467 213.104L-246.461 213.099L-246.439 213.081L-246.434 213.076L-246.389 213.038L-246.354 213.01L-246.29 212.957L-246.218 212.897C-246.16 212.849 -246.093 212.794 -246.015 212.731C-245.715 212.485 -245.267 212.122 -244.671 211.648C-243.48 210.7 -241.701 209.311 -239.345 207.544C-234.633 204.011 -227.614 198.965 -218.378 192.912C-199.907 180.805 -172.569 164.667 -137.091 148.529C-66.1348 116.253 37.3853 83.981 167.653 83.981V85.0213C37.5602 85.0213 -65.8131 117.25 -136.66 149.476C-172.083 165.589 -199.375 181.701 -217.807 193.782C-227.024 199.822 -234.025 204.855 -238.72 208.376C-241.068 210.137 -242.839 211.52 -244.023 212.461C-244.615 212.933 -245.06 213.293 -245.356 213.535C-245.504 213.657 -245.615 213.749 -245.689 213.81C-245.719 213.835 -245.742 213.854 -245.76 213.869L-245.772 213.879L-245.792 213.896L-245.797 213.9C-245.797 213.9 -245.798 213.901 -245.823 213.872C-245.858 213.831 -245.939 213.734 -246.134 213.503ZM-246.356 154.774C-246.358 154.775 -246.358 154.775 -246.134 155.244C-245.909 155.713 -245.909 155.713 -245.908 155.713L-245.903 155.71L-245.882 155.701L-245.799 155.661C-245.725 155.627 -245.614 155.575 -245.466 155.505C-245.344 155.449 -245.198 155.381 -245.026 155.302C-244.921 155.254 -244.807 155.201 -244.683 155.145C-244.517 155.069 -244.333 154.985 -244.132 154.895C-242.949 154.359 -241.177 153.572 -238.828 152.571C-234.132 150.569 -227.129 147.707 -217.911 144.272C-199.475 137.401 -172.177 128.239 -136.745 119.076C-65.8808 100.75 37.5217 82.4205 167.653 82.4205V81.3801C37.4238 81.3801 -66.0672 99.7229 -137.006 118.069C-172.475 127.241 -199.807 136.415 -218.275 143.297C-227.508 146.738 -234.526 149.606 -239.237 151.614C-241.592 152.618 -243.371 153.408 -244.562 153.947C-245.157 154.216 -245.605 154.423 -245.905 154.562C-245.99 154.602 -246.062 154.636 -246.123 154.664C-246.171 154.686 -246.211 154.705 -246.244 154.721L-246.329 154.761L-246.351 154.771L-246.356 154.774ZM-246.134 108.429C-246.231 107.918 -246.23 107.918 -246.229 107.918L-246.224 107.917L-246.202 107.912L-246.117 107.897C-246.042 107.883 -245.93 107.861 -245.78 107.834C-245.481 107.779 -245.034 107.697 -244.439 107.59C-243.25 107.376 -241.473 107.063 -239.12 106.665C-234.412 105.868 -227.399 104.729 -218.169 103.363C-199.71 100.631 -172.387 96.9889 -136.929 93.3466C-66.0109 86.0627 37.4535 78.7793 167.653 78.7793V79.8196C37.492 79.8196 -65.9365 87.1009 -136.822 94.3818C-172.265 98.0219 -199.572 101.662 -218.017 104.392C-227.239 105.757 -234.245 106.894 -238.946 107.69C-241.296 108.088 -243.069 108.401 -244.255 108.614C-244.613 108.678 -244.918 108.733 -245.168 108.779C-245.332 108.809 -245.473 108.835 -245.591 108.857C-245.74 108.885 -245.851 108.905 -245.926 108.919L-246.009 108.935L-246.03 108.939L-246.035 108.94C-246.036 108.94 -246.037 108.94 -246.134 108.429Z" fill="url(#paint1_linear_172_595)"/>
<g filter="url(#filter0_bd_172_595)">
<circle cx="131.378" cy="76.5548" r="36.6222" fill="url(#paint2_linear_172_595)" fill-opacity="0.36" shape-rendering="crispEdges"/>
<circle cx="131.378" cy="76.5548" r="36.2667" stroke="url(#paint3_linear_172_595)" stroke-width="0.711111" shape-rendering="crispEdges"/>
</g>
<g opacity="0.7">
<path d="M131.733 95.8732C142.206 95.8732 150.696 87.3832 150.696 76.9102C150.696 66.4373 142.206 57.9473 131.733 57.9473C121.26 57.9473 112.77 66.4373 112.77 76.9102C112.77 87.3832 121.26 95.8732 131.733 95.8732Z" stroke="#FEFEFE" stroke-width="1.77778" stroke-miterlimit="10" stroke-linecap="round" stroke-linejoin="round"/>
<path d="M131.733 71.4492C133.458 71.4492 134.862 72.8525 134.862 74.5782V79.262C134.862 80.9876 133.458 82.3909 131.733 82.3909C130.007 82.3909 128.604 80.9876 128.604 79.262" stroke="#FEFEFE" stroke-width="1.77778" stroke-linecap="round"/>
<path d="M141.177 79.6979C140.798 84.5904 136.702 88.421 131.733 88.421C126.5 88.421 122.252 84.1733 122.252 78.9395V74.8814C122.252 69.6476 126.5 65.3999 131.733 65.3999C136.645 65.3999 140.684 69.1356 141.158 73.9143" stroke="#FEFEFE" stroke-width="1.77778" stroke-linecap="round"/>
</g>
<defs>
<filter id="filter0_bd_172_595" x="78.8267" y="24.0037" width="105.102" height="105.102" filterUnits="userSpaceOnUse" color-interpolation-filters="sRGB">
<feFlood flood-opacity="0" result="BackgroundImageFix"/>
<feGaussianBlur in="BackgroundImageFix" stdDeviation="7.96444"/>
<feComposite in2="SourceAlpha" operator="in" result="effect1_backgroundBlur_172_595"/>
<feColorMatrix in="SourceAlpha" type="matrix" values="0 0 0 0 0 0 0 0 0 0 0 0 0 0 0 0 0 0 127 0" result="hardAlpha"/>
<feOffset dy="2.84444"/>
<feGaussianBlur stdDeviation="1.42222"/>
<feComposite in2="hardAlpha" operator="out"/>
<feColorMatrix type="matrix" values="0 0 0 0 0 0 0 0 0 0 0 0 0 0 0 0 0 0 0.69 0"/>
<feBlend mode="normal" in2="effect1_backgroundBlur_172_595" result="effect2_dropShadow_172_595"/>
<feBlend mode="normal" in="SourceGraphic" in2="effect2_dropShadow_172_595" result="shape"/>
</filter>
<linearGradient id="paint0_linear_172_595" x1="128.737" y1="7.5082" x2="528.689" y2="7.5082" gradientUnits="userSpaceOnUse">
<stop offset="0.127609" stop-color="#DD1D63"/>
<stop offset="0.563305" stop-color="#DD1D63"/>
<stop offset="0.943305" stop-color="#FD28A8" stop-opacity="0"/>
</linearGradient>
<linearGradient id="paint1_linear_172_595" x1="161.408" y1="7.5082" x2="-238.545" y2="7.5082" gradientUnits="userSpaceOnUse">
<stop offset="0.127609" stop-color="#DD1D63"/>
<stop offset="0.563305" stop-color="#DD1D63"/>
<stop offset="0.943305" stop-color="#FD28A8" stop-opacity="0"/>
</linearGradient>
<linearGradient id="paint2_linear_172_595" x1="91.5556" y1="49.1771" x2="163.733" y2="113.177" gradientUnits="userSpaceOnUse">
<stop stop-color="#787878"/>
<stop offset="1" stop-color="#717171" stop-opacity="0.18"/>
</linearGradient>
<linearGradient id="paint3_linear_172_595" x1="97.6001" y1="53.4437" x2="152.711" y2="104.644" gradientUnits="userSpaceOnUse">
<stop stop-color="white"/>
<stop offset="0.15" stop-opacity="0"/>
<stop offset="0.215" stop-color="#9C9898"/>
<stop offset="0.805" stop-opacity="0"/>
<stop offset="0.980547" stop-color="#575555" stop-opacity="0.61"/>
</linearGradient>
</defs>
</svg>
