<svg width="235" height="216" viewBox="0 0 235 216" fill="none" xmlns="http://www.w3.org/2000/svg">
<path fill-rule="evenodd" clip-rule="evenodd" d="M-348 -264.243C-348.002 -264.246 -348.003 -264.248 -347.376 -264.626C-346.749 -265.003 -346.748 -265.002 -346.747 -265L-346.74 -264.988L-346.711 -264.94C-346.685 -264.897 -346.646 -264.833 -346.593 -264.748C-346.489 -264.577 -346.332 -264.322 -346.123 -263.985C-345.706 -263.311 -345.079 -262.309 -344.246 -261.001C-342.58 -258.387 -340.087 -254.55 -336.784 -249.665C-330.177 -239.896 -320.328 -225.937 -307.364 -209.183C-281.436 -175.674 -243.055 -130.997 -193.243 -86.3209C-93.6104 3.03775 51.6947 92.3408 234.512 92.3408V93.8038C51.1977 93.8038 -94.4418 4.25787 -194.221 -85.2325C-244.113 -129.981 -282.554 -174.727 -308.522 -208.288C-321.507 -225.068 -331.374 -239.054 -337.996 -248.846C-341.308 -253.743 -343.808 -257.59 -345.481 -260.216C-346.317 -261.528 -346.947 -262.535 -347.368 -263.215C-347.578 -263.554 -347.737 -263.812 -347.843 -263.985C-347.896 -264.072 -347.935 -264.137 -347.962 -264.181L-347.992 -264.231L-348 -264.243ZM-347.93 -156.619C-347.932 -156.621 -347.933 -156.622 -347.376 -157.097C-346.819 -157.571 -346.818 -157.57 -346.817 -157.569L-346.81 -157.561L-346.781 -157.527L-346.73 -157.468L-346.664 -157.392C-346.62 -157.34 -346.566 -157.278 -346.502 -157.204L-346.4 -157.087C-346.339 -157.016 -346.27 -156.938 -346.195 -156.853C-345.778 -156.376 -345.152 -155.668 -344.319 -154.744C-342.654 -152.895 -340.163 -150.181 -336.861 -146.727C-330.256 -139.817 -320.41 -129.942 -307.449 -118.09C-281.527 -94.3863 -243.15 -62.7765 -193.339 -31.1667C-93.7172 32.0537 51.62 95.2668 234.512 95.2668V96.7297C51.2716 96.7297 -94.335 33.3952 -194.124 -29.9319C-244.018 -61.5951 -282.464 -93.2598 -308.437 -117.011C-321.424 -128.887 -331.294 -138.785 -337.919 -145.716C-341.232 -149.182 -343.733 -151.906 -345.407 -153.765C-346.244 -154.695 -346.875 -155.408 -347.296 -155.889C-347.507 -156.13 -347.666 -156.313 -347.772 -156.436C-347.825 -156.497 -347.865 -156.543 -347.892 -156.575L-347.922 -156.61L-347.93 -156.619ZM-347.376 -82.485C-347.847 -81.9254 -347.846 -81.924 -347.844 -81.9225L-347.836 -81.9159L-347.806 -81.8903L-347.727 -81.8245L-347.686 -81.7908C-347.579 -81.7023 -347.42 -81.5714 -347.209 -81.3987C-346.788 -81.0535 -346.157 -80.5422 -345.319 -79.875C-343.644 -78.5423 -341.142 -76.5892 -337.829 -74.1051C-331.203 -69.1361 -321.332 -62.0406 -308.345 -53.5283C-282.369 -36.5029 -243.926 -13.8077 -194.035 8.88525C-94.2523 54.2727 51.3228 99.6557 234.512 99.6557V98.1927C51.5688 98.1927 -93.7999 52.8711 -193.428 7.55396C-243.243 -15.1046 -281.621 -37.7625 -307.542 -54.7513C-320.502 -63.2461 -330.348 -70.3233 -336.951 -75.2747C-340.252 -77.7508 -342.743 -79.6951 -344.407 -81.0198C-345.24 -81.6818 -345.865 -82.1895 -346.282 -82.5303C-346.371 -82.6035 -346.451 -82.6693 -346.521 -82.7271C-346.615 -82.8039 -346.691 -82.8668 -346.75 -82.9166C-346.802 -82.959 -346.841 -82.9919 -346.867 -83.0131L-346.896 -83.0373L-346.903 -83.0431C-346.903 -83.0431 -346.903 -83.0439 -346.918 -83.027C-346.925 -83.019 -346.935 -83.0073 -346.95 -82.9897C-346.977 -82.9575 -347.021 -82.9063 -347.09 -82.8237L-347.376 -82.485ZM-347.689 -0.628479C-347.689 -0.628479 -347.689 -0.628479 -347.689 -0.629944C-347.688 -0.631409 -347.687 -0.634338 -347.684 -0.64093C-347.679 -0.653351 -347.667 -0.678223 -347.643 -0.729431C-347.602 -0.8172 -347.523 -0.981781 -347.376 -1.28976C-347.233 -1.5882 -347.155 -1.75131 -347.112 -1.84055C-347.091 -1.88226 -347.079 -1.90787 -347.071 -1.92395C-347.064 -1.9393 -347.061 -1.94516 -347.059 -1.94736C-347.058 -1.94882 -347.058 -1.94882 -347.058 -1.94882L-347.051 -1.94516L-347.022 -1.93127L-346.906 -1.8764C-346.802 -1.82739 -346.645 -1.75424 -346.437 -1.65698C-346.02 -1.46313 -345.394 -1.17416 -344.561 -0.797455C-342.897 -0.0447388 -340.405 1.06125 -337.103 2.46939C-330.498 5.28561 -320.65 9.31024 -307.687 14.1403C-281.762 23.8018 -243.374 36.6862 -193.548 49.5721C-93.8951 75.3432 51.5146 101.119 234.512 101.119V102.582C51.377 102.582 -94.1571 76.7871 -193.915 50.9883C-243.794 38.0892 -282.229 25.1887 -308.199 15.5111C-321.184 10.6723 -331.052 6.63959 -337.677 3.81531C-340.989 2.4028 -343.491 1.29239 -345.165 0.535309C-346.002 0.156403 -346.633 -0.134735 -347.055 -0.33075C-347.265 -0.428772 -347.424 -0.503418 -347.53 -0.553162L-347.65 -0.610199L-347.681 -0.624817L-347.689 -0.628479ZM-347.376 63.8127C-347.475 64.3358 -347.502 64.4784 -347.508 64.5172C-347.511 64.5318 -347.51 64.5318 -347.51 64.5318L-347.502 64.5333L-347.472 64.5391L-347.353 64.5618C-347.247 64.5815 -347.089 64.6108 -346.879 64.6496L-346.682 64.6862L-346.439 64.7308C-346.305 64.7549 -346.159 64.782 -346 64.8105C-345.707 64.8639 -345.371 64.9246 -344.993 64.9926C-343.321 65.2933 -340.822 65.7336 -337.512 66.2939C-330.893 67.4153 -321.029 69.0158 -308.05 70.9367C-282.092 74.7785 -243.67 79.9004 -193.806 85.0222C-94.0781 95.2653 51.4187 105.508 234.512 105.508V104.045C51.4729 104.045 -93.9734 93.8052 -193.656 83.5666C-243.498 78.4476 -281.898 73.3287 -307.836 69.4898C-320.805 67.5704 -330.658 65.9714 -337.268 64.8515C-340.573 64.2919 -343.067 63.8522 -344.734 63.5531C-345.567 63.4031 -346.194 63.2883 -346.613 63.2107C-346.822 63.1727 -346.979 63.1434 -347.083 63.1237L-347.201 63.1017L-347.23 63.0959L-347.237 63.0944C-347.237 63.0944 -347.238 63.0944 -347.241 63.1083C-347.244 63.1222 -347.249 63.1486 -347.259 63.2005L-347.281 63.3161C-347.301 63.4221 -347.332 63.5801 -347.376 63.8127ZM-347.368 103.313C-347.369 103.313 -347.37 103.313 -347.376 104.045C-347.381 104.776 -347.38 104.776 -347.379 104.776H-347.371H-347.359L-347.342 104.777H-347.32H-347.293H-347.26L-347.224 104.778H-347.182L-347.135 104.778H-347.083L-347.027 104.779H-346.965L-346.899 104.78L-346.827 104.781L-346.751 104.781H-346.67L-346.584 104.782L-346.493 104.783L-346.398 104.783L-346.297 104.784L-346.191 104.785L-346.081 104.786L-345.966 104.787L-345.846 104.788L-345.721 104.789L-345.591 104.79L-345.456 104.791L-345.317 104.791L-345.172 104.793L-345.023 104.794L-344.869 104.795L-344.71 104.797L-344.546 104.797L-344.378 104.799L-344.204 104.8L-344.026 104.802L-343.843 104.803L-343.655 104.805L-343.462 104.806L-343.264 104.808L-343.062 104.809L-342.855 104.81L-342.643 104.812L-342.426 104.813L-342.204 104.815L-341.978 104.817L-341.746 104.819L-341.51 104.821L-341.269 104.822L-341.024 104.824L-340.773 104.826L-340.518 104.828L-340.258 104.83L-339.993 104.832L-339.724 104.834L-339.449 104.836L-339.17 104.838L-338.886 104.84L-338.598 104.843L-338.304 104.845L-338.006 104.847L-337.703 104.849L-337.396 104.851L-337.083 104.854L-336.766 104.857L-336.444 104.859L-336.117 104.861L-335.786 104.864L-335.45 104.866L-335.109 104.869L-334.763 104.871L-334.413 104.874L-334.058 104.877L-333.698 104.879L-333.333 104.882L-332.964 104.885L-332.59 104.888L-332.212 104.891L-331.828 104.893L-331.44 104.896L-331.048 104.9L-330.65 104.903L-330.248 104.906L-329.841 104.909L-329.429 104.911L-329.013 104.915L-328.592 104.918L-328.167 104.921L-327.736 104.925L-327.302 104.928L-326.862 104.931L-326.418 104.934L-325.969 104.938L-325.515 104.941L-325.057 104.944L-324.594 104.948L-324.126 104.952L-323.654 104.955L-323.177 104.959L-322.696 104.963L-322.209 104.966L-321.719 104.97L-321.223 104.974L-320.723 104.977L-320.218 104.981L-319.709 104.985L-319.195 104.989L-318.676 104.993L-318.153 104.997L-317.625 105.001L-317.093 105.004L-316.556 105.009L-316.014 105.013L-315.468 105.017L-314.917 105.021L-314.362 105.026L-313.802 105.029L-313.237 105.034L-312.668 105.038L-312.094 105.042L-311.515 105.047L-310.932 105.051L-310.345 105.056L-309.753 105.06L-309.156 105.064L-308.555 105.069L-307.949 105.074L-307.338 105.078L-306.723 105.083L-306.104 105.088L-305.48 105.092L-304.851 105.097L-304.218 105.102L-303.58 105.107L-302.938 105.111L-302.291 105.116L-301.639 105.121L-300.984 105.126L-300.323 105.131L-299.658 105.136L-298.989 105.141L-298.315 105.146L-297.636 105.151L-296.953 105.156L-296.265 105.162L-295.573 105.167L-294.877 105.173L-294.176 105.178L-293.47 105.183L-292.76 105.188L-292.045 105.194L-291.326 105.199L-290.603 105.205L-289.874 105.21L-289.142 105.216L-288.405 105.221L-287.663 105.227L-286.917 105.233L-286.167 105.238L-285.412 105.244L-284.653 105.249L-283.889 105.255L-283.12 105.261L-282.348 105.267L-281.57 105.273L-280.789 105.279L-280.002 105.285L-279.212 105.29L-278.417 105.296L-277.617 105.302L-276.813 105.309L-276.005 105.314L-275.192 105.32L-274.375 105.327L-273.553 105.333L-272.727 105.339L-271.896 105.345L-271.062 105.352L-270.222 105.358L-269.379 105.364L-268.53 105.371L-267.678 105.377L-266.821 105.384L-265.96 105.391L-265.094 105.397L-264.224 105.404L-263.349 105.41L-262.471 105.417L-261.587 105.423L-260.699 105.43L-259.807 105.437L-258.91 105.443L-258.01 105.451L-257.105 105.457L-256.195 105.464L-255.281 105.471L-254.363 105.478L-253.44 105.485L-252.513 105.492L-251.582 105.499L-250.646 105.506L-249.706 105.513L-248.761 105.52L-247.813 105.527L-246.86 105.535L-245.902 105.542L-244.941 105.549L-243.975 105.556L-243.004 105.563L-242.029 105.57L-241.05 105.579L-240.067 105.586L-239.079 105.593L-238.087 105.601L-237.091 105.608L-236.09 105.616L-235.085 105.623L-234.076 105.63L-233.062 105.639L-232.045 105.646L-231.022 105.654L-229.996 105.662L-228.966 105.669L-227.931 105.677L-226.891 105.685L-225.847 105.693L-224.799 105.701L-223.748 105.709L-222.691 105.717L-221.631 105.725L-220.566 105.733L-219.496 105.741L-218.423 105.749L-217.345 105.757L-216.264 105.765L-215.177 105.773L-214.087 105.782L-212.993 105.79L-211.893 105.798L-210.79 105.807L-209.683 105.815L-208.572 105.823L-207.455 105.832L-206.336 105.84L-205.211 105.848L-204.083 105.857L-202.95 105.865L-201.813 105.874L-200.672 105.883L-199.526 105.892L-198.377 105.9L-197.224 105.908L-196.066 105.917L-194.903 105.926L-193.737 105.935L-192.566 105.944L-191.392 105.953L-190.213 105.962L-189.03 105.971L-187.843 105.979L-186.651 105.988L-185.456 105.998L-184.256 106.006L-183.052 106.016L-181.844 106.025L-180.632 106.034L-179.415 106.043L-178.194 106.053L-176.97 106.061L-175.741 106.071L-174.508 106.08L-173.27 106.089L-172.03 106.099L-170.784 106.108L-169.535 106.118L-168.281 106.127L-167.023 106.137L-165.761 106.146L-164.495 106.156L-163.225 106.165L-161.95 106.175L-160.672 106.184L-159.389 106.194L-158.103 106.204L-156.812 106.213L-155.517 106.223L-154.218 106.233L-152.915 106.243L-151.608 106.253L-150.296 106.263L-148.981 106.273L-147.662 106.282L-146.338 106.292L-145.011 106.303L-143.679 106.313L-142.343 106.322L-141.004 106.333L-139.66 106.343L-138.312 106.353L-136.96 106.363L-135.604 106.374L-134.244 106.384L-132.879 106.394L-131.511 106.404L-130.139 106.415L-128.763 106.425L-127.383 106.436L-125.998 106.446L-124.61 106.456L-123.217 106.467L-121.821 106.478L-120.42 106.488L-119.016 106.499L-117.608 106.509L-116.195 106.52L-114.778 106.531L-113.358 106.541L-111.933 106.552L-110.504 106.563L-109.072 106.573L-107.635 106.584L-106.195 106.595L-104.75 106.606L-103.301 106.617L-101.849 106.628L-100.392 106.639L-98.9315 106.65L-97.4669 106.661L-95.9987 106.672L-94.526 106.683L-93.0497 106.695L-91.5698 106.706L-90.0854 106.717L-88.5966 106.728L-87.1042 106.739L-85.6081 106.75L-84.1077 106.762L-82.6036 106.773L-81.0958 106.785L-79.5836 106.796L-78.0677 106.807L-76.5475 106.819L-75.0237 106.83L-73.4961 106.842L-71.9642 106.854L-70.4286 106.865L-68.8893 106.877L-67.3456 106.889L-65.7983 106.9L-64.2466 106.912L-62.6913 106.924L-61.1323 106.935L-59.5696 106.947L-58.0025 106.959L-56.4318 106.971L-54.8567 106.982L-53.2779 106.995L-51.6954 107.006L-50.1093 107.018L-48.5188 107.031L-46.9247 107.042L-45.3269 107.055L-43.7247 107.066L-42.1188 107.079L-40.5093 107.091L-38.8954 107.103L-37.2778 107.115L-35.6566 107.127L-34.0316 107.14L-32.4024 107.152L-30.7694 107.164L-29.1328 107.177L-27.4926 107.189L-25.8479 107.202L-24.1996 107.214L-22.5476 107.227L-20.8912 107.239L-19.2319 107.251L-17.5683 107.264L-15.9009 107.276L-14.2292 107.289L-12.5545 107.302L-10.8755 107.314L-9.19272 107.327L-7.50638 107.34L-5.81561 107.352L-4.12192 107.366L-2.42383 107.378L-0.722046 107.391L0.983337 107.404L2.69315 107.417L4.40585 107.43L6.12299 107.442L7.84378 107.456L9.56821 107.469L11.2963 107.482L13.028 107.494L14.7642 107.508L16.504 107.521L18.2475 107.534L19.9946 107.547L21.7454 107.56L23.4998 107.573L25.2579 107.586L27.0204 107.6L28.7866 107.614L30.5564 107.627L32.3291 107.64L34.107 107.654L35.8878 107.667L37.6722 107.681L39.4604 107.694L41.2529 107.707L43.0483 107.721L44.8481 107.734L46.6516 107.748L48.4581 107.762L50.2689 107.775L52.0833 107.789L53.9015 107.803L55.7233 107.817L57.5487 107.83L59.3785 107.844L61.2113 107.858L63.0477 107.872L64.8885 107.886L66.7322 107.9L68.5797 107.913L70.4315 107.927L72.2862 107.941L74.1453 107.956L76.0081 107.97L77.8738 107.984L79.7439 107.998L81.6169 108.012L83.4943 108.026L85.3746 108.04L87.2594 108.055L89.1477 108.069L91.0391 108.083L92.9348 108.097L94.8334 108.112L96.7365 108.126L98.6424 108.14L100.553 108.155L102.466 108.169L104.384 108.183L106.304 108.198L108.229 108.213L110.157 108.227L112.089 108.242L114.024 108.257L115.963 108.271L117.905 108.286L119.852 108.3L121.802 108.315L123.755 108.33L125.712 108.344L127.672 108.36L129.637 108.374L131.604 108.389L133.575 108.404L135.551 108.419L137.529 108.434L139.511 108.449L141.497 108.464L143.486 108.479L145.479 108.494L147.476 108.509L149.475 108.524L151.479 108.539L153.486 108.554L155.497 108.569L157.51 108.584L159.528 108.6L161.55 108.615L163.574 108.63L165.603 108.646L167.635 108.661L169.67 108.676L171.709 108.692L173.752 108.707L175.798 108.722L177.847 108.738L179.9 108.753L181.957 108.769L184.017 108.785L186.081 108.8L188.148 108.815L190.218 108.831L192.293 108.847L194.37 108.862L196.451 108.878L198.536 108.894L200.624 108.91L202.715 108.925L204.811 108.941L206.909 108.957L209.011 108.973L211.117 108.989L213.226 109.005L215.338 109.02L217.454 109.036L219.574 109.052L221.697 109.068L223.823 109.085L225.953 109.101L228.086 109.117L230.223 109.133L232.363 109.149L234.506 109.165L234.517 107.702L232.374 107.686L230.234 107.67L228.097 107.654L225.964 107.638L223.834 107.622L221.708 107.606L219.585 107.589L217.465 107.573L215.349 107.558L213.237 107.542L211.128 107.526L209.022 107.51L206.92 107.494L204.822 107.478L202.726 107.462L200.635 107.447L198.547 107.431L196.463 107.415L194.381 107.399L192.304 107.384L190.229 107.368L188.159 107.352L186.092 107.337L184.028 107.322L181.968 107.306L179.911 107.29L177.858 107.275L175.809 107.26L173.763 107.244L171.72 107.229L169.681 107.213L167.646 107.198L165.614 107.183L163.585 107.167L161.561 107.152L159.539 107.137L157.521 107.121L155.508 107.106L153.497 107.091L151.49 107.076L149.486 107.061L147.487 107.046L145.49 107.031L143.497 107.016L141.508 107.001L139.522 106.986L137.54 106.971L135.562 106.956L133.586 106.941L131.615 106.926L129.648 106.911L127.683 106.897L125.723 106.881L123.766 106.867L121.813 106.852L119.863 106.837L117.916 106.823L115.974 106.808L114.035 106.794L112.1 106.779L110.168 106.764L108.24 106.75L106.315 106.735L104.395 106.72L102.477 106.707L100.564 106.692L98.6534 106.677L96.7474 106.663L94.8444 106.649L92.9458 106.634L91.05 106.62L89.1587 106.606L87.2703 106.592L85.3863 106.577L83.5052 106.563L81.6278 106.549L79.7549 106.535L77.8847 106.521L76.0191 106.507L74.1562 106.493L72.2979 106.478L70.4424 106.464L68.5914 106.451L66.7432 106.437L64.8995 106.423L63.0587 106.409L61.2223 106.395L59.3895 106.381L57.5604 106.368L55.7342 106.354L53.9124 106.34L52.0943 106.326L50.2798 106.312L48.4698 106.299L46.6626 106.285L44.8591 106.272L43.0593 106.258L41.2639 106.244L39.4713 106.231L37.6833 106.218L35.8988 106.204L34.118 106.191L32.3409 106.177L30.5674 106.164L28.7975 106.151L27.0314 106.137L25.2697 106.124L23.5108 106.11L21.7564 106.097L20.0056 106.084L18.2585 106.071L16.515 106.058L14.7752 106.045L13.0398 106.031L11.3073 106.019L9.57916 106.006L7.85474 105.993L6.13397 105.979L4.41684 105.967L2.70413 105.954L0.994324 105.941L-0.71109 105.928L-2.41281 105.915L-4.11093 105.903L-5.8046 105.889L-7.49539 105.877L-9.18176 105.864L-10.8645 105.851L-12.5435 105.839L-14.2182 105.826L-15.89 105.813L-17.5573 105.801L-19.221 105.788L-20.8803 105.776L-22.5367 105.764L-24.1886 105.751L-25.8369 105.739L-27.4816 105.726L-29.1219 105.714L-30.7585 105.701L-32.3914 105.689L-34.0207 105.677L-35.6456 105.664L-37.2668 105.652L-38.8844 105.64L-40.4983 105.628L-42.1078 105.616L-43.7137 105.603L-45.3152 105.592L-46.9137 105.579L-48.5079 105.568L-50.0984 105.555L-51.6844 105.543L-53.2669 105.532L-54.8457 105.519L-56.4208 105.508L-57.9915 105.496L-59.5586 105.484L-61.1213 105.472L-62.6803 105.461L-64.2357 105.449L-65.7874 105.437L-67.3347 105.426L-68.8783 105.414L-70.4176 105.402L-71.9532 105.391L-73.4851 105.379L-75.0127 105.368L-76.5366 105.356L-78.0568 105.344L-79.5726 105.333L-81.0848 105.322L-82.5926 105.31L-84.0967 105.299L-85.5972 105.287L-87.0932 105.276L-88.5856 105.265L-90.0737 105.254L-91.558 105.243L-93.0387 105.232L-94.515 105.22L-95.9877 105.209L-97.456 105.198L-98.9206 105.187L-100.381 105.176L-101.838 105.165L-103.29 105.154L-104.739 105.143L-106.184 105.132L-107.624 105.121L-109.061 105.11L-110.493 105.1L-111.922 105.089L-113.346 105.078L-114.767 105.068L-116.184 105.057L-117.597 105.046L-119.005 105.036L-120.409 105.025L-121.81 105.015L-123.206 105.004L-124.599 104.993L-125.987 104.983L-127.372 104.973L-128.752 104.962L-130.128 104.952L-131.5 104.941L-132.868 104.931L-134.233 104.921L-135.593 104.911L-136.949 104.9L-138.301 104.89L-139.649 104.88L-140.993 104.87L-142.332 104.859L-143.668 104.85L-144.999 104.84L-146.327 104.829L-147.651 104.82L-148.97 104.81L-150.286 104.8L-151.597 104.79L-152.904 104.78L-154.207 104.77L-155.506 104.761L-156.801 104.751L-158.092 104.741L-159.378 104.731L-160.661 104.721L-161.939 104.712L-163.214 104.702L-164.484 104.693L-165.75 104.683L-167.012 104.674L-168.27 104.664L-169.524 104.655L-170.773 104.645L-172.018 104.636L-173.259 104.626L-174.497 104.617L-175.73 104.608L-176.959 104.598L-178.183 104.59L-179.404 104.58L-180.621 104.571L-181.833 104.562L-183.041 104.553L-184.245 104.544L-185.445 104.535L-186.64 104.526L-187.832 104.516L-189.019 104.508L-190.202 104.499L-191.381 104.49L-192.555 104.481L-193.726 104.472L-194.893 104.463L-196.054 104.454L-197.212 104.445L-198.366 104.437L-199.515 104.429L-200.661 104.42L-201.802 104.411L-202.939 104.402L-204.072 104.394L-205.2 104.385L-206.325 104.377L-207.444 104.369L-208.561 104.36L-209.672 104.352L-210.779 104.344L-211.882 104.335L-212.982 104.327L-214.076 104.319L-215.166 104.31L-216.253 104.302L-217.334 104.294L-218.412 104.286L-219.486 104.278L-220.555 104.27L-221.62 104.262L-222.68 104.254L-223.737 104.246L-224.788 104.238L-225.836 104.23L-226.88 104.222L-227.92 104.214L-228.955 104.206L-229.985 104.199L-231.011 104.191L-232.034 104.183L-233.051 104.176L-234.065 104.168L-235.074 104.16L-236.079 104.153L-237.08 104.145L-238.076 104.138L-239.068 104.13L-240.056 104.123L-241.039 104.116L-242.018 104.108L-242.993 104.1L-243.964 104.093L-244.93 104.086L-245.891 104.079L-246.849 104.072L-247.802 104.064L-248.75 104.057L-249.695 104.05L-250.635 104.043L-251.571 104.036L-252.502 104.029L-253.429 104.022L-254.352 104.015L-255.27 104.008L-256.184 104.001L-257.094 103.994L-257.998 103.988L-258.899 103.98L-259.796 103.974L-260.688 103.967L-261.576 103.961L-262.459 103.954L-263.338 103.947L-264.213 103.941L-265.083 103.934L-265.949 103.928L-266.81 103.921L-267.667 103.914L-268.519 103.908L-269.368 103.901L-270.211 103.895L-271.051 103.889L-271.885 103.883L-272.716 103.876L-273.543 103.87L-274.364 103.864L-275.181 103.858L-275.994 103.852L-276.802 103.846L-277.606 103.84L-278.406 103.833L-279.201 103.827L-279.991 103.822L-280.777 103.816L-281.559 103.81L-282.336 103.804L-283.109 103.798L-283.878 103.792L-284.641 103.786L-285.401 103.781L-286.156 103.775L-286.906 103.77L-287.652 103.764L-288.394 103.758L-289.131 103.753L-289.863 103.747L-290.592 103.742L-291.315 103.736L-292.034 103.731L-292.749 103.725L-293.459 103.72L-294.165 103.715L-294.866 103.71L-295.562 103.704L-296.254 103.699L-296.942 103.694L-297.625 103.688L-298.304 103.683L-298.978 103.678L-299.647 103.673L-300.312 103.668L-300.972 103.664L-301.628 103.658L-302.28 103.653L-302.927 103.648L-303.569 103.644L-304.207 103.639L-304.84 103.634L-305.469 103.629L-306.093 103.625L-306.712 103.62L-307.327 103.615L-307.938 103.611L-308.544 103.606L-309.145 103.601L-309.742 103.597L-310.334 103.593L-310.921 103.588L-311.504 103.584L-312.083 103.579L-312.657 103.575L-313.226 103.571L-313.79 103.566L-314.351 103.563L-314.906 103.558L-315.457 103.554L-316.003 103.55L-316.545 103.546L-317.082 103.541L-317.614 103.538L-318.142 103.534L-318.665 103.53L-319.184 103.526L-319.698 103.522L-320.207 103.518L-320.712 103.514L-321.212 103.511L-321.708 103.507L-322.198 103.503L-322.685 103.5L-323.166 103.496L-323.643 103.492L-324.115 103.489L-324.583 103.485L-325.046 103.481L-325.504 103.478L-325.958 103.475L-326.407 103.471L-326.851 103.468L-327.29 103.465L-327.725 103.462L-328.156 103.458L-328.581 103.455L-329.002 103.452L-329.418 103.448L-329.83 103.446L-330.237 103.443L-330.639 103.44L-331.036 103.437L-331.429 103.434L-331.817 103.431L-332.201 103.428L-332.579 103.425L-332.953 103.422L-333.322 103.419L-333.687 103.416L-334.047 103.414L-334.402 103.411L-334.752 103.408L-335.098 103.406L-335.439 103.403L-335.775 103.401L-336.106 103.398L-336.433 103.396L-336.755 103.394L-337.072 103.391L-337.384 103.388L-337.692 103.386L-337.995 103.384L-338.293 103.382L-338.587 103.38L-338.875 103.378L-339.159 103.375L-339.438 103.373L-339.713 103.371L-339.982 103.369L-340.247 103.367L-340.507 103.365L-340.762 103.363L-341.013 103.361L-341.258 103.359L-341.499 103.358L-341.735 103.356L-341.967 103.354L-342.193 103.353L-342.415 103.35L-342.632 103.349L-342.844 103.348L-343.051 103.346L-343.253 103.345L-343.451 103.343L-343.644 103.342L-343.832 103.34L-344.015 103.339L-344.193 103.337L-344.366 103.336L-344.535 103.334L-344.699 103.334L-344.858 103.332L-345.012 103.331L-345.161 103.33L-345.306 103.328L-345.445 103.328L-345.58 103.327L-345.71 103.326L-345.835 103.325L-345.955 103.324L-346.07 103.323L-346.18 103.322L-346.286 103.321L-346.386 103.32L-346.482 103.32L-346.573 103.319H-346.659L-346.74 103.318L-346.816 103.318L-346.888 103.317L-346.954 103.316H-347.016L-347.072 103.315H-347.124L-347.171 103.315H-347.213L-347.249 103.314H-347.281H-347.309H-347.331L-347.348 103.313H-347.36H-347.368ZM-347.376 300.084C-347.847 299.524 -347.846 299.523 -347.844 299.522L-347.836 299.515L-347.806 299.49L-347.799 299.483L-347.734 299.43L-347.686 299.389L-347.596 299.315L-347.494 299.231C-347.413 299.164 -347.318 299.087 -347.209 298.997C-346.788 298.652 -346.157 298.141 -345.319 297.474C-343.644 296.141 -341.142 294.189 -337.829 291.704C-331.203 286.735 -321.332 279.639 -308.345 271.127C-282.369 254.102 -243.926 231.407 -194.035 208.713C-94.2523 163.326 51.3228 117.943 234.512 117.943V119.406C51.5688 119.406 -93.7999 164.727 -193.428 210.045C-243.243 232.704 -281.621 255.361 -307.542 272.35C-320.502 280.845 -330.348 287.922 -336.951 292.874C-340.252 295.349 -342.743 297.294 -344.407 298.618C-345.24 299.281 -345.865 299.788 -346.282 300.129C-346.49 300.3 -346.647 300.429 -346.75 300.515C-346.792 300.55 -346.825 300.577 -346.85 300.598L-346.867 300.612L-346.896 300.636L-346.903 300.642C-346.903 300.642 -346.904 300.642 -346.939 300.602C-346.987 300.544 -347.102 300.408 -347.376 300.084ZM-347.689 217.496C-347.691 217.496 -347.692 217.497 -347.376 218.157C-347.06 218.817 -347.059 218.817 -347.058 218.816L-347.051 218.812L-347.022 218.799L-346.906 218.744C-346.802 218.695 -346.645 218.621 -346.437 218.524C-346.266 218.444 -346.059 218.349 -345.818 218.238C-345.67 218.17 -345.51 218.096 -345.336 218.017C-345.102 217.91 -344.843 217.793 -344.561 217.665C-342.897 216.912 -340.405 215.806 -337.103 214.398C-330.498 211.582 -320.65 207.558 -307.687 202.727C-281.762 193.065 -243.374 180.181 -193.548 167.295C-93.8951 141.524 51.5146 115.748 234.512 115.748V114.285C51.377 114.285 -94.1571 140.08 -193.915 165.879C-243.794 178.778 -282.229 191.678 -308.199 201.356C-321.184 206.195 -331.052 210.228 -337.677 213.053C-340.989 214.464 -343.491 215.575 -345.165 216.333C-346.002 216.711 -346.633 217.002 -347.055 217.198C-347.173 217.253 -347.275 217.301 -347.361 217.341C-347.428 217.372 -347.484 217.399 -347.53 217.421L-347.65 217.477L-347.681 217.492L-347.689 217.496ZM-347.376 152.323C-347.512 151.605 -347.511 151.604 -347.51 151.604L-347.502 151.602L-347.472 151.597L-347.353 151.575C-347.247 151.555 -347.089 151.525 -346.879 151.486C-346.458 151.409 -345.829 151.293 -344.993 151.143C-343.321 150.842 -340.822 150.402 -337.512 149.842C-330.893 148.721 -321.029 147.12 -308.05 145.199C-282.092 141.357 -243.67 136.235 -193.806 131.113C-94.0781 120.87 51.4187 110.628 234.512 110.628V112.091C51.4729 112.091 -93.9734 122.33 -193.656 132.569C-243.498 137.688 -281.898 142.807 -307.836 146.646C-320.805 148.565 -330.658 150.165 -337.268 151.284C-340.573 151.844 -343.067 152.283 -344.734 152.583C-345.237 152.673 -345.665 152.751 -346.018 152.815C-346.249 152.858 -346.447 152.894 -346.613 152.925C-346.822 152.964 -346.979 152.993 -347.083 153.012L-347.201 153.035L-347.23 153.04L-347.237 153.041C-347.238 153.041 -347.239 153.042 -347.376 152.323Z" fill="url(#paint0_linear_5231_20972)"/>
<defs>
<linearGradient id="paint0_linear_5231_20972" x1="225.73" y1="10.4031" x2="-336.704" y2="10.4031" gradientUnits="userSpaceOnUse">
<stop offset="0.127609" stop-color="#DD1D63"/>
<stop offset="0.563305" stop-color="#DD1D63"/>
<stop offset="0.943305" stop-color="#FD28A8" stop-opacity="0"/>
</linearGradient>
</defs>
</svg>
