<svg width="111" height="111" viewBox="0 0 111 111" fill="none" xmlns="http://www.w3.org/2000/svg">
<g filter="url(#filter0_bd_5231_20973)">
<circle cx="55.5" cy="51.5" r="51.5" fill="url(#paint0_linear_5231_20973)" fill-opacity="0.36" shape-rendering="crispEdges"/>
<circle cx="55.5" cy="51.5" r="51" stroke="url(#paint1_linear_5231_20973)" shape-rendering="crispEdges"/>
</g>
<g opacity="0.7">
<path d="M55.9997 78.6668C70.7273 78.6668 82.6663 66.7278 82.6663 52.0002C82.6663 37.2726 70.7273 25.3335 55.9997 25.3335C41.2721 25.3335 29.333 37.2726 29.333 52.0002C29.333 66.7278 41.2721 78.6668 55.9997 78.6668Z" stroke="#FEFEFE" stroke-width="2.5" stroke-miterlimit="10" stroke-linecap="round" stroke-linejoin="round"/>
<path d="M55.9986 44.3203C58.4253 44.3203 60.3986 46.2937 60.3986 48.7204V55.307C60.3986 57.7336 58.4253 59.707 55.9986 59.707C53.5719 59.707 51.5986 57.7336 51.5986 55.307" stroke="#FEFEFE" stroke-width="2.5" stroke-linecap="round"/>
<path d="M69.2803 55.9201C68.747 62.8001 62.987 68.1869 56.0003 68.1869C48.6403 68.1869 42.667 62.2135 42.667 54.8535V49.1468C42.667 41.7868 48.6403 35.8135 56.0003 35.8135C62.907 35.8135 68.587 41.0668 69.2537 47.7868" stroke="#FEFEFE" stroke-width="2.5" stroke-linecap="round"/>
</g>
<defs>
<filter id="filter0_bd_5231_20973" x="-18.4" y="-22.4" width="147.8" height="147.8" filterUnits="userSpaceOnUse" color-interpolation-filters="sRGB">
<feFlood flood-opacity="0" result="BackgroundImageFix"/>
<feGaussianBlur in="BackgroundImageFix" stdDeviation="11.2"/>
<feComposite in2="SourceAlpha" operator="in" result="effect1_backgroundBlur_5231_20973"/>
<feColorMatrix in="SourceAlpha" type="matrix" values="0 0 0 0 0 0 0 0 0 0 0 0 0 0 0 0 0 0 127 0" result="hardAlpha"/>
<feOffset dy="4"/>
<feGaussianBlur stdDeviation="2"/>
<feComposite in2="hardAlpha" operator="out"/>
<feColorMatrix type="matrix" values="0 0 0 0 0 0 0 0 0 0 0 0 0 0 0 0 0 0 0.69 0"/>
<feBlend mode="normal" in2="effect1_backgroundBlur_5231_20973" result="effect2_dropShadow_5231_20973"/>
<feBlend mode="normal" in="SourceGraphic" in2="effect2_dropShadow_5231_20973" result="shape"/>
</filter>
<linearGradient id="paint0_linear_5231_20973" x1="-0.500001" y1="13" x2="101" y2="103" gradientUnits="userSpaceOnUse">
<stop stop-color="#787878"/>
<stop offset="1" stop-color="#717171" stop-opacity="0.18"/>
</linearGradient>
<linearGradient id="paint1_linear_5231_20973" x1="8" y1="19" x2="85.5" y2="91" gradientUnits="userSpaceOnUse">
<stop stop-color="white"/>
<stop offset="0.15" stop-opacity="0"/>
<stop offset="0.215" stop-color="#9C9898"/>
<stop offset="0.805" stop-opacity="0"/>
<stop offset="0.980547" stop-color="#575555" stop-opacity="0.61"/>
</linearGradient>
</defs>
</svg>
