<svg width="20" height="21" viewBox="0 0 20 21" fill="none" xmlns="http://www.w3.org/2000/svg">
<path d="M15.4491 13.3924C15.3371 13.5043 15.1839 13.575 15.0072 13.575C14.6654 13.5751 14.3825 13.2922 14.3825 12.9504L14.3825 6.42149L7.85359 6.42149C7.51183 6.42149 7.22898 6.13864 7.22898 5.79688C7.22898 5.45511 7.51183 5.17226 7.85359 5.17226L15.0072 5.17226C15.3489 5.17226 15.6318 5.45511 15.6318 5.79687L15.6318 12.9504C15.6318 13.1272 15.5611 13.2804 15.4491 13.3924Z" fill="#292D32"/>
<path d="M15.3485 6.33922L5.43129 16.2564C5.1897 16.498 4.78901 16.498 4.54741 16.2564C4.30582 16.0148 4.30582 15.6141 4.54741 15.3725L14.4646 5.45534C14.7062 5.21375 15.1069 5.21375 15.3485 5.45534C15.5901 5.69693 15.5901 6.09763 15.3485 6.33922Z" fill="#292D32"/>
</svg>
