<?xml version="1.0" standalone="no"?>
<!DOCTYPE svg PUBLIC "-//W3C//DTD SVG 20010904//EN"
 "http://www.w3.org/TR/2001/REC-SVG-20010904/DTD/svg10.dtd">
<svg version="1.0" xmlns="http://www.w3.org/2000/svg"
 width="5760.000000pt" height="904.000000pt" viewBox="0 0 5760.000000 904.000000"
 preserveAspectRatio="xMidYMid meet">

<g transform="translate(0.000000,904.000000) scale(0.100000,-0.100000)"
fill="#000000" stroke="none">
<path d="M29777 6204 c-8 -8 -292 -13 -1027 -19 -623 -4 -940 -9 -1310 -20
-96 -2 -265 -7 -375 -10 -383 -10 -455 -14 -465 -20 -5 -3 -10 0 -10 7 0 8 -3
9 -8 3 -4 -6 -87 -11 -202 -13 -107 -1 -229 -4 -270 -5 -41 -2 -81 1 -87 6 -8
6 -13 6 -13 0 0 -6 -30 -11 -67 -12 -38 -1 -76 -4 -87 -7 -10 -3 -16 -2 -13 2
3 5 -16 8 -41 7 -26 -2 -121 -4 -213 -6 -91 -2 -169 -5 -175 -8 -5 -3 -27 -4
-49 -2 -49 3 -48 3 -215 -1 -74 -2 -171 -4 -215 -4 -44 0 -84 -1 -90 -1 -5 0
-120 -3 -255 -6 -135 -3 -342 -8 -460 -11 -118 -4 -267 -7 -330 -8 -63 0 -118
-5 -122 -11 -5 -6 -8 -6 -8 1 0 10 -98 10 -142 0 -10 -2 -18 1 -18 7 0 8 -3 8
-8 2 -4 -5 -59 -11 -122 -12 -63 -1 -189 -5 -280 -8 -91 -3 -211 -7 -267 -8
-57 -1 -103 -4 -103 -7 0 -3 -66 -5 -148 -5 -81 0 -151 -2 -157 -5 -5 -2 -71
-5 -145 -6 -74 -1 -198 -5 -275 -9 -77 -4 -207 -9 -290 -11 -320 -9 -423 -14
-725 -30 -36 -2 -123 -6 -195 -9 -71 -3 -177 -8 -235 -10 -150 -8 -301 -14
-490 -20 -91 -3 -201 -7 -245 -10 -44 -2 -136 -7 -203 -9 -68 -2 -126 -7 -129
-9 -2 -3 -18 -1 -34 3 -16 5 -31 5 -34 0 -2 -4 -24 -7 -48 -7 -24 0 -48 -3
-54 -6 -6 -4 -13 -1 -16 5 -3 10 -7 10 -20 -1 -12 -9 -17 -10 -17 -2 0 7 -4
10 -8 7 -10 -6 -115 -16 -237 -22 -49 -3 -115 -7 -145 -9 -193 -13 -282 -18
-420 -21 -85 -1 -184 -5 -220 -8 -36 -3 -105 -7 -155 -10 -49 -3 -133 -8 -185
-12 -52 -3 -117 -7 -145 -8 -27 0 -55 -4 -62 -9 -6 -4 -14 -3 -18 3 -4 6 -11
8 -16 4 -11 -6 -57 -10 -229 -19 -58 -4 -150 -9 -205 -12 -55 -3 -134 -6 -176
-7 -43 0 -75 -4 -73 -8 2 -4 -13 -6 -33 -6 -48 1 -282 -12 -518 -28 -55 -3
-118 -7 -140 -8 -22 -1 -46 -6 -54 -10 -10 -7 -12 -6 -6 4 6 9 4 11 -6 4 -8
-4 -43 -9 -79 -10 -36 0 -110 -4 -165 -8 -55 -3 -136 -8 -180 -11 -122 -6
-239 -17 -247 -22 -5 -2 -8 1 -8 6 0 6 -5 11 -11 11 -5 0 -8 -3 -6 -7 3 -5
-16 -9 -41 -9 -63 -2 -154 -11 -172 -18 -14 -6 -54 -8 -320 -21 -73 -4 -117
-10 -122 -18 -6 -9 -8 -9 -8 0 0 7 -11 10 -27 9 -16 -2 -28 -4 -28 -5 0 -1
-43 -3 -95 -6 -52 -2 -129 -7 -170 -10 -41 -4 -111 -8 -155 -11 -44 -2 -93 -7
-110 -10 -16 -2 -59 -7 -95 -9 -36 -3 -65 -5 -65 -6 0 -3 -51 -6 -170 -13 -60
-3 -130 -8 -155 -10 -25 -2 -96 -7 -159 -11 -63 -3 -119 -9 -125 -12 -11 -7
-50 -11 -181 -17 -49 -3 -126 -8 -170 -12 -44 -3 -107 -7 -140 -9 -33 -2 -60
-4 -60 -5 0 -3 -54 -10 -110 -15 -156 -12 -255 -18 -297 -19 -25 -1 -44 -4
-42 -7 2 -3 -16 -5 -39 -5 -23 1 -46 0 -52 -3 -5 -3 -39 -6 -75 -8 -36 -1 -76
-4 -90 -7 -14 -2 -72 -7 -129 -10 -57 -4 -107 -9 -112 -11 -8 -6 -84 -13 -204
-20 -44 -3 -96 -7 -115 -11 -38 -7 -103 -13 -215 -19 -38 -2 -72 -5 -75 -6 -3
-1 -12 -3 -20 -3 -8 -1 -51 -5 -95 -10 -44 -4 -100 -10 -125 -12 -25 -3 -65
-7 -90 -9 -25 -2 -67 -6 -95 -10 -27 -4 -72 -9 -100 -10 -68 -4 -179 -14 -240
-21 -27 -3 -69 -6 -92 -7 -24 0 -43 -4 -43 -9 0 -4 -8 -7 -17 -6 -16 2 -124
-7 -208 -18 -16 -2 -64 -6 -106 -9 -42 -3 -87 -8 -100 -11 -13 -2 -51 -7 -84
-9 -33 -2 -78 -7 -100 -10 -22 -3 -56 -8 -75 -10 -19 -3 -57 -8 -85 -12 -27
-4 -71 -7 -97 -8 -25 0 -44 -3 -43 -6 2 -3 -13 -6 -33 -6 -63 1 -162 -8 -162
-13 0 -3 -17 -6 -38 -6 -35 0 -140 -11 -179 -18 -10 -2 -49 -7 -85 -10 -37 -4
-77 -9 -90 -11 -26 -5 -116 -15 -165 -18 -18 -1 -33 -4 -33 -7 0 -3 -10 -6
-22 -6 -90 -6 -118 -10 -118 -17 0 -4 -4 -6 -9 -3 -4 3 -46 0 -92 -6 -74 -9
-165 -17 -251 -21 -16 -1 -28 -4 -28 -8 0 -4 -8 -8 -18 -8 -28 0 -115 -9 -142
-14 -14 -3 -52 -8 -85 -11 -33 -3 -70 -8 -82 -10 -20 -4 -55 -8 -201 -21 -29
-2 -56 -6 -60 -9 -4 -2 -35 -8 -67 -11 -33 -4 -69 -9 -80 -12 -11 -3 -39 -6
-63 -8 -24 -2 -60 -7 -80 -10 -46 -7 -104 -14 -158 -19 -23 -2 -45 -6 -50 -9
-5 -3 -45 -8 -89 -11 -44 -3 -93 -8 -110 -11 -16 -4 -42 -8 -57 -9 -14 -2 -50
-7 -80 -11 -29 -4 -69 -10 -88 -15 -30 -7 -86 -15 -180 -25 -14 -1 -32 -5 -40
-8 -8 -3 -42 -8 -75 -12 -120 -12 -131 -13 -164 -19 -19 -4 -38 -9 -43 -12 -4
-3 -8 1 -8 8 0 9 -2 10 -8 2 -4 -7 -38 -15 -76 -18 -38 -4 -73 -9 -77 -12 -4
-2 -24 -6 -45 -9 -22 -2 -64 -7 -94 -11 -30 -4 -63 -7 -72 -8 -10 0 -18 -4
-18 -8 0 -4 -10 -8 -23 -7 -33 0 -110 -8 -127 -14 -19 -7 -236 -38 -273 -39
-15 -1 -30 -5 -33 -10 -3 -4 -9 -6 -14 -3 -5 3 -30 0 -57 -6 -26 -6 -59 -13
-73 -14 -14 -1 -32 -5 -40 -8 -8 -3 -40 -8 -70 -11 -114 -11 -155 -19 -169
-30 -12 -9 -13 -8 -7 2 6 10 4 11 -10 4 -17 -9 -89 -24 -179 -36 -16 -3 -39
-7 -50 -9 -27 -6 -89 -16 -150 -23 -27 -3 -62 -12 -78 -19 -16 -8 -25 -9 -21
-3 5 8 1 9 -12 4 -10 -4 -41 -12 -69 -17 -27 -5 -61 -12 -75 -15 -14 -3 -41
-8 -60 -10 -42 -6 -207 -34 -235 -39 -34 -7 -138 -25 -182 -31 -24 -4 -43 -10
-43 -13 0 -4 -12 -6 -27 -6 -16 1 -36 -2 -45 -7 -9 -4 -34 -10 -55 -13 -79
-12 -99 -15 -123 -21 -45 -10 -55 -12 -55 -15 0 -2 -48 -8 -97 -11 -20 -2 -34
-6 -32 -10 3 -5 -10 -9 -28 -10 -32 -1 -47 -3 -58 -8 -3 -1 -17 -3 -31 -4 -14
-2 -31 -6 -38 -11 -7 -4 -30 -9 -50 -11 -20 -3 -52 -9 -71 -14 -19 -5 -53 -12
-75 -16 -22 -4 -47 -8 -55 -10 -28 -5 -155 -36 -205 -49 -27 -7 -66 -16 -85
-19 -19 -3 -46 -9 -60 -12 -14 -3 -32 -7 -40 -8 -8 -1 -23 -6 -33 -10 -10 -5
-21 -6 -24 -2 -3 3 -12 1 -19 -4 -6 -6 -16 -10 -20 -8 -17 4 -94 -12 -94 -21
0 -4 -11 -7 -25 -6 -14 2 -25 -1 -25 -6 0 -5 -3 -8 -8 -8 -4 1 -9 0 -12 -1
-14 -5 -48 -11 -70 -11 -14 -1 -30 -5 -36 -10 -6 -5 -34 -11 -61 -12 -27 -2
-56 -7 -63 -12 -8 -5 -29 -10 -46 -11 -17 0 -37 -5 -45 -10 -8 -4 -18 -9 -24
-10 -5 -1 -53 -14 -105 -29 -52 -15 -105 -27 -117 -28 -13 -1 -23 -4 -23 -8 0
-4 -24 -12 -52 -17 -29 -6 -62 -13 -73 -16 -11 -3 -40 -10 -65 -17 -25 -6 -49
-12 -55 -14 -5 -1 -25 -6 -43 -10 -18 -4 -35 -12 -38 -16 -3 -5 -10 -7 -15 -4
-5 4 -15 3 -21 -2 -15 -9 -33 -13 -69 -18 -14 -1 -35 -8 -46 -13 -39 -21 -155
-58 -208 -67 -11 -2 -21 -4 -22 -5 -2 -2 -6 -3 -10 -4 -5 -1 -14 -5 -20 -9 -7
-5 -17 -5 -23 -2 -5 3 -10 1 -10 -4 0 -6 -7 -11 -15 -11 -8 0 -39 -11 -70 -25
-30 -13 -57 -23 -58 -22 -4 3 -151 -57 -157 -64 -6 -8 -43 -20 -51 -16 -3 1
-12 -3 -20 -10 -13 -10 -91 -36 -114 -38 -6 0 -28 -10 -48 -23 -21 -12 -42
-22 -46 -22 -5 0 -14 -7 -21 -15 -7 -8 -16 -13 -20 -10 -5 3 -10 1 -12 -3 -5
-14 -100 -62 -109 -56 -5 3 -9 0 -9 -5 0 -6 -6 -11 -14 -11 -7 0 -19 -7 -26
-15 -6 -8 -15 -14 -18 -14 -15 2 -52 -14 -52 -22 0 -5 -7 -9 -15 -9 -8 0 -24
-9 -34 -19 -11 -11 -29 -24 -40 -31 l-21 -11 0 -1174 c0 -1038 2 -1175 15
-1175 8 0 23 -8 33 -17 10 -10 38 -29 62 -42 25 -13 52 -30 61 -37 8 -8 24
-14 34 -14 10 0 16 -3 12 -6 -8 -8 105 -64 115 -58 5 3 8 2 8 -3 0 -8 54 -36
66 -33 4 1 10 -4 15 -12 5 -7 12 -13 16 -14 37 -5 73 -18 73 -26 0 -6 7 -8 15
-5 8 4 17 2 21 -4 3 -6 12 -8 19 -5 7 2 16 -2 19 -10 3 -8 9 -13 13 -12 12 3
85 -23 111 -40 12 -8 22 -10 22 -6 0 5 4 4 8 -3 4 -7 23 -15 41 -18 18 -3 45
-12 60 -19 14 -8 42 -17 61 -22 19 -4 37 -8 40 -9 3 -1 22 -9 44 -18 37 -16
76 -27 104 -29 6 -1 12 -5 12 -9 0 -6 22 -14 70 -24 3 -1 32 -9 65 -20 33 -10
65 -19 70 -21 6 -1 21 -5 35 -8 14 -3 59 -17 100 -32 41 -14 87 -27 102 -29
15 -2 37 -9 48 -15 11 -6 25 -8 30 -5 5 3 11 1 15 -4 3 -6 13 -7 21 -4 9 3 20
0 24 -7 4 -7 19 -12 34 -12 14 0 26 -4 26 -9 0 -5 7 -6 15 -3 8 4 21 2 28 -4
6 -6 35 -13 62 -16 28 -3 66 -10 85 -15 124 -35 158 -43 185 -48 17 -2 39 -8
50 -13 21 -9 146 -40 264 -65 64 -13 3085 -15 27622 -15 l27549 0 0 2295 c0
2179 -1 2295 -17 2296 -37 2 -69 6 -98 13 -40 8 -64 13 -111 20 -22 4 -48 9
-58 12 -11 4 -38 8 -60 9 -86 6 -159 16 -169 22 -6 4 -28 6 -49 6 -21 0 -41 3
-44 8 -3 5 -28 9 -55 9 -34 0 -48 4 -43 11 4 7 -1 7 -16 -1 -14 -7 -20 -8 -16
-1 4 6 -2 9 -16 9 -21 -2 -91 6 -173 18 -16 2 -46 6 -65 8 -19 2 -48 7 -65 11
-16 4 -38 7 -47 7 -10 0 -18 2 -18 6 0 4 -12 7 -27 8 -16 0 -50 4 -78 8 -27 4
-63 9 -80 11 -16 1 -30 4 -30 4 0 1 -25 4 -55 6 -30 3 -62 8 -70 11 -8 4 -31
8 -50 8 -19 1 -39 4 -45 7 -5 3 -32 7 -59 8 -27 2 -58 5 -70 7 -11 3 -39 6
-61 9 -84 7 -149 17 -215 31 -28 6 -138 20 -220 29 -30 3 -68 8 -85 11 -16 3
-48 7 -70 9 -22 3 -56 6 -75 8 -19 3 -80 10 -135 16 -55 7 -109 13 -120 14
-11 1 -24 5 -30 8 -5 3 -39 6 -75 8 -36 2 -68 5 -72 7 -6 4 -40 9 -138 19 -25
3 -65 7 -90 11 -25 3 -59 7 -76 8 -17 2 -35 5 -40 8 -5 3 -29 6 -54 7 -25 0
-56 4 -70 7 -14 3 -44 7 -67 9 -23 1 -45 5 -50 7 -4 2 -23 3 -40 3 -18 0 -33
2 -33 5 0 3 -26 5 -58 5 -31 0 -62 3 -67 7 -6 4 -36 10 -66 13 -53 6 -81 8
-230 19 -36 2 -85 8 -110 11 -24 4 -53 8 -64 10 -11 1 -20 3 -20 4 0 1 -20 4
-45 6 -25 2 -67 7 -95 10 -27 3 -69 7 -93 10 -23 2 -57 7 -75 11 -17 3 -59 8
-93 9 -33 1 -65 4 -70 8 -8 4 -85 9 -157 8 -9 0 -16 3 -13 7 2 4 -17 7 -42 8
-26 0 -96 6 -157 13 -60 7 -142 14 -182 16 -72 4 -157 13 -203 20 -14 2 -45 7
-70 10 -25 3 -56 7 -70 10 -24 5 -98 11 -250 20 -30 2 -75 6 -100 10 -98 13
-121 15 -302 29 -31 2 -61 7 -67 10 -6 4 -44 8 -86 8 -41 1 -75 6 -75 10 0 5
-8 4 -19 -1 -10 -6 -20 -8 -23 -6 -6 6 -63 14 -143 20 -38 2 -95 7 -125 10
-30 3 -76 7 -103 9 -26 2 -50 6 -54 10 -10 10 -25 7 -18 -4 3 -5 -12 -3 -33 4
-22 8 -45 10 -52 6 -7 -5 -24 -4 -37 1 -13 5 -65 11 -116 15 -117 7 -171 11
-228 18 -114 13 -188 19 -231 20 -27 0 -48 4 -48 9 0 5 -7 4 -15 -3 -8 -7 -15
-9 -15 -4 0 5 -26 10 -58 11 -132 4 -182 8 -182 14 0 3 -16 5 -36 4 -19 0 -37
2 -39 5 -2 4 -21 5 -41 4 -20 -2 -45 1 -55 7 -12 6 -19 6 -19 0 0 -5 -10 -8
-22 -5 -30 5 -94 12 -198 19 -99 8 -156 13 -225 21 -27 3 -89 7 -136 8 -48 2
-91 6 -97 10 -6 3 -13 2 -17 -4 -4 -6 -12 -7 -18 -3 -7 4 -28 8 -47 9 -19 1
-80 5 -135 9 -55 4 -115 8 -132 8 -18 -1 -31 2 -29 6 2 3 -30 6 -72 7 -43 0
-104 4 -137 7 -33 4 -91 9 -130 12 -38 3 -97 7 -130 10 -60 5 -177 12 -335 20
-47 2 -130 8 -185 13 -55 6 -103 8 -107 5 -5 -2 -8 2 -8 9 0 9 -2 10 -8 2 -4
-7 -20 -10 -37 -8 -16 2 -57 6 -90 10 -33 3 -63 8 -67 11 -5 2 -8 -1 -8 -7 0
-6 -4 -9 -8 -6 -8 5 -96 13 -215 21 -101 7 -269 17 -314 19 -23 1 -45 5 -49 9
-4 3 -14 2 -24 -3 -10 -5 -20 -6 -24 -3 -4 4 -35 8 -69 9 -181 7 -294 14 -481
29 -32 3 -120 7 -195 10 -75 4 -149 8 -166 10 -30 3 -267 18 -317 19 -16 1
-28 3 -28 6 0 3 -31 4 -70 4 -44 -1 -67 2 -64 8 4 7 0 7 -12 0 -11 -5 -30 -8
-44 -6 -42 5 -160 14 -255 19 -49 2 -117 7 -150 10 -33 4 -132 8 -220 10 -249
6 -449 16 -455 23 -3 4 -54 8 -115 9 -60 1 -139 5 -175 7 -62 5 -150 9 -475
22 -166 7 -240 11 -240 14 0 1 -79 3 -175 5 -96 3 -222 7 -280 10 -58 3 -140
7 -182 8 -43 1 -78 4 -78 7 0 3 -69 6 -153 6 -174 2 -333 11 -347 19 -6 3 -10
1 -10 -5 0 -6 -5 -8 -12 -4 -16 10 -42 12 -240 15 -93 2 -168 7 -168 12 0 4
-7 4 -16 -1 -10 -5 -32 -6 -53 -1 -24 5 -38 4 -43 -4 -4 -7 -8 -7 -8 -2 0 6
-34 11 -78 12 -42 2 -142 5 -222 8 -80 2 -217 7 -305 10 -209 6 -346 13 -352
18 -2 3 -19 1 -38 -3 -19 -4 -33 -4 -30 0 2 4 -55 8 -128 9 -73 1 -179 4 -237
6 -181 8 -718 22 -1140 30 -146 2 -265 5 -265 6 0 1 -85 3 -190 5 -104 2 -275
6 -380 9 -104 3 -256 7 -337 9 -81 2 -151 7 -157 11 -6 3 -11 3 -11 -2 0 -4
-35 -7 -78 -6 -42 1 -198 4 -347 7 -148 3 -315 9 -370 12 -55 3 -107 5 -115 5
-96 -1 -199 1 -260 5 -41 2 -150 6 -243 8 -92 1 -170 6 -173 9 -4 3 -15 2 -25
-4 -11 -5 -19 -6 -19 -2 0 4 -98 9 -217 10 -120 0 -330 4 -468 7 -137 4 -509
9 -825 11 -316 2 -575 5 -575 6 0 0 -43 3 -95 5 -52 2 -101 6 -107 9 -7 2 -13
-1 -13 -7 0 -6 -6 -5 -17 3 -9 8 -14 10 -11 4 4 -7 -48 -9 -150 -8 -87 2 -159
3 -162 4 -3 1 -9 0 -15 -1 -5 -1 -68 -1 -140 -1 -71 1 -139 1 -150 1 -136 -1
-442 -1 -450 0 -5 1 -12 2 -15 1 -3 -1 -107 -3 -233 -4 -146 -1 -227 2 -227 8
0 6 -3 6 -8 -1 -8 -12 -151 -12 -170 0 -7 4 -12 4 -12 -1 0 -8 -189 -7 -223 1
-9 2 -15 1 -12 -3 2 -4 -32 -7 -75 -7 -44 1 -80 5 -80 9 0 5 -6 5 -12 0 -15
-8 -374 -7 -389 2 -5 4 -9 1 -9 -6 0 -8 -5 -7 -17 2 -9 8 -14 10 -11 4 4 -7
-48 -9 -150 -8 -87 2 -159 3 -162 4 -3 1 -9 0 -15 -1 -5 -1 -68 -1 -140 -1
-71 1 -139 1 -150 1 -225 -2 -446 -1 -453 4 -5 3 -12 3 -15 0z"/>
</g>
</svg>
