<svg width="25" height="24" viewBox="0 0 25 24" fill="none" xmlns="http://www.w3.org/2000/svg">
<path d="M15.5029 2.00293C17.712 2.00293 19.5029 3.79379 19.5029 6.00293C19.5029 6.73196 19.3079 7.41544 18.9672 8.00404L23.5029 8.00293V10.0029H21.5029V20.0029C21.5029 20.5552 21.0552 21.0029 20.5029 21.0029H4.50293C3.95065 21.0029 3.50293 20.5552 3.50293 20.0029V10.0029H1.50293V8.00293L6.0387 8.00404C5.69797 7.41544 5.50293 6.73196 5.50293 6.00293C5.50293 3.79379 7.29379 2.00293 9.50293 2.00293C10.6981 2.00293 11.771 2.52714 12.5038 3.35819C13.235 2.52714 14.3077 2.00293 15.5029 2.00293ZM13.5029 10.0029H11.5029V20.0029H13.5029V10.0029ZM9.50293 4.00293C8.39836 4.00293 7.50293 4.89836 7.50293 6.00293C7.50293 7.05729 8.31881 7.92109 9.35367 7.99744L9.50293 8.00293H11.5029V6.00293C11.5029 5.00128 10.7667 4.17162 9.80571 4.0257L9.6522 4.00841L9.50293 4.00293ZM15.5029 4.00293C14.4485 4.00293 13.5847 4.81881 13.5084 5.85367L13.5029 6.00293V8.00293H15.5029C16.5573 8.00293 17.421 7.18705 17.4974 6.15219L17.5029 6.00293C17.5029 4.89836 16.6075 4.00293 15.5029 4.00293Z" fill="url(#paint0_linear_5231_21978)"/>
<defs>
<linearGradient id="paint0_linear_5231_21978" x1="1.89861" y1="1.01335" x2="27.4966" y2="7.6713" gradientUnits="userSpaceOnUse">
<stop stop-color="#FE756C"/>
<stop offset="1" stop-color="#DD1D63"/>
</linearGradient>
</defs>
</svg>
