<svg width="193" height="229" viewBox="0 0 193 229" fill="none" xmlns="http://www.w3.org/2000/svg">
<g filter="url(#filter0_b_5231_22060)">
<g clip-path="url(#clip0_5231_22060)">
<rect width="192.762" height="229" rx="15.352" fill="url(#paint0_linear_5231_22060)" fill-opacity="0.77"/>
<g filter="url(#filter1_f_5231_22060)">
<g filter="url(#filter2_dd_5231_22060)">
<mask id="mask0_5231_22060" style="mask-type:alpha" maskUnits="userSpaceOnUse" x="8" y="184" width="184" height="184">
<circle cx="100.433" cy="275.696" r="91.2975" fill="#D60C4C" stroke="black" stroke-width="0.349074"/>
</mask>
<g mask="url(#mask0_5231_22060)">
</g>
<mask id="mask1_5231_22060" style="mask-type:alpha" maskUnits="userSpaceOnUse" x="8" y="184" width="184" height="184">
<circle cx="100.433" cy="275.696" r="91.2975" fill="#D60C4C" stroke="black" stroke-width="0.349074"/>
</mask>
<g mask="url(#mask1_5231_22060)">
<ellipse cx="79.4628" cy="284.011" rx="184.752" ry="124.373" fill="#FFCACA"/>
<g filter="url(#filter3_f_5231_22060)">
<ellipse cx="14.7411" cy="286.903" rx="119.311" ry="80.264" fill="#FF1E1E"/>
</g>
<g filter="url(#filter4_f_5231_22060)">
<ellipse cx="117.429" cy="276.057" rx="119.311" ry="80.264" fill="#F200AE"/>
</g>
<g filter="url(#filter5_f_5231_22060)">
<ellipse cx="40.0497" cy="249.302" rx="119.311" ry="80.264" fill="#FF493D"/>
</g>
<g filter="url(#filter6_f_5231_22060)">
<path d="M191.982 276.057C191.982 327.645 150.803 369.411 100.073 369.411C49.3436 369.411 8.16476 327.645 8.16476 276.057C8.16476 224.468 49.3436 182.702 100.073 182.702C150.803 182.702 191.982 224.468 191.982 276.057Z" stroke="url(#paint1_linear_5231_22060)" stroke-width="4.18889"/>
</g>
<g filter="url(#filter7_f_5231_22060)">
<ellipse cx="-48.1612" cy="217.486" rx="119.311" ry="80.264" fill="#FF003D"/>
</g>
</g>
</g>
<g filter="url(#filter8_ddf_5231_22060)">
<mask id="mask2_5231_22060" style="mask-type:alpha" maskUnits="userSpaceOnUse" x="8" y="184" width="184" height="184">
<circle cx="100.433" cy="275.696" r="91.2975" fill="#D60C4C" stroke="black" stroke-width="0.349074"/>
</mask>
<g mask="url(#mask2_5231_22060)">
</g>
<mask id="mask3_5231_22060" style="mask-type:alpha" maskUnits="userSpaceOnUse" x="8" y="184" width="184" height="184">
<circle cx="100.433" cy="275.696" r="91.2975" fill="#D60C4C" stroke="black" stroke-width="0.349074"/>
</mask>
<g mask="url(#mask3_5231_22060)">
<ellipse cx="79.4628" cy="284.011" rx="184.752" ry="124.373" fill="#FFCACA"/>
<g filter="url(#filter9_f_5231_22060)">
<ellipse cx="14.7411" cy="286.903" rx="119.311" ry="80.264" fill="#FF1E1E"/>
</g>
<g filter="url(#filter10_f_5231_22060)">
<ellipse cx="117.429" cy="276.057" rx="119.311" ry="80.264" fill="#F20074"/>
</g>
<g filter="url(#filter11_f_5231_22060)">
<ellipse cx="40.0497" cy="249.302" rx="119.311" ry="80.264" fill="#FF3D83"/>
</g>
<g filter="url(#filter12_f_5231_22060)">
<path d="M191.982 276.057C191.982 327.645 150.803 369.411 100.073 369.411C49.3436 369.411 8.16476 327.645 8.16476 276.057C8.16476 224.468 49.3436 182.702 100.073 182.702C150.803 182.702 191.982 224.468 191.982 276.057Z" stroke="url(#paint2_linear_5231_22060)" stroke-width="4.18889"/>
</g>
<g filter="url(#filter13_f_5231_22060)">
<ellipse cx="-42.5315" cy="217.485" rx="125.054" ry="79.9581" fill="#FF003D"/>
</g>
</g>
</g>
</g>
<path d="M96.0547 25.5869L96.3407 30.1419C96.5157 32.9286 99.016 35.1635 102.073 35.2653L107.215 35.4367L102.08 35.608C99.0281 35.7099 96.6269 37.9448 96.5755 40.7315L96.4914 45.2865L96.2054 40.7315C96.0304 37.9448 93.5302 35.7099 90.4735 35.608L85.3316 35.4367L90.4659 35.2653C93.518 35.1635 95.9193 32.9286 95.9707 30.1419L96.0547 25.5869Z" fill="url(#paint3_radial_5231_22060)"/>
<g filter="url(#filter14_f_5231_22060)">
<path d="M96.0547 25.5869L96.3407 30.1419C96.5157 32.9286 99.016 35.1635 102.073 35.2653L107.215 35.4367L102.08 35.608C99.0281 35.7099 96.6269 37.9448 96.5755 40.7315L96.4914 45.2865L96.2054 40.7315C96.0304 37.9448 93.5302 35.7099 90.4735 35.608L85.3316 35.4367L90.4659 35.2653C93.518 35.1635 95.9193 32.9286 95.9707 30.1419L96.0547 25.5869Z" fill="url(#paint4_radial_5231_22060)"/>
</g>
<path d="M46.2204 72.0715L46.3597 74.4593H44.5291L44.6684 72.0516C41.7234 71.8129 40.5694 70.2807 40.2908 68.3506L42.4597 67.8929C42.7581 69.5445 43.8127 70.3603 45.6434 70.3603C47.3148 70.3603 48.051 69.7634 48.051 68.8083C48.051 67.7935 47.3745 67.296 45.0464 66.898C41.7632 66.3807 40.7484 65.1072 40.7484 63.2567C40.7484 61.3664 42.0219 60.1526 44.6485 59.9735L44.5291 57.8643H46.3597L46.2403 59.9934C48.648 60.2521 49.7026 61.5057 50.0408 63.3164L47.7923 63.7542C47.474 62.3812 46.877 61.645 45.2056 61.645C43.6934 61.645 42.977 62.2021 42.977 63.1373C42.977 63.973 43.4347 64.5899 45.9418 65.0276C49.5036 65.7042 50.3194 66.9577 50.3194 68.669C50.3194 70.5991 49.1056 71.9124 46.2204 72.0715ZM56.8781 61.6848C55.147 61.6848 54.2516 62.6797 54.0128 64.6894L51.9036 64.4307C52.2419 61.5853 53.7143 59.8143 56.898 59.8143C59.7832 59.8143 61.3751 61.048 61.3751 63.5751C61.3751 65.8832 59.5246 66.9577 56.6991 67.6343C54.2715 68.3108 53.5552 68.8083 53.4756 70.2608C54.5899 70.1613 56.1419 70.0618 57.1965 70.0618H61.4746V71.9919H51.5455C51.5256 71.594 51.5256 71.1761 51.5256 70.7583C51.5256 68.0521 52.7393 66.9577 55.6047 66.1618C58.4501 65.3659 59.1465 64.7292 59.1465 63.4955C59.1465 62.4409 58.47 61.6848 56.8781 61.6848ZM67.6733 72.2108C64.0916 72.2108 62.6789 70.8777 62.6789 68.868C62.6789 67.4154 63.5743 66.4006 65.8626 66.0623V65.8434C64.1314 65.4654 63.1962 64.6297 63.1962 63.0378C63.2161 61.048 64.5493 59.8342 67.6733 59.8342C70.8371 59.8342 72.1503 61.048 72.1503 63.0378C72.1503 64.6297 71.1952 65.4654 69.5039 65.8434V66.0623C71.7922 66.4006 72.6677 67.4154 72.6677 68.868C72.6677 70.8777 71.2748 72.2108 67.6733 72.2108ZM67.6733 66.7787C65.4845 66.7787 64.9075 67.6144 64.9075 68.6093C64.9075 69.7236 65.783 70.4001 67.6733 70.4001C69.5636 70.4001 70.4391 69.7236 70.4391 68.6093C70.4391 67.6144 69.9019 66.7787 67.6733 66.7787ZM67.6733 61.6649C66.0019 61.6649 65.3452 62.3215 65.3253 63.4557C65.3253 64.7292 66.2605 65.2664 67.6733 65.2664C69.1059 65.2664 70.0213 64.7292 70.0213 63.4557C70.0213 62.3215 69.3447 61.6649 67.6733 61.6649ZM73.9493 71.9919V69.5644H76.4365V71.9919H73.9493ZM82.9721 59.7944C86.2354 59.7944 88.1655 62.0827 88.1655 65.9827C88.1655 69.9026 86.2951 72.2506 82.9721 72.2506C79.6491 72.2506 77.7787 69.9026 77.7787 65.9827C77.7787 62.0827 79.7685 59.7944 82.9721 59.7944ZM82.9721 61.7644C80.9226 61.7644 80.0272 63.3761 80.0272 65.9827C80.0272 68.6093 80.9425 70.3006 82.9522 70.3006C85.0017 70.3006 85.917 68.6093 85.917 65.9827C85.917 63.3761 84.9818 61.7644 82.9721 61.7644ZM94.5145 59.7944C97.7778 59.7944 99.7079 62.0827 99.7079 65.9827C99.7079 69.9026 97.8375 72.2506 94.5145 72.2506C91.1915 72.2506 89.3211 69.9026 89.3211 65.9827C89.3211 62.0827 91.3109 59.7944 94.5145 59.7944ZM94.5145 61.7644C92.465 61.7644 91.5696 63.3761 91.5696 65.9827C91.5696 68.6093 92.4849 70.3006 94.4946 70.3006C96.5441 70.3006 97.4594 68.6093 97.4594 65.9827C97.4594 63.3761 96.5242 61.7644 94.5145 61.7644ZM108.907 72.2307C106.141 72.2307 105.067 71.0368 104.669 69.1266L105.942 68.868C106.261 70.1414 106.977 71.1164 108.927 71.1164C110.4 71.1164 111.136 70.5991 111.136 69.5445C111.136 68.5695 110.419 68.1715 108.41 67.8333C106.042 67.4353 105.166 66.5797 105.166 65.147C105.166 63.5751 106.32 62.5205 108.569 62.5205C110.917 62.5205 111.753 63.5751 112.19 65.2266L110.917 65.5251C110.579 64.1123 109.842 63.6149 108.549 63.6149C107.196 63.6149 106.499 64.1521 106.499 65.0873C106.499 65.9031 107.057 66.4603 108.947 66.7588C111.494 67.1766 112.489 68.0123 112.489 69.5047C112.489 71.1164 111.434 72.2307 108.907 72.2307ZM116.789 72.1909C114.979 72.1909 113.864 71.395 113.864 69.644C113.864 68.1118 114.899 66.9378 117.108 66.9378H120.291V66.0822C120.291 64.5501 119.694 63.6945 118.023 63.6945C116.61 63.6945 115.854 64.3909 115.536 65.744L114.222 65.4057C114.64 63.595 115.973 62.5404 118.043 62.5404C120.53 62.5404 121.644 63.7741 121.644 66.0623V71.9919H120.351V69.7833H120.192C119.714 71.3552 118.481 72.1909 116.789 72.1909ZM120.291 68.5894V67.9526H117.267C115.894 67.9526 115.197 68.47 115.197 69.5246C115.197 70.3205 115.675 71.0567 117.167 71.0567C119.058 71.0567 120.291 70.0021 120.291 68.5894ZM132.001 62.7394L128.201 71.9919H126.509L122.649 62.7394H124.141L125.514 66.2613C126.091 67.7736 126.688 69.3256 127.166 70.7782H127.524C128.002 69.3455 128.638 67.7736 129.196 66.2613L130.529 62.7394H132.001ZM137.133 72.2108C134.268 72.2108 132.557 70.42 132.557 67.3955C132.557 64.3511 134.367 62.5205 137.093 62.5205C139.819 62.5205 141.212 64.2317 141.212 66.7787C141.212 67.0174 141.232 67.3756 141.172 67.7537H133.93C134.029 69.8231 135.143 71.0368 137.133 71.0368C138.964 71.0368 139.62 70.0817 139.939 68.9077L141.153 69.2659C140.695 71.0965 139.461 72.2108 137.133 72.2108ZM133.949 66.6991H139.939C139.859 64.769 138.984 63.6547 137.054 63.6547C135.243 63.6547 134.129 64.6894 133.949 66.6991ZM142.622 67.3955C142.622 64.2317 143.995 62.5205 146.323 62.5205C148.293 62.5205 149.308 63.6746 149.766 65.2465H149.885V59.2174H151.238V71.9919H149.885V69.5047H149.766C149.308 71.0766 148.134 72.2108 146.303 72.2108C143.935 72.2108 142.622 70.4996 142.622 67.3955ZM149.885 67.7537V67.0373C149.885 65.1072 148.691 63.7741 146.841 63.7741C144.93 63.7741 143.975 64.9878 143.975 67.3955C143.975 69.7833 144.93 70.9771 146.841 70.9771C148.671 70.9771 149.885 69.7236 149.885 67.7537Z" fill="white"/>
<g opacity="0.7" filter="url(#filter15_d_5231_22060)">
<path d="M71.1927 88.9919V87.1887H66.7779V86.3555L70.9564 81.5302H72.2996V86.2808H73.4064V87.1887H72.2996V88.9919H71.1927ZM71.1927 82.5624L71.1181 82.5375L67.8722 86.3057L67.9344 86.4052C68.693 86.3181 69.5884 86.2808 70.1854 86.2808H71.1927V82.5624ZM77.3734 82.3385C76.1795 82.3385 75.5577 83.0101 75.3711 84.403L74.314 84.2537C74.5503 82.4753 75.4706 81.3934 77.3734 81.3934C79.102 81.3934 80.0596 82.152 80.0596 83.6443C80.0596 85.0621 78.9528 85.7212 77.2241 86.1938C75.5577 86.6664 75.11 87.0519 75.0602 88.1214C75.7691 88.0717 76.7889 88.0095 77.535 88.0095H80.1591V88.9919H74.0902C74.0778 88.7805 74.0778 88.5567 74.0778 88.3328C74.0778 86.6291 74.8488 85.9699 76.6645 85.4227C78.418 84.9253 78.9403 84.4651 78.9403 83.6195C78.9403 82.8733 78.4678 82.3385 77.3734 82.3385ZM86.3862 89.1412C84.5456 89.1412 83.4761 87.9597 83.4761 86.0694C83.4761 84.1667 84.6326 83.035 86.3862 83.035C88.1397 83.035 89.2962 84.1667 89.2962 86.0694C89.2962 87.9597 88.2267 89.1412 86.3862 89.1412ZM86.3862 83.9677C85.1923 83.9677 84.558 84.7512 84.558 86.057C84.558 87.3628 85.1425 88.196 86.3737 88.196C87.6174 88.196 88.2143 87.3628 88.2143 86.057C88.2143 84.7512 87.58 83.9677 86.3862 83.9677ZM91.5003 83.1842V84.8258L91.5873 84.8382C91.8858 83.5822 92.4828 83.122 93.3782 83.122H93.602V84.3159H93.3035C92.0475 84.3159 91.5376 84.8134 91.5376 86.1192V88.9919H90.4556V83.1842H91.5003ZM100.057 86.0943C100.057 88.0717 99.2363 89.1412 97.8559 89.1412C96.7118 89.1412 96.0153 88.4199 95.7293 87.425H95.6547V88.9919H94.5727V81.0079H95.6547V84.7139H95.7417C96.0402 83.719 96.6993 83.035 97.8062 83.035C99.2612 83.035 100.057 84.1169 100.057 86.0943ZM95.6547 85.8829V86.3306C95.6547 87.425 96.3262 88.1836 97.3709 88.1836C98.4528 88.1836 98.9876 87.4872 98.9876 86.0943C98.9876 84.689 98.4653 84.0174 97.3709 84.0174C96.3262 84.0174 95.6547 84.7387 95.6547 85.8829ZM103.479 89.1412C101.663 89.1412 101.017 88.395 100.793 87.226L101.775 87.027C101.974 87.7732 102.397 88.3204 103.491 88.3204C104.312 88.3204 104.723 88.0344 104.735 87.4498C104.735 86.9026 104.337 86.6664 103.131 86.4549C101.626 86.1938 101.066 85.659 101.066 84.7263C101.066 83.6941 101.8 83.035 103.292 83.035C104.822 83.035 105.344 83.7065 105.618 84.7387L104.623 84.9502C104.437 84.1418 104.026 83.8433 103.268 83.8433C102.509 83.8433 102.111 84.1542 102.111 84.6641C102.111 85.1243 102.41 85.4476 103.554 85.6341C105.208 85.9326 105.78 86.4798 105.78 87.4125C105.78 88.4572 105.083 89.1412 103.479 89.1412ZM109.391 81.0079H110.473V88.9919H109.391V81.0079ZM114.599 89.1287C112.808 89.1287 111.688 88.0592 111.688 86.1316C111.688 84.1915 112.82 83.035 114.574 83.035C116.315 83.035 117.185 84.1045 117.185 85.7088C117.185 85.8953 117.185 86.144 117.148 86.4052H112.77C112.857 87.5866 113.467 88.2333 114.599 88.2333C115.643 88.2333 116.004 87.711 116.19 87.0643L117.136 87.3255C116.849 88.4199 116.091 89.1287 114.599 89.1287ZM112.783 85.6217H116.178C116.128 84.5149 115.631 83.8931 114.549 83.8931C113.517 83.8931 112.92 84.4651 112.783 85.6217ZM119.92 82.836V83.1842H121.686V84.0796H119.92V88.9919H118.838V84.0796H117.793V83.1842H118.838V82.8111C118.838 81.6297 119.472 80.8462 120.766 80.8462C121.201 80.8462 121.499 80.8959 121.736 80.9457L121.686 81.754C121.4 81.7167 121.176 81.6794 120.927 81.6794C120.219 81.6794 119.92 82.0898 119.92 82.836ZM122.068 84.0796V83.1842H122.951V81.5551H124.033V83.1842H125.886V84.0796H124.033V87.1389C124.033 87.7981 124.282 88.1338 124.929 88.1338C125.24 88.1338 125.501 88.0717 125.812 87.9846L125.949 88.9422C125.551 89.079 125.24 89.1412 124.705 89.1412C123.499 89.1412 122.951 88.3453 122.951 87.2633V84.0796H122.068Z" fill="white"/>
</g>
<rect x="45.8125" y="101.053" width="100.898" height="16.9745" rx="8.48726" fill="white"/>
<path d="M59.0576 112.58L59.1272 113.774H58.2119L58.2816 112.57C56.8091 112.45 56.2321 111.684 56.0928 110.719L57.1772 110.491C57.3265 111.316 57.8538 111.724 58.7691 111.724C59.6048 111.724 59.9729 111.426 59.9729 110.948C59.9729 110.441 59.6346 110.192 58.4706 109.993C56.829 109.734 56.3216 109.098 56.3216 108.172C56.3216 107.227 56.9583 106.62 58.2716 106.531L58.2119 105.476H59.1272L59.0675 106.541C60.2714 106.67 60.7987 107.297 60.9678 108.202L59.8436 108.421C59.6844 107.735 59.3859 107.367 58.5502 107.367C57.7941 107.367 57.4359 107.645 57.4359 108.113C57.4359 108.531 57.6647 108.839 58.9183 109.058C60.6992 109.396 61.1071 110.023 61.1071 110.879C61.1071 111.844 60.5002 112.5 59.0576 112.58ZM64.3268 106.441C65.9584 106.441 66.9235 107.585 66.9235 109.535C66.9235 111.495 65.9883 112.669 64.3268 112.669C62.6653 112.669 61.7301 111.495 61.7301 109.535C61.7301 107.585 62.725 106.441 64.3268 106.441ZM64.3268 107.426C63.302 107.426 62.8543 108.232 62.8543 109.535C62.8543 110.849 63.312 111.694 64.3168 111.694C65.3416 111.694 65.7992 110.849 65.7992 109.535C65.7992 108.232 65.3316 107.426 64.3268 107.426ZM67.3451 112.54V111.326H68.5888V112.54H67.3451ZM71.9162 107.386C71.0507 107.386 70.603 107.884 70.4836 108.889L69.429 108.759C69.5981 107.337 70.3343 106.451 71.9262 106.451C73.3688 106.451 74.1647 107.068 74.1647 108.332C74.1647 109.486 73.2395 110.023 71.8267 110.361C70.6129 110.699 70.2547 110.948 70.215 111.674C70.7721 111.625 71.5481 111.575 72.0754 111.575H74.2145V112.54H69.2499C69.2399 112.341 69.2399 112.132 69.2399 111.923C69.2399 110.57 69.8468 110.023 71.2795 109.625C72.7022 109.227 73.0504 108.909 73.0504 108.292C73.0504 107.765 72.7122 107.386 71.9162 107.386ZM77.5403 106.441C79.1719 106.441 80.137 107.585 80.137 109.535C80.137 111.495 79.2018 112.669 77.5403 112.669C75.8788 112.669 74.9436 111.495 74.9436 109.535C74.9436 107.585 75.9385 106.441 77.5403 106.441ZM77.5403 107.426C76.5156 107.426 76.0679 108.232 76.0679 109.535C76.0679 110.849 76.5255 111.694 77.5304 111.694C78.5551 111.694 79.0128 110.849 79.0128 109.535C79.0128 108.232 78.5452 107.426 77.5403 107.426ZM83.316 111.137L83.6742 110.928C82.9678 110.699 82.6096 110.222 82.6096 109.496C82.6096 108.431 83.3658 107.864 84.6691 107.864H86.9872V108.69H86.45C86.2211 108.69 85.9028 108.67 85.5048 108.64L85.4949 108.73C86.1216 108.849 86.629 109.098 86.629 109.724C86.629 110.56 85.9227 111.068 84.6193 111.068C84.3308 111.068 84.0622 111.038 83.8334 110.978L83.7239 111.147C83.6543 111.267 83.6045 111.356 83.6045 111.446C83.6045 111.615 83.7538 111.704 84.0622 111.704C84.5795 111.704 85.1267 111.694 85.6341 111.694C86.6191 111.694 87.0967 112.122 87.0967 112.848C87.0967 113.784 86.4898 114.251 84.6392 114.251C82.8683 114.251 82.351 113.873 82.351 113.276C82.351 112.868 82.7887 112.56 83.4255 112.431V112.391C82.9977 112.311 82.7887 112.102 82.7887 111.764C82.7887 111.515 82.9877 111.296 83.316 111.137ZM84.6193 108.7C83.8632 108.7 83.5747 109.038 83.5747 109.516C83.5747 110.003 83.8632 110.331 84.6293 110.331C85.3954 110.331 85.7137 110.023 85.7137 109.516C85.7137 109.028 85.3655 108.7 84.6193 108.7ZM85.5943 112.421H83.9528C83.4454 112.421 83.1867 112.669 83.1867 112.938C83.1867 113.316 83.4852 113.475 84.6989 113.475C85.9525 113.475 86.241 113.276 86.241 112.878C86.241 112.61 86.062 112.421 85.5943 112.421ZM88.8981 112.64C88.0624 112.64 87.4754 112.242 87.4754 111.326C87.4754 110.491 87.9828 109.884 89.1667 109.884H90.5596V109.565C90.5596 108.958 90.3009 108.61 89.6542 108.61C89.117 108.61 88.7887 108.889 88.6693 109.436L87.6545 109.207C87.8435 108.322 88.5002 107.755 89.694 107.755C91.0471 107.755 91.6242 108.401 91.6242 109.555V112.54H90.6094V111.426H90.5099C90.2711 112.182 89.7239 112.64 88.8981 112.64ZM90.5596 110.779V110.59H89.3458C88.7986 110.59 88.5002 110.789 88.5002 111.177C88.5002 111.505 88.7091 111.804 89.316 111.804C90.0622 111.804 90.5596 111.366 90.5596 110.779ZM94.5596 112.669C93.0374 112.669 92.5598 112.043 92.3807 111.157L93.3458 110.958C93.495 111.515 93.8234 111.883 94.5795 111.883C95.1466 111.883 95.4351 111.684 95.445 111.286C95.445 110.918 95.1864 110.739 94.2611 110.57C93.0175 110.331 92.5797 109.894 92.5797 109.128C92.5797 108.282 93.1966 107.745 94.4402 107.745C95.7236 107.745 96.1713 108.272 96.3504 109.098L95.3853 109.307C95.256 108.72 94.9774 108.511 94.4203 108.511C93.8731 108.511 93.5945 108.7 93.5945 109.068C93.5945 109.396 93.7935 109.625 94.679 109.784C96.0718 110.043 96.4797 110.5 96.4797 111.247C96.4797 112.112 95.9126 112.669 94.5596 112.669ZM100.204 107.864V109.267L100.294 109.277C100.562 108.153 101 107.814 101.677 107.814H101.846V109.018H101.587C100.602 109.018 100.254 109.366 100.254 110.321V112.54H99.1895V107.864H100.204ZM104.631 112.659C103.198 112.659 102.273 111.824 102.273 110.262C102.273 108.68 103.168 107.745 104.631 107.745C106.034 107.745 106.73 108.6 106.73 109.884C106.73 110.073 106.72 110.272 106.71 110.51H103.347C103.427 111.356 103.855 111.784 104.641 111.784C105.387 111.784 105.646 111.426 105.775 110.978L106.69 111.237C106.461 112.082 105.894 112.659 104.631 112.659ZM103.347 109.794H105.745C105.705 108.988 105.347 108.57 104.601 108.57C103.875 108.57 103.457 108.958 103.347 109.794ZM109.037 107.625V107.864H110.32V108.73H109.037V112.54H107.962V108.73H107.186V107.864H107.962V107.605C107.962 106.65 108.48 106.013 109.564 106.013C109.932 106.013 110.171 106.053 110.36 106.093L110.32 106.859C110.121 106.829 109.942 106.809 109.753 106.809C109.276 106.809 109.037 107.078 109.037 107.625ZM114.119 112.54V111.306H114.029C113.761 112.182 113.154 112.669 112.388 112.669C111.403 112.669 110.935 112.013 110.935 110.988V107.864H112.01V110.709C112.01 111.277 112.258 111.694 112.895 111.694C113.621 111.694 114.089 111.217 114.089 110.51V107.864H115.163V112.54H114.119ZM117.324 107.864V109.098H117.414C117.683 108.232 118.269 107.745 119.055 107.745C120.04 107.745 120.498 108.391 120.498 109.416V112.54H119.434V109.695C119.434 109.128 119.185 108.71 118.538 108.71C117.822 108.71 117.344 109.187 117.344 109.894V112.54H116.28V107.864H117.324ZM121.296 110.222C121.296 108.62 121.923 107.735 123.028 107.745C123.873 107.735 124.391 108.282 124.629 109.088H124.699V106.153H125.764V112.54H124.699V111.306H124.629C124.401 112.102 123.843 112.669 122.998 112.669C121.923 112.669 121.296 111.814 121.296 110.222ZM124.699 110.411V110.053C124.699 109.247 124.231 108.71 123.505 108.71C122.739 108.71 122.351 109.217 122.351 110.222C122.351 111.227 122.709 111.714 123.505 111.714C124.221 111.714 124.699 111.207 124.699 110.411ZM128.969 112.659C127.536 112.659 126.611 111.824 126.611 110.262C126.611 108.68 127.506 107.745 128.969 107.745C130.372 107.745 131.068 108.6 131.068 109.884C131.068 110.073 131.058 110.272 131.048 110.51H127.686C127.765 111.356 128.193 111.784 128.979 111.784C129.725 111.784 129.984 111.426 130.113 110.978L131.028 111.237C130.8 112.082 130.232 112.659 128.969 112.659ZM127.686 109.794H130.083C130.043 108.988 129.685 108.57 128.939 108.57C128.213 108.57 127.795 108.958 127.686 109.794ZM131.663 110.222C131.663 108.62 132.29 107.735 133.394 107.745C134.24 107.735 134.757 108.282 134.996 109.088H135.066V106.153H136.13V112.54H135.066V111.306H134.996C134.767 112.102 134.21 112.669 133.365 112.669C132.29 112.669 131.663 111.814 131.663 110.222ZM135.066 110.411V110.053C135.066 109.247 134.598 108.71 133.872 108.71C133.106 108.71 132.718 109.217 132.718 110.222C132.718 111.227 133.076 111.714 133.872 111.714C134.588 111.714 135.066 111.207 135.066 110.411Z" fill="#090909"/>
<rect opacity="0.3" x="37.7383" y="133.932" width="51.1732" height="3.83799" rx="1.91899" fill="white"/>
<rect opacity="0.3" x="37.7383" y="151.843" width="62.6871" height="3.83799" rx="1.91899" fill="white"/>
<rect opacity="0.3" x="130.488" y="151.843" width="24.3073" height="3.83799" rx="1.91899" fill="white"/>
<rect opacity="0.3" x="37.7383" y="142.887" width="29.4246" height="3.83799" rx="1.91899" fill="white"/>
<rect opacity="0.3" x="125.371" y="142.887" width="29.4246" height="3.83799" rx="1.91899" fill="white"/>
<rect opacity="0.3" x="127.93" y="133.932" width="26.8659" height="3.83799" rx="1.91899" fill="white"/>
</g>
<rect x="0.319832" y="0.319832" width="192.123" height="228.36" rx="15.0321" stroke="url(#paint5_linear_5231_22060)" stroke-opacity="0.5" stroke-width="0.639665"/>
</g>
<defs>
<filter id="filter0_b_5231_22060" x="-24.3073" y="-24.3073" width="241.377" height="277.615" filterUnits="userSpaceOnUse" color-interpolation-filters="sRGB">
<feFlood flood-opacity="0" result="BackgroundImageFix"/>
<feGaussianBlur in="BackgroundImageFix" stdDeviation="12.1536"/>
<feComposite in2="SourceAlpha" operator="in" result="effect1_backgroundBlur_5231_22060"/>
<feBlend mode="normal" in="SourceGraphic" in2="effect1_backgroundBlur_5231_22060" result="shape"/>
</filter>
<filter id="filter1_f_5231_22060" x="5.25088" y="180.514" width="190.364" height="190.364" filterUnits="userSpaceOnUse" color-interpolation-filters="sRGB">
<feFlood flood-opacity="0" result="BackgroundImageFix"/>
<feBlend mode="normal" in="SourceGraphic" in2="BackgroundImageFix" result="shape"/>
<feGaussianBlur stdDeviation="1.85503" result="effect1_foregroundBlur_5231_22060"/>
</filter>
<filter id="filter2_dd_5231_22060" x="4.94658" y="180.209" width="195.162" height="195.162" filterUnits="userSpaceOnUse" color-interpolation-filters="sRGB">
<feFlood flood-opacity="0" result="BackgroundImageFix"/>
<feColorMatrix in="SourceAlpha" type="matrix" values="0 0 0 0 0 0 0 0 0 0 0 0 0 0 0 0 0 0 127 0" result="hardAlpha"/>
<feOffset dx="2.09445" dy="2.09445"/>
<feGaussianBlur stdDeviation="3.0544"/>
<feComposite in2="hardAlpha" operator="out"/>
<feColorMatrix type="matrix" values="0 0 0 0 0.639843 0 0 0 0 0.00784314 0 0 0 0 0.937255 0 0 0 0.88 0"/>
<feBlend mode="normal" in2="BackgroundImageFix" result="effect1_dropShadow_5231_22060"/>
<feColorMatrix in="SourceAlpha" type="matrix" values="0 0 0 0 0 0 0 0 0 0 0 0 0 0 0 0 0 0 127 0" result="hardAlpha"/>
<feOffset dx="-2.44352" dy="1.3963"/>
<feGaussianBlur stdDeviation="0.698148"/>
<feComposite in2="hardAlpha" operator="out"/>
<feColorMatrix type="matrix" values="0 0 0 0 0 0 0 0 0 0 0 0 0 0 0 0 0 0 0.25 0"/>
<feBlend mode="normal" in2="effect1_dropShadow_5231_22060" result="effect2_dropShadow_5231_22060"/>
<feBlend mode="normal" in="SourceGraphic" in2="effect2_dropShadow_5231_22060" result="shape"/>
</filter>
<filter id="filter3_f_5231_22060" x="-124.642" y="186.567" width="278.767" height="200.672" filterUnits="userSpaceOnUse" color-interpolation-filters="sRGB">
<feFlood flood-opacity="0" result="BackgroundImageFix"/>
<feBlend mode="normal" in="SourceGraphic" in2="BackgroundImageFix" result="shape"/>
<feGaussianBlur stdDeviation="10.0359" result="effect1_foregroundBlur_5231_22060"/>
</filter>
<filter id="filter4_f_5231_22060" x="-21.9546" y="175.721" width="278.767" height="200.672" filterUnits="userSpaceOnUse" color-interpolation-filters="sRGB">
<feFlood flood-opacity="0" result="BackgroundImageFix"/>
<feBlend mode="normal" in="SourceGraphic" in2="BackgroundImageFix" result="shape"/>
<feGaussianBlur stdDeviation="10.0359" result="effect1_foregroundBlur_5231_22060"/>
</filter>
<filter id="filter5_f_5231_22060" x="-99.3335" y="148.966" width="278.767" height="200.672" filterUnits="userSpaceOnUse" color-interpolation-filters="sRGB">
<feFlood flood-opacity="0" result="BackgroundImageFix"/>
<feBlend mode="normal" in="SourceGraphic" in2="BackgroundImageFix" result="shape"/>
<feGaussianBlur stdDeviation="10.0359" result="effect1_foregroundBlur_5231_22060"/>
</filter>
<filter id="filter6_f_5231_22060" x="1.70688" y="176.244" width="196.733" height="199.625" filterUnits="userSpaceOnUse" color-interpolation-filters="sRGB">
<feFlood flood-opacity="0" result="BackgroundImageFix"/>
<feBlend mode="normal" in="SourceGraphic" in2="BackgroundImageFix" result="shape"/>
<feGaussianBlur stdDeviation="2.18171" result="effect1_foregroundBlur_5231_22060"/>
</filter>
<filter id="filter7_f_5231_22060" x="-187.544" y="117.15" width="278.767" height="200.672" filterUnits="userSpaceOnUse" color-interpolation-filters="sRGB">
<feFlood flood-opacity="0" result="BackgroundImageFix"/>
<feBlend mode="normal" in="SourceGraphic" in2="BackgroundImageFix" result="shape"/>
<feGaussianBlur stdDeviation="10.0359" result="effect1_foregroundBlur_5231_22060"/>
</filter>
<filter id="filter8_ddf_5231_22060" x="-3.19269" y="172.07" width="207.252" height="207.251" filterUnits="userSpaceOnUse" color-interpolation-filters="sRGB">
<feFlood flood-opacity="0" result="BackgroundImageFix"/>
<feColorMatrix in="SourceAlpha" type="matrix" values="0 0 0 0 0 0 0 0 0 0 0 0 0 0 0 0 0 0 127 0" result="hardAlpha"/>
<feOffset dx="2.09445" dy="2.09445"/>
<feGaussianBlur stdDeviation="3.0544"/>
<feComposite in2="hardAlpha" operator="out"/>
<feColorMatrix type="matrix" values="0 0 0 0 0.639843 0 0 0 0 0.00784314 0 0 0 0 0.937255 0 0 0 0.88 0"/>
<feBlend mode="normal" in2="BackgroundImageFix" result="effect1_dropShadow_5231_22060"/>
<feColorMatrix in="SourceAlpha" type="matrix" values="0 0 0 0 0 0 0 0 0 0 0 0 0 0 0 0 0 0 127 0" result="hardAlpha"/>
<feOffset dx="-2.44352" dy="1.3963"/>
<feGaussianBlur stdDeviation="0.698148"/>
<feComposite in2="hardAlpha" operator="out"/>
<feColorMatrix type="matrix" values="0 0 0 0 0 0 0 0 0 0 0 0 0 0 0 0 0 0 0.25 0"/>
<feBlend mode="normal" in2="effect1_dropShadow_5231_22060" result="effect2_dropShadow_5231_22060"/>
<feBlend mode="normal" in="SourceGraphic" in2="effect2_dropShadow_5231_22060" result="shape"/>
<feGaussianBlur stdDeviation="6.07682" result="effect3_foregroundBlur_5231_22060"/>
</filter>
<filter id="filter9_f_5231_22060" x="-124.642" y="186.567" width="278.767" height="200.672" filterUnits="userSpaceOnUse" color-interpolation-filters="sRGB">
<feFlood flood-opacity="0" result="BackgroundImageFix"/>
<feBlend mode="normal" in="SourceGraphic" in2="BackgroundImageFix" result="shape"/>
<feGaussianBlur stdDeviation="10.0359" result="effect1_foregroundBlur_5231_22060"/>
</filter>
<filter id="filter10_f_5231_22060" x="-21.9546" y="175.721" width="278.767" height="200.672" filterUnits="userSpaceOnUse" color-interpolation-filters="sRGB">
<feFlood flood-opacity="0" result="BackgroundImageFix"/>
<feBlend mode="normal" in="SourceGraphic" in2="BackgroundImageFix" result="shape"/>
<feGaussianBlur stdDeviation="10.0359" result="effect1_foregroundBlur_5231_22060"/>
</filter>
<filter id="filter11_f_5231_22060" x="-99.3335" y="148.966" width="278.767" height="200.672" filterUnits="userSpaceOnUse" color-interpolation-filters="sRGB">
<feFlood flood-opacity="0" result="BackgroundImageFix"/>
<feBlend mode="normal" in="SourceGraphic" in2="BackgroundImageFix" result="shape"/>
<feGaussianBlur stdDeviation="10.0359" result="effect1_foregroundBlur_5231_22060"/>
</filter>
<filter id="filter12_f_5231_22060" x="1.70688" y="176.244" width="196.733" height="199.625" filterUnits="userSpaceOnUse" color-interpolation-filters="sRGB">
<feFlood flood-opacity="0" result="BackgroundImageFix"/>
<feBlend mode="normal" in="SourceGraphic" in2="BackgroundImageFix" result="shape"/>
<feGaussianBlur stdDeviation="2.18171" result="effect1_foregroundBlur_5231_22060"/>
</filter>
<filter id="filter13_f_5231_22060" x="-187.658" y="117.456" width="290.253" height="200.06" filterUnits="userSpaceOnUse" color-interpolation-filters="sRGB">
<feFlood flood-opacity="0" result="BackgroundImageFix"/>
<feBlend mode="normal" in="SourceGraphic" in2="BackgroundImageFix" result="shape"/>
<feGaussianBlur stdDeviation="10.0359" result="effect1_foregroundBlur_5231_22060"/>
</filter>
<filter id="filter14_f_5231_22060" x="84.3188" y="24.7924" width="23.9083" height="21.2884" filterUnits="userSpaceOnUse" color-interpolation-filters="sRGB">
<feFlood flood-opacity="0" result="BackgroundImageFix"/>
<feBlend mode="normal" in="SourceGraphic" in2="BackgroundImageFix" result="shape"/>
<feGaussianBlur stdDeviation="0.397234" result="effect1_foregroundBlur_5231_22060"/>
</filter>
<filter id="filter15_d_5231_22060" x="52.4766" y="68.4099" width="89.017" height="38.142" filterUnits="userSpaceOnUse" color-interpolation-filters="sRGB">
<feFlood flood-opacity="0" result="BackgroundImageFix"/>
<feColorMatrix in="SourceAlpha" type="matrix" values="0 0 0 0 0 0 0 0 0 0 0 0 0 0 0 0 0 0 127 0" result="hardAlpha"/>
<feOffset dx="0.621814" dy="2.48725"/>
<feGaussianBlur stdDeviation="7.46176"/>
<feComposite in2="hardAlpha" operator="out"/>
<feColorMatrix type="matrix" values="0 0 0 0 0.890196 0 0 0 0 0.211765 0 0 0 0 0.396078 0 0 0 0.4 0"/>
<feBlend mode="normal" in2="BackgroundImageFix" result="effect1_dropShadow_5231_22060"/>
<feBlend mode="normal" in="SourceGraphic" in2="effect1_dropShadow_5231_22060" result="shape"/>
</filter>
<linearGradient id="paint0_linear_5231_22060" x1="-2.65674e-06" y1="-17.5418" x2="133.478" y2="237.483" gradientUnits="userSpaceOnUse">
<stop stop-color="#25252C"/>
<stop offset="1" stop-color="#090909" stop-opacity="0.15"/>
</linearGradient>
<linearGradient id="paint1_linear_5231_22060" x1="100.073" y1="180.607" x2="100.073" y2="371.506" gradientUnits="userSpaceOnUse">
<stop stop-color="#FF4D4D"/>
<stop offset="1" stop-color="#FF23CF"/>
</linearGradient>
<linearGradient id="paint2_linear_5231_22060" x1="100.073" y1="180.607" x2="100.073" y2="371.506" gradientUnits="userSpaceOnUse">
<stop stop-color="#FF5732"/>
<stop offset="1" stop-color="#FF23B4"/>
</linearGradient>
<radialGradient id="paint3_radial_5231_22060" cx="0" cy="0" r="1" gradientUnits="userSpaceOnUse" gradientTransform="translate(96.2731 35.4367) rotate(88.7302) scale(9.85219 10.9388)">
<stop stop-color="white"/>
<stop offset="1" stop-color="white" stop-opacity="0"/>
</radialGradient>
<radialGradient id="paint4_radial_5231_22060" cx="0" cy="0" r="1" gradientUnits="userSpaceOnUse" gradientTransform="translate(96.2731 35.4367) rotate(88.7302) scale(9.85219 10.9388)">
<stop stop-color="white"/>
<stop offset="1" stop-color="white" stop-opacity="0"/>
</radialGradient>
<linearGradient id="paint5_linear_5231_22060" x1="27.8653" y1="2.77033e-06" x2="105.299" y2="225.944" gradientUnits="userSpaceOnUse">
<stop stop-color="#E6E6E6"/>
<stop offset="0.065" stop-opacity="0"/>
<stop offset="0.16" stop-color="#E6E6E6"/>
<stop offset="0.6" stop-opacity="0"/>
<stop offset="1" stop-color="#606060"/>
</linearGradient>
<clipPath id="clip0_5231_22060">
<rect width="192.762" height="229" rx="15.352" fill="white"/>
</clipPath>
</defs>
</svg>
