<svg width="62" height="56" viewBox="0 0 62 56" fill="none" xmlns="http://www.w3.org/2000/svg">
<path d="M30.4103 2.34961L31.1477 14.094C31.5988 21.2791 38.0454 27.0415 45.9265 27.3041L59.1843 27.7459L45.9461 28.1877C38.0767 28.4503 31.8855 34.2127 31.7529 41.3978L31.5361 53.1422L30.7988 41.3978C30.3476 34.2127 23.901 28.4503 16.0199 28.1877L2.76215 27.7459L16.0003 27.3041C23.8698 27.0415 30.0609 21.2791 30.1935 14.094L30.4103 2.34961Z" fill="url(#paint0_radial_5231_20061)"/>
<g filter="url(#filter0_f_5231_20061)">
<path d="M30.4103 2.34961L31.1477 14.094C31.5988 21.2791 38.0454 27.0415 45.9265 27.3041L59.1843 27.7459L45.9461 28.1877C38.0767 28.4503 31.8855 34.2127 31.7529 41.3978L31.5361 53.1422L30.7988 41.3978C30.3476 34.2127 23.901 28.4503 16.0199 28.1877L2.76215 27.7459L16.0003 27.3041C23.8698 27.0415 30.0609 21.2791 30.1935 14.094L30.4103 2.34961Z" fill="url(#paint1_radial_5231_20061)"/>
</g>
<defs>
<filter id="filter0_f_5231_20061" x="0.150793" y="0.301184" width="61.6447" height="54.8893" filterUnits="userSpaceOnUse" color-interpolation-filters="sRGB">
<feFlood flood-opacity="0" result="BackgroundImageFix"/>
<feBlend mode="normal" in="SourceGraphic" in2="BackgroundImageFix" result="shape"/>
<feGaussianBlur stdDeviation="1.02421" result="effect1_foregroundBlur_5231_20061"/>
</filter>
<radialGradient id="paint0_radial_5231_20061" cx="0" cy="0" r="1" gradientUnits="userSpaceOnUse" gradientTransform="translate(30.9732 27.7459) rotate(88.7302) scale(25.4025 28.2041)">
<stop stop-color="white"/>
<stop offset="1" stop-color="white" stop-opacity="0"/>
</radialGradient>
<radialGradient id="paint1_radial_5231_20061" cx="0" cy="0" r="1" gradientUnits="userSpaceOnUse" gradientTransform="translate(30.9732 27.7459) rotate(88.7302) scale(25.4025 28.2041)">
<stop stop-color="white"/>
<stop offset="1" stop-color="white" stop-opacity="0"/>
</radialGradient>
</defs>
</svg>
