<svg width="67" height="95" viewBox="0 0 67 95" fill="none" xmlns="http://www.w3.org/2000/svg">
<path d="M32.0863 0.806641H34.817V7.16947C34.817 13.5323 40.2785 21.5372 51.4291 21.5372H57.8008V24.0002H51.4291C41.8715 24.0002 34.817 30.363 34.817 39.8047V44.7307H32.0863V39.8047C32.0863 28.721 25.2594 27.079 19.1152 27.079C12.971 27.079 5.91662 30.1578 5.91662 39.1889C5.91662 47.399 16.8396 53.9671 23.6665 53.9671V55.8144C14.1089 55.8144 0 50.2725 0 38.1626C0 26.0527 11.0009 22.4005 16.8396 21.5372C30.7209 19.4846 32.0863 11.1103 32.0863 7.16947V0.806641Z" fill="white"/>
<path d="M34.9137 94.6035H32.183V88.2407C32.183 81.8778 26.7215 73.873 15.5709 73.873H9.19919V71.41H15.5709C25.1285 71.41 32.183 65.0471 32.183 55.6055V50.6794H34.9137V55.6055C34.9137 66.6891 41.7406 68.3312 47.8848 68.3312C54.029 68.3312 61.0834 65.2524 61.0834 56.2213C61.0834 48.0112 50.1604 41.4431 43.3335 41.4431V39.5958C52.8911 39.5958 67 45.1376 67 57.2475C67 69.3574 55.9991 73.0097 50.1604 73.873C36.2791 75.9255 34.9137 84.2998 34.9137 88.2407V94.6035Z" fill="url(#paint0_linear_5231_22780)"/>
<defs>
<linearGradient id="paint0_linear_5231_22780" x1="38" y1="98.8057" x2="15.4866" y2="51.1326" gradientUnits="userSpaceOnUse">
<stop stop-color="#FE756C"/>
<stop offset="0.633556" stop-color="#DD1D63"/>
<stop offset="1"/>
</linearGradient>
</defs>
</svg>
