<svg width="728" height="700" viewBox="0 0 728 700" fill="none" xmlns="http://www.w3.org/2000/svg">
<path fill-rule="evenodd" clip-rule="evenodd" d="M-2.99976 1.37936C-3.00206 1.37575 -3.00325 1.37303 -2.21685 0.906225C-1.43036 0.439417 -1.42954 0.44032 -1.42762 0.443938L-1.41871 0.458419L-1.38235 0.517225C-1.34975 0.5706 -1.3008 0.650197 -1.23533 0.755139C-1.10439 0.966835 -0.90779 1.28167 -0.645627 1.69872C-0.121485 2.53282 0.664462 3.77131 1.70972 5.38885C3.80013 8.62213 6.92741 13.3671 11.0718 19.4085C19.3606 31.4903 31.7169 48.755 47.9804 69.4755C80.5082 110.917 128.66 166.171 191.153 221.424C316.148 331.939 498.443 442.384 727.799 442.384V444.193C497.819 444.193 315.105 333.448 189.926 222.771C127.333 167.428 79.1063 112.088 46.5275 70.5819C30.2377 49.8288 17.8585 32.5325 9.55023 20.4217C5.39616 14.3658 2.25957 9.6073 0.160613 6.36047C-0.888865 4.7375 -1.67885 3.49176 -2.20703 2.65133C-2.47103 2.23156 -2.66965 1.91313 -2.80252 1.69872C-2.86891 1.59107 -2.91887 1.51054 -2.95229 1.45626L-2.99012 1.39474L-2.99976 1.37936ZM-2.91234 134.483C-2.91464 134.48 -2.91592 134.48 -2.21685 133.892C-1.51787 133.306 -1.51714 133.307 -1.5153 133.309L-1.50649 133.319L-1.47041 133.361L-1.40659 133.434L-1.32394 133.528C-1.26811 133.592 -1.20035 133.669 -1.12055 133.759L-0.993005 133.904C-0.915595 133.992 -0.829738 134.089 -0.735433 134.195C-0.212026 134.784 0.573178 135.659 1.61761 136.803C3.70646 139.089 6.83219 142.445 10.975 146.718C19.2605 155.263 31.6136 167.476 47.8738 182.134C80.3947 211.45 128.541 250.543 191.032 289.636C316.014 367.824 498.349 446.003 727.799 446.003V447.812C497.912 447.812 315.239 369.483 190.047 291.163C127.452 252.004 79.2197 212.843 46.634 183.468C30.3409 168.781 17.9585 156.54 9.64692 147.967C5.4912 143.681 2.35313 140.312 0.252613 138.013C-0.797599 136.863 -1.5885 135.981 -2.11732 135.386C-2.38187 135.088 -2.58076 134.862 -2.714 134.71C-2.78057 134.634 -2.83071 134.577 -2.86441 134.538L-2.90252 134.495L-2.91234 134.483ZM-2.21685 226.169C-2.80803 226.861 -2.80674 226.862 -2.80436 226.864L-2.79453 226.872L-2.75624 226.904L-2.65698 226.985L-2.60546 227.027C-2.47204 227.137 -2.27287 227.298 -2.00813 227.512C-1.47885 227.939 -0.687583 228.571 0.363181 229.396C2.46443 231.045 5.6034 233.46 9.75987 236.532C18.0729 242.678 30.4564 251.453 46.7503 261.981C79.3378 283.037 127.568 311.105 190.159 339.171C315.343 395.303 497.976 451.431 727.799 451.431V449.621C498.285 449.621 315.91 393.57 190.921 337.524C128.425 309.501 80.2766 281.479 47.7574 260.468C31.498 249.962 19.1461 241.21 10.8621 235.086C6.72007 232.024 3.59508 229.619 1.50705 227.981C0.463079 227.162 -0.321656 226.534 -0.844605 226.112C-0.956816 226.022 -1.05701 225.941 -1.14507 225.869C-1.26224 225.774 -1.35801 225.696 -1.43239 225.635C-1.49759 225.582 -1.54635 225.542 -1.57849 225.515L-1.61448 225.486L-1.6232 225.478C-1.6232 225.478 -1.62421 225.477 -1.64239 225.498C-1.65102 225.508 -1.66369 225.523 -1.68233 225.544C-1.71677 225.584 -1.7714 225.647 -1.85864 225.75L-2.21685 226.169ZM-2.6095 327.405C-2.6095 327.405 -2.61005 327.405 -2.6095 327.403C-2.60895 327.401 -2.60748 327.397 -2.60409 327.389C-2.59729 327.374 -2.58269 327.343 -2.5522 327.28C-2.50023 327.171 -2.40188 326.968 -2.21685 326.587C-2.03779 326.218 -1.93954 326.016 -1.88536 325.905C-1.86011 325.854 -1.8445 325.822 -1.83467 325.802C-1.82521 325.783 -1.82137 325.776 -1.81962 325.773C-1.81852 325.772 -1.81805 325.772 -1.81805 325.772L-1.80934 325.776L-1.77325 325.793L-1.62696 325.861C-1.49657 325.922 -1.30044 326.012 -1.03883 326.133C-0.515602 326.372 0.269509 326.73 1.31385 327.196C3.40252 328.126 6.52833 329.494 10.6713 331.236C18.9572 334.719 31.3119 339.696 47.5747 345.67C80.1004 357.619 128.26 373.553 190.77 389.49C315.791 421.362 498.217 453.24 727.799 453.24V455.049C498.044 455.049 315.462 423.148 190.31 391.241C127.733 375.289 79.5139 359.334 46.9331 347.365C30.6426 341.381 18.2618 336.393 9.95059 332.9C5.79514 331.153 2.65708 329.78 0.556382 328.844C-0.493922 328.375 -1.28492 328.015 -1.81402 327.773C-2.07848 327.651 -2.27755 327.559 -2.41088 327.498L-2.56148 327.427L-2.59968 327.409L-2.6095 327.405ZM-2.21685 407.102C-2.34155 407.749 -2.37498 407.925 -2.38297 407.973C-2.386 407.991 -2.3849 407.991 -2.3849 407.991L-2.37535 407.993L-2.3377 408L-2.18811 408.028C-2.05551 408.053 -1.85718 408.089 -1.59336 408.137L-1.34617 408.182L-1.04186 408.237C-0.873906 408.267 -0.690154 408.301 -0.4908 408.336C-0.122761 408.402 0.298444 408.477 0.772633 408.561C2.87021 408.933 6.00532 409.478 10.1576 410.171C18.4622 411.558 30.8363 413.537 47.1193 415.913C79.6855 420.664 127.889 426.998 190.446 433.333C315.561 446.001 498.097 458.668 727.799 458.668V456.859C498.165 456.859 315.693 444.195 190.634 431.533C128.104 425.202 79.9289 418.871 47.3884 414.123C31.1182 411.749 18.7568 409.772 10.4644 408.387C6.31814 407.695 3.18921 407.151 1.0976 406.781C0.05179 406.595 -0.73479 406.453 -1.25939 406.358C-1.52174 406.311 -1.7186 406.274 -1.84982 406.25L-1.99711 406.223L-2.03367 406.216L-2.04267 406.214C-2.04267 406.214 -2.04368 406.214 -2.04744 406.231C-2.05102 406.248 -2.05762 406.281 -2.0702 406.345L-2.09812 406.488C-2.12365 406.619 -2.16139 406.814 -2.21685 407.102ZM-2.20685 455.954C-2.20896 455.954 -2.20997 455.954 -2.21685 456.859C-2.22383 457.763 -2.22273 457.763 -2.22071 457.763H-2.21144H-2.19601L-2.17434 457.764H-2.14642H-2.11245H-2.07223L-2.02586 457.765H-1.97334L-1.91466 457.766H-1.84982L-1.77885 457.767H-1.70162L-1.61834 457.768L-1.52889 457.769L-1.43331 457.77H-1.33156L-1.22376 457.771L-1.10981 457.772L-0.98969 457.773L-0.863337 457.773L-0.731016 457.774L-0.592552 457.776L-0.448009 457.777L-0.297332 457.778L-0.140585 457.779L0.0224152 457.781L0.191365 457.782L0.366477 457.783L0.547558 457.784L0.734791 457.785L0.928186 457.787L1.12762 457.789L1.33304 457.79L1.5446 457.792L1.76223 457.793L1.98592 457.795L2.21568 457.797L2.45148 457.799L2.69335 457.801L2.94128 457.802L3.19518 457.804L3.45522 457.806L3.72124 457.808L3.99333 457.81L4.27137 457.811L4.55549 457.814L4.84566 457.816L5.1418 457.819L5.444 457.82L5.75217 457.823L6.06638 457.825L6.38655 457.828L6.71272 457.83L7.04495 457.832L7.38314 457.835L7.7273 457.838L8.07753 457.84L8.43372 457.843L8.79579 457.846L9.16392 457.849L9.53802 457.851L9.91809 457.854L10.304 457.857L10.696 457.859L11.0939 457.863L11.4979 457.866L11.9077 457.868L12.3235 457.872L12.7452 457.875L13.1729 457.878L13.6065 457.881L14.0459 457.885L14.4914 457.888L14.9428 457.891L15.4001 457.895L15.8634 457.898L16.3324 457.902L16.8075 457.906L17.2884 457.908L17.7753 457.912L18.268 457.916L18.7666 457.92L19.2712 457.924L19.7816 457.927L20.2979 457.931L20.8201 457.935L21.3481 457.939L21.8821 457.943L22.4219 457.947L22.9676 457.951L23.5191 457.955L24.0764 457.959L24.6397 457.963L25.2088 457.968L25.7838 457.972L26.3646 457.976L26.9511 457.981L27.5436 457.985L28.1418 457.99L28.746 457.994L29.356 457.999L29.9717 458.003L30.5932 458.008L31.2207 458.012L31.8538 458.017L32.4929 458.021L33.1377 458.027L33.7883 458.031L34.4447 458.037L35.1069 458.041L35.7749 458.046L36.4487 458.051L37.1282 458.057L37.8136 458.061L38.5047 458.067L39.2015 458.072L39.9042 458.077L40.6126 458.082L41.3268 458.087L42.0467 458.093L42.7723 458.098L43.5037 458.104L44.2409 458.109L44.9838 458.115L45.7325 458.12L46.4868 458.125L47.247 458.132L48.0128 458.137L48.7843 458.143L49.5616 458.149L50.3446 458.154L51.1333 458.161L51.9277 458.166L52.7278 458.172L53.5336 458.178L54.3451 458.184L55.1623 458.19L55.9852 458.197L56.8137 458.202L57.648 458.209L58.488 458.215L59.3336 458.221L60.1849 458.228L61.0419 458.234L61.9044 458.24L62.7727 458.247L63.6466 458.254L64.5262 458.26L65.4115 458.266L66.3023 458.273L67.1988 458.28L68.101 458.286L69.0088 458.294L69.9223 458.3L70.8412 458.307L71.7659 458.314L72.6962 458.321L73.6321 458.328L74.5736 458.334L75.5208 458.342L76.4735 458.349L77.4319 458.356L78.3958 458.363L79.3653 458.371L80.3404 458.378L81.3211 458.385L82.3074 458.392L83.2993 458.399L84.2967 458.407L85.2997 458.414L86.3083 458.422L87.3224 458.429L88.3422 458.437L89.3677 458.445L90.3979 458.452L91.4347 458.46L92.4769 458.467L93.5237 458.475L94.577 458.484L95.6357 458.491L96.7 458.499L97.7688 458.507L98.8441 458.515L99.9249 458.523L101.011 458.532L102.103 458.54L103.2 458.548L104.302 458.556L105.411 458.564L106.524 458.572L107.644 458.58L108.769 458.589L109.898 458.598L111.034 458.606L112.175 458.614L113.322 458.623L114.474 458.631L115.632 458.64L116.794 458.648L117.963 458.657L119.137 458.666L120.317 458.674L121.501 458.684L122.691 458.693L123.887 458.702L125.088 458.711L126.295 458.719L127.507 458.728L128.724 458.737L129.947 458.746L131.175 458.756L132.409 458.765L133.648 458.774L134.893 458.783L136.143 458.792L137.398 458.802L138.659 458.811L139.925 458.82L141.197 458.83L142.473 458.839L143.756 458.849L145.044 458.859L146.336 458.868L147.635 458.878L148.939 458.888L150.248 458.897L151.563 458.907L152.883 458.917L154.208 458.927L155.538 458.937L156.874 458.947L158.216 458.957L159.562 458.967L160.915 458.977L162.272 458.987L163.635 458.997L165.003 459.007L166.376 459.017L167.755 459.027L169.139 459.038L170.528 459.048L171.922 459.058L173.322 459.069L174.727 459.079L176.138 459.09L177.554 459.101L178.974 459.111L180.401 459.121L181.833 459.132L183.27 459.143L184.711 459.154L186.159 459.164L187.611 459.175L189.069 459.186L190.533 459.197L192.001 459.207L193.475 459.219L194.955 459.23L196.438 459.241L197.928 459.252L199.423 459.263L200.922 459.274L202.427 459.285L203.938 459.297L205.454 459.308L206.975 459.32L208.501 459.33L210.032 459.342L211.569 459.353L213.11 459.365L214.657 459.377L216.21 459.387L217.766 459.399L219.329 459.411L220.896 459.423L222.469 459.434L224.048 459.446L225.631 459.458L227.219 459.47L228.813 459.481L230.411 459.493L232.015 459.505L233.624 459.518L235.239 459.529L236.857 459.541L238.482 459.553L240.112 459.566L241.746 459.577L243.386 459.59L245.032 459.602L246.682 459.614L248.337 459.626L249.998 459.639L251.663 459.652L253.334 459.664L255.01 459.676L256.69 459.689L258.376 459.701L260.067 459.714L261.763 459.727L263.465 459.739L265.171 459.752L266.883 459.765L268.599 459.777L270.321 459.79L272.047 459.803L273.779 459.816L275.515 459.829L277.257 459.842L279.005 459.855L280.757 459.868L282.513 459.88L284.275 459.894L286.042 459.907L287.814 459.92L289.592 459.934L291.374 459.946L293.161 459.96L294.954 459.974L296.751 459.986L298.553 460L300.361 460.013L302.173 460.027L303.99 460.041L305.812 460.054L307.64 460.068L309.472 460.081L311.31 460.095L313.152 460.108L314.999 460.122L316.852 460.136L318.708 460.15L320.571 460.164L322.438 460.178L324.311 460.192L326.188 460.205L328.07 460.22L329.957 460.233L331.849 460.248L333.746 460.261L335.647 460.276L337.555 460.29L339.466 460.304L341.383 460.318L343.305 460.333L345.231 460.347L347.162 460.362L349.099 460.376L351.04 460.391L352.987 460.405L354.938 460.42L356.894 460.434L358.855 460.449L360.821 460.463L362.791 460.478L364.767 460.492L366.748 460.507L368.733 460.522L370.723 460.536L372.718 460.552L374.718 460.566L376.723 460.582L378.733 460.596L380.748 460.611L382.767 460.626L384.792 460.641L386.821 460.657L388.855 460.671L390.894 460.686L392.938 460.702L394.986 460.717L397.039 460.733L399.097 460.748L401.161 460.763L403.229 460.779L405.301 460.794L407.379 460.81L409.461 460.825L411.548 460.84L413.64 460.856L415.737 460.871L417.838 460.887L419.945 460.903L422.056 460.918L424.171 460.934L426.292 460.95L428.417 460.966L430.548 460.981L432.683 460.998L434.822 461.013L436.967 461.029L439.116 461.046L441.27 461.061L443.429 461.077L445.592 461.094L447.76 461.11L449.933 461.125L452.111 461.142L454.294 461.158L456.481 461.174L458.673 461.19L460.869 461.207L463.07 461.223L465.276 461.239L467.487 461.256L469.703 461.273L471.923 461.289L474.147 461.305L476.378 461.322L478.612 461.339L480.851 461.356L483.094 461.372L485.343 461.388L487.595 461.406L489.853 461.422L492.116 461.439L494.382 461.456L496.654 461.473L498.93 461.49L501.211 461.507L503.497 461.524L505.787 461.54L508.083 461.558L510.382 461.575L512.686 461.592L514.995 461.609L517.308 461.626L519.626 461.644L521.949 461.661L524.276 461.678L526.609 461.696L528.945 461.713L531.286 461.73L533.632 461.748L535.982 461.766L538.337 461.783L540.696 461.8L543.061 461.818L545.43 461.835L547.803 461.853L550.181 461.871L552.563 461.889L554.951 461.907L557.342 461.924L559.738 461.942L562.139 461.96L564.545 461.977L566.954 461.996L569.368 462.014L571.788 462.032L574.211 462.05L576.639 462.068L579.071 462.086L581.508 462.104L583.95 462.122L586.396 462.14L588.847 462.158L591.302 462.176L593.762 462.195L596.226 462.214L598.695 462.232L601.167 462.25L603.646 462.269L606.128 462.287L608.615 462.306L611.106 462.324L613.601 462.343L616.101 462.361L618.606 462.38L621.115 462.398L623.628 462.417L626.147 462.436L628.669 462.454L631.195 462.473L633.727 462.492L636.263 462.511L638.803 462.53L641.348 462.549L643.897 462.568L646.45 462.587L649.009 462.606L651.572 462.625L654.138 462.644L656.709 462.663L659.285 462.682L661.865 462.701L664.45 462.721L667.039 462.74L669.632 462.759L672.23 462.778L674.832 462.798L677.438 462.817L680.05 462.837L682.665 462.856L685.285 462.876L687.908 462.895L690.537 462.915L693.17 462.935L695.807 462.954L698.448 462.973L701.094 462.993L703.744 463.012L706.399 463.032L709.058 463.052L711.721 463.072L714.389 463.092L717.061 463.112L719.737 463.132L722.418 463.152L725.103 463.172L727.792 463.191L727.805 461.382L725.117 461.362L722.432 461.342L719.75 461.322L717.075 461.303L714.403 461.283L711.735 461.263L709.072 461.243L706.413 461.223L703.758 461.204L701.108 461.184L698.463 461.164L695.821 461.144L693.183 461.125L690.551 461.105L687.922 461.085L685.298 461.066L682.678 461.047L680.063 461.028L677.452 461.008L674.846 460.989L672.243 460.97L669.646 460.95L667.052 460.931L664.464 460.912L661.879 460.892L659.299 460.873L656.723 460.854L654.152 460.835L651.585 460.816L649.023 460.797L646.464 460.778L643.911 460.759L641.361 460.74L638.817 460.721L636.277 460.702L633.741 460.683L631.209 460.664L628.683 460.645L626.161 460.627L623.643 460.608L621.129 460.589L618.62 460.571L616.115 460.552L613.615 460.534L611.12 460.515L608.628 460.496L606.142 460.478L603.66 460.459L601.181 460.44L598.708 460.422L596.24 460.404L593.775 460.386L591.315 460.367L588.861 460.349L586.41 460.331L583.964 460.313L581.522 460.295L579.085 460.277L576.653 460.259L574.225 460.24L571.802 460.222L569.382 460.204L566.968 460.186L564.558 460.168L562.152 460.151L559.752 460.133L557.355 460.115L554.964 460.098L552.577 460.079L550.195 460.061L547.817 460.044L545.444 460.026L543.075 460.009L540.711 459.991L538.351 459.974L535.996 459.956L533.646 459.938L531.3 459.921L528.959 459.904L526.622 459.887L524.291 459.869L521.963 459.851L519.641 459.834L517.322 459.817L515.009 459.8L512.7 459.783L510.396 459.766L508.096 459.748L505.802 459.732L503.511 459.715L501.225 459.698L498.944 459.68L496.668 459.663L494.397 459.647L492.13 459.63L489.867 459.614L487.609 459.596L485.357 459.579L483.108 459.563L480.865 459.547L478.626 459.529L476.392 459.513L474.162 459.496L471.937 459.48L469.717 459.463L467.501 459.447L465.291 459.431L463.084 459.414L460.883 459.397L458.687 459.381L456.495 459.365L454.308 459.348L452.125 459.332L449.948 459.316L447.774 459.301L445.606 459.284L443.443 459.268L441.284 459.252L439.13 459.236L436.981 459.22L434.836 459.204L432.696 459.188L430.561 459.172L428.431 459.157L426.306 459.14L424.185 459.125L422.069 459.109L419.958 459.093L417.852 459.078L415.751 459.062L413.654 459.046L411.562 459.031L409.475 459.016L407.393 459L405.315 458.985L403.242 458.969L401.174 458.954L399.111 458.939L397.053 458.923L395 458.908L392.951 458.893L390.907 458.877L388.869 458.862L386.835 458.847L384.806 458.832L382.781 458.817L380.761 458.802L378.747 458.787L376.738 458.772L374.732 458.757L372.732 458.742L370.737 458.727L368.747 458.712L366.762 458.698L364.781 458.683L362.805 458.668L360.834 458.654L358.868 458.639L356.908 458.625L354.952 458.61L353.001 458.596L351.054 458.581L349.113 458.567L347.176 458.552L345.245 458.538L343.319 458.523L341.397 458.509L339.48 458.495L337.568 458.481L335.661 458.466L333.759 458.453L331.862 458.438L329.971 458.424L328.084 458.41L326.201 458.396L324.324 458.382L322.452 458.369L320.585 458.354L318.723 458.341L316.865 458.327L315.013 458.313L313.166 458.299L311.324 458.285L309.486 458.272L307.653 458.258L305.826 458.245L304.004 458.231L302.187 458.218L300.374 458.204L298.567 458.19L296.765 458.177L294.968 458.164L293.175 458.151L291.388 458.137L289.606 458.124L287.828 458.111L286.056 458.097L284.289 458.085L282.527 458.071L280.77 458.058L279.018 458.046L277.271 458.032L275.529 458.02L273.793 458.007L272.061 457.993L270.334 457.981L268.613 457.968L266.896 457.955L265.185 457.943L263.479 457.93L261.777 457.917L260.081 457.905L258.39 457.892L256.704 457.879L255.023 457.867L253.348 457.855L251.677 457.842L250.012 457.83L248.351 457.818L246.696 457.805L245.046 457.792L243.4 457.781L241.76 457.768L240.126 457.756L238.497 457.745L236.871 457.732L235.252 457.72L233.638 457.708L232.029 457.696L230.425 457.684L228.826 457.672L227.233 457.66L225.645 457.649L224.062 457.637L222.483 457.625L220.91 457.613L219.343 457.602L217.781 457.59L216.223 457.578L214.671 457.567L213.124 457.555L211.582 457.544L210.046 457.533L208.514 457.521L206.988 457.51L205.468 457.498L203.952 457.488L202.441 457.476L200.936 457.465L199.437 457.454L197.942 457.442L196.452 457.431L194.968 457.421L193.489 457.41L192.015 457.399L190.547 457.387L189.083 457.376L187.626 457.365L186.173 457.355L184.725 457.345L183.284 457.334L181.846 457.323L180.415 457.312L178.989 457.301L177.567 457.291L176.151 457.28L174.741 457.27L173.336 457.26L171.936 457.249L170.542 457.239L169.152 457.229L167.769 457.218L166.389 457.208L165.017 457.198L163.648 457.187L162.286 457.177L160.928 457.167L159.577 457.157L158.23 457.147L156.888 457.137L155.552 457.128L154.222 457.118L152.896 457.108L151.577 457.098L150.262 457.088L148.953 457.079L147.649 457.069L146.35 457.059L145.057 457.05L143.77 457.04L142.487 457.03L141.211 457.021L139.939 457.012L138.673 457.002L137.412 456.993L136.157 456.983L134.907 456.974L133.663 456.965L132.423 456.956L131.19 456.947L129.961 456.937L128.738 456.928L127.52 456.919L126.308 456.909L125.102 456.901L123.901 456.892L122.705 456.883L121.515 456.874L120.33 456.865L119.15 456.857L117.977 456.848L116.808 456.839L115.645 456.831L114.488 456.822L113.336 456.814L112.189 456.805L111.048 456.796L109.913 456.788L108.782 456.779L107.658 456.771L106.538 456.763L105.424 456.755L104.317 456.747L103.214 456.739L102.117 456.73L101.025 456.722L99.9387 456.714L98.8579 456.706L97.7826 456.698L96.7137 456.69L95.6495 456.681L94.5907 456.674L93.5375 456.666L92.4907 456.659L91.4484 456.651L90.4117 456.643L89.3814 456.635L88.356 456.628L87.3363 456.62L86.3222 456.613L85.3136 456.606L84.3105 456.597L83.3131 456.59L82.3212 456.583L81.335 456.576L80.3542 456.568L79.3791 456.561L78.4096 456.554L77.4456 456.547L76.4873 456.539L75.5347 456.532L74.5875 456.525L73.646 456.519L72.7101 456.511L71.7798 456.504L70.8551 456.498L69.936 456.491L69.0226 456.484L68.1148 456.477L67.2127 456.471L66.3162 456.463L65.4253 456.457L64.5401 456.451L63.6605 456.444L62.7866 456.437L61.9183 456.431L61.0556 456.425L60.1987 456.418L59.3474 456.412L58.5018 456.406L57.6619 456.399L56.8277 456.393L55.9991 456.388L55.1761 456.381L54.359 456.375L53.5475 456.368L52.7417 456.363L51.9416 456.357L51.1471 456.351L50.3585 456.345L49.5755 456.34L48.7982 456.333L48.0266 456.328L47.2608 456.322L46.5007 456.317L45.7462 456.311L44.9977 456.305L44.2548 456.3L43.5176 456.294L42.7861 456.289L42.0605 456.283L41.3406 456.278L40.6265 456.273L39.9181 456.267L39.2154 456.263L38.5185 456.257L37.8274 456.252L37.1421 456.247L36.4626 456.242L35.7887 456.236L35.1208 456.232L34.4585 456.227L33.8022 456.222L33.1515 456.217L32.5067 456.213L31.8678 456.207L31.2345 456.203L30.6071 456.198L29.9855 456.194L29.3697 456.189L28.7598 456.185L28.1557 456.18L27.5574 456.176L26.965 456.171L26.3783 456.167L25.7975 456.162L25.2226 456.159L24.6536 456.154L24.0903 456.15L23.5329 456.146L22.9814 456.141L22.4357 456.138L21.8959 456.133L21.362 456.13L20.8339 456.126L20.3118 456.122L19.7954 456.118L19.2851 456.114L18.7805 456.111L18.2819 456.107L17.7891 456.103L17.3023 456.1L16.8213 456.096L16.3463 456.093L15.8771 456.089L15.414 456.085L14.9567 456.082L14.5052 456.079L14.0598 456.075L13.6203 456.072L13.1866 456.069L12.759 456.065L12.3373 456.063L11.9215 456.059L11.5116 456.056L11.1078 456.054L10.7099 456.05L10.3179 456.047L9.93186 456.045L9.55188 456.042L9.17779 456.039L8.80966 456.036L8.44749 456.034L8.09139 456.031L7.74117 456.028L7.39701 456.026L7.05881 456.023L6.72659 456.021L6.40042 456.018L6.08025 456.016L5.76603 456.014L5.45786 456.011L5.15566 456.009L4.85953 456.007L4.56936 456.005L4.28524 456.003L4.0071 456L3.73511 455.999L3.469 455.997L3.20913 455.995L2.95505 455.993L2.70722 455.991L2.46535 455.989L2.22953 455.988L1.99979 455.986L1.77611 455.984L1.55847 455.982L1.3469 455.98L1.14141 455.979L0.942042 455.978L0.748758 455.977L0.561424 455.975L0.380251 455.973L0.20524 455.972L0.0361798 455.971L-0.126618 455.97L-0.283457 455.969L-0.434143 455.968L-0.578686 455.967L-0.717242 455.965L-0.849573 455.964L-0.975741 455.963L-1.09593 455.962L-1.20989 455.961H-1.31778L-1.41944 455.96L-1.51503 455.96L-1.60447 455.959L-1.68784 455.958H-1.76498L-1.83596 455.957H-1.90079L-1.95946 455.956H-2.01208L-2.05836 455.955H-2.09858H-2.13256H-2.16048L-2.18205 455.954H-2.19757H-2.20685ZM-2.21685 699.31C-2.80803 698.618 -2.80674 698.617 -2.80436 698.615L-2.79453 698.607L-2.75624 698.575L-2.74724 698.567L-2.66634 698.501L-2.60546 698.451L-2.49288 698.359L-2.36497 698.255C-2.2635 698.173 -2.1445 698.077 -2.00813 697.966C-1.47885 697.539 -0.687583 696.907 0.363181 696.083C2.46443 694.434 5.60332 692.019 9.75987 688.946C18.0729 682.8 30.4564 674.025 46.7503 663.498C79.3378 642.441 127.568 614.374 190.159 586.308C315.343 530.175 497.976 474.048 727.799 474.048V475.857C498.285 475.857 315.91 531.908 190.921 587.954C128.425 615.978 80.2766 643.999 47.7574 665.01C31.498 675.516 19.1461 684.269 10.8621 690.393C6.72007 693.455 3.59508 695.86 1.50705 697.498C0.463079 698.317 -0.321656 698.944 -0.844605 699.366C-1.10612 699.578 -1.30218 699.737 -1.43239 699.844C-1.48473 699.886 -1.52642 699.92 -1.55746 699.946L-1.57849 699.963L-1.61448 699.993L-1.6232 700C-1.6232 700 -1.62448 700.001 -1.66856 699.95C-1.72953 699.88 -1.87379 699.711 -2.21685 699.31ZM-2.6095 597.169C-2.61189 597.17 -2.61317 597.171 -2.21685 597.987C-1.82062 598.803 -1.81989 598.803 -1.81805 598.802L-1.80934 598.798L-1.77325 598.781L-1.62696 598.713C-1.49657 598.652 -1.30044 598.561 -1.03883 598.441C-0.824045 598.343 -0.565188 598.225 -0.262346 598.087C-0.0773168 598.003 0.124149 597.912 0.34196 597.814C0.636078 597.682 0.96004 597.536 1.31385 597.379C3.40252 596.447 6.52833 595.079 10.6713 593.338C18.9572 589.856 31.3119 584.878 47.5747 578.904C80.1004 566.955 128.26 551.02 190.77 535.084C315.791 503.211 498.217 471.334 727.799 471.334V469.524C498.044 469.524 315.462 501.425 190.31 533.332C127.733 549.285 79.5139 565.24 46.9331 577.209C30.6426 583.193 18.2618 588.18 9.95059 591.674C5.79514 593.42 2.65708 594.793 0.556382 595.731C-0.493922 596.198 -1.28492 596.559 -1.81402 596.801C-1.96287 596.87 -2.09096 596.929 -2.19831 596.978C-2.28178 597.016 -2.35257 597.05 -2.41088 597.077L-2.56148 597.147L-2.59968 597.165L-2.6095 597.169ZM-2.21685 516.567C-2.38829 515.678 -2.3871 515.678 -2.3849 515.678L-2.37535 515.676L-2.3377 515.669L-2.18811 515.641C-2.05551 515.617 -1.85718 515.58 -1.59336 515.532C-1.06573 515.436 -0.276203 515.293 0.772633 515.108C2.87021 514.736 6.00532 514.191 10.1576 513.498C18.4622 512.112 30.8363 510.132 47.1193 507.756C79.6855 503.005 127.889 496.671 190.446 490.336C315.561 477.668 498.097 465.001 727.799 465.001V466.81C498.165 466.81 315.693 479.474 190.634 492.136C128.104 498.467 79.9289 504.798 47.3884 509.546C31.1182 511.92 18.7568 513.898 10.4644 515.282C6.31814 515.974 3.18921 516.518 1.0976 516.888C0.465925 517 -0.0711555 517.096 -0.513113 517.176C-0.802824 517.228 -1.05168 517.273 -1.25939 517.311C-1.52174 517.359 -1.7186 517.396 -1.84982 517.419L-1.99711 517.447L-2.03367 517.453L-2.04267 517.455C-2.04459 517.455 -2.0455 517.456 -2.21685 516.567Z" fill="url(#paint0_linear_5231_21916)"/>
<defs>
<linearGradient id="paint0_linear_5231_21916" x1="716.781" y1="341.048" x2="11.1718" y2="341.048" gradientUnits="userSpaceOnUse">
<stop offset="0.127609" stop-color="#DD1D63"/>
<stop offset="0.563305" stop-color="#DD1D63"/>
<stop offset="0.943305" stop-color="#FD28A8" stop-opacity="0"/>
</linearGradient>
</defs>
</svg>
