<svg width="731" height="700" viewBox="0 0 731 700" fill="none" xmlns="http://www.w3.org/2000/svg">
<path fill-rule="evenodd" clip-rule="evenodd" d="M731 0.936005C731.002 0.932386 731.003 0.929672 730.217 0.462866C729.43 -0.00394243 729.43 -0.00303961 729.428 0.000579065L729.419 0.0150601L729.382 0.0738653C729.35 0.127241 729.301 0.206838 729.235 0.311779C729.104 0.523476 728.908 0.838309 728.646 1.25536C728.121 2.08946 727.336 3.32795 726.29 4.94549C724.2 8.17877 721.073 12.9237 716.928 18.9651C708.639 31.0469 696.283 48.3116 680.02 69.0321C647.492 110.473 599.34 165.728 536.847 220.981C411.852 331.495 229.557 441.941 0.200989 441.941V443.75C230.181 443.75 412.895 333.004 538.074 222.327C600.667 166.985 648.894 111.645 681.472 70.1385C697.762 49.3855 710.142 32.0891 718.45 19.9783C722.604 13.9225 725.74 9.16394 727.839 5.91711C728.889 4.29414 729.679 3.0484 730.207 2.20797C730.471 1.7882 730.67 1.46977 730.803 1.25536C730.869 1.14771 730.919 1.06718 730.952 1.0129L730.99 0.951384L731 0.936005ZM730.912 134.04C730.915 134.037 730.916 134.036 730.217 133.449C729.518 132.863 729.517 132.864 729.515 132.866L729.506 132.876L729.47 132.917L729.407 132.99L729.324 133.085C729.268 133.149 729.2 133.226 729.121 133.316L728.993 133.461C728.916 133.549 728.83 133.645 728.735 133.751C728.212 134.34 727.427 135.216 726.382 136.359C724.294 138.645 721.168 142.002 717.025 146.275C708.739 154.82 696.386 167.033 680.126 181.69C647.605 211.006 599.459 250.1 536.968 289.193C411.986 367.381 229.651 445.559 0.200989 445.559V447.369C230.088 447.369 412.761 369.04 537.953 290.72C600.548 251.561 648.78 212.399 681.366 183.025C697.659 168.338 710.042 156.097 718.353 147.524C722.509 143.238 725.647 139.869 727.747 137.57C728.798 136.42 729.588 135.538 730.117 134.943C730.382 134.645 730.581 134.419 730.714 134.267C730.781 134.191 730.831 134.134 730.864 134.095L730.903 134.052L730.912 134.04ZM730.217 225.725C730.808 226.417 730.807 226.419 730.804 226.421L730.795 226.429L730.756 226.461L730.657 226.542L730.605 226.584C730.472 226.693 730.273 226.855 730.008 227.069C729.479 227.496 728.688 228.128 727.637 228.953C725.536 230.601 722.397 233.017 718.24 236.089C709.927 242.234 697.544 251.01 681.25 261.537C648.662 282.594 600.432 310.662 537.841 338.727C412.657 394.86 230.024 450.987 0.200989 450.987V449.178C229.715 449.178 412.09 393.127 537.079 337.081C599.575 309.058 647.723 281.036 680.243 260.025C696.502 249.519 708.854 240.766 717.138 234.643C721.28 231.58 724.405 229.176 726.493 227.537C727.537 226.719 728.322 226.091 728.845 225.669C728.957 225.579 729.057 225.497 729.145 225.426C729.262 225.331 729.358 225.253 729.432 225.191C729.498 225.139 729.546 225.098 729.578 225.072L729.614 225.042L729.623 225.035C729.623 225.035 729.624 225.034 729.642 225.055C729.651 225.065 729.664 225.079 729.682 225.101C729.717 225.141 729.771 225.204 729.859 225.306L730.217 225.725ZM730.61 326.961V326.959C730.61 326.959 730.607 326.954 730.604 326.946C730.597 326.93 730.583 326.9 730.552 326.836C730.5 326.728 730.402 326.524 730.217 326.143C730.038 325.774 729.94 325.572 729.885 325.462C729.86 325.411 729.844 325.379 729.835 325.359C729.825 325.34 729.821 325.333 729.82 325.33C729.819 325.328 729.818 325.328 729.818 325.328L729.809 325.333L729.773 325.35L729.627 325.418C729.497 325.478 729.3 325.569 729.039 325.689C728.516 325.929 727.73 326.286 726.686 326.752C724.597 327.683 721.472 329.051 717.329 330.792C709.043 334.275 696.688 339.253 680.425 345.226C647.9 357.175 599.74 373.11 537.23 389.047C412.209 420.919 229.783 452.797 0.200989 452.797V454.606C229.956 454.606 412.538 422.705 537.69 390.798C600.267 374.845 648.486 358.89 681.067 346.922C697.357 340.937 709.738 335.95 718.049 332.457C722.205 330.71 725.343 329.337 727.444 328.4C728.494 327.932 729.285 327.572 729.814 327.329C730.078 327.208 730.278 327.116 730.411 327.054L730.561 326.984L730.6 326.966L730.61 326.961ZM730.217 406.659C730.342 407.306 730.375 407.482 730.383 407.53C730.386 407.548 730.385 407.548 730.385 407.548L730.375 407.55L730.338 407.557L730.188 407.585C730.056 407.61 729.857 407.646 729.593 407.694L729.346 407.739L729.042 407.794C728.874 407.824 728.69 407.857 728.491 407.893C728.123 407.959 727.702 408.034 727.227 408.118C725.13 408.49 721.995 409.034 717.842 409.727C709.538 411.114 697.164 413.094 680.881 415.469C648.314 420.221 600.111 426.555 537.554 432.89C412.439 445.558 229.903 458.225 0.200989 458.225V456.415C229.835 456.415 412.307 443.752 537.366 431.089C599.896 424.758 648.071 418.428 680.612 413.68C696.882 411.306 709.243 409.328 717.536 407.943C721.682 407.251 724.811 406.708 726.902 406.338C727.948 406.152 728.735 406.01 729.259 405.914C729.522 405.867 729.719 405.831 729.85 405.807L729.997 405.779L730.034 405.772L730.043 405.77C730.043 405.77 730.044 405.77 730.047 405.788C730.051 405.805 730.058 405.837 730.07 405.902L730.098 406.044C730.124 406.176 730.161 406.371 730.217 406.659ZM730.207 455.511C730.209 455.511 730.21 455.511 730.217 456.415C730.224 457.32 730.223 457.32 730.221 457.32H730.211H730.196L730.174 457.321H730.146H730.112H730.072L730.026 457.322H729.973L729.915 457.323H729.85L729.779 457.324H729.702L729.618 457.325L729.529 457.326L729.433 457.326H729.332L729.224 457.327L729.11 457.328L728.99 457.329L728.863 457.33L728.731 457.331L728.593 457.333L728.448 457.334L728.297 457.335L728.141 457.336L727.978 457.337L727.809 457.338L727.634 457.339L727.452 457.341L727.265 457.342L727.072 457.344L726.872 457.345L726.667 457.346L726.455 457.348L726.238 457.35L726.014 457.352L725.784 457.354L725.549 457.355L725.307 457.357L725.059 457.359L724.805 457.361L724.545 457.363L724.279 457.364L724.007 457.366L723.729 457.368L723.445 457.371L723.154 457.373L722.858 457.375L722.556 457.377L722.248 457.38L721.934 457.382L721.613 457.384L721.287 457.387L720.955 457.389L720.617 457.392L720.273 457.394L719.922 457.397L719.566 457.4L719.204 457.402L718.836 457.405L718.462 457.408L718.082 457.411L717.696 457.413L717.304 457.416L716.906 457.42L716.502 457.422L716.092 457.425L715.677 457.429L715.255 457.431L714.827 457.435L714.394 457.438L713.954 457.441L713.509 457.445L713.057 457.448L712.6 457.451L712.137 457.455L711.668 457.459L711.192 457.462L710.712 457.465L710.225 457.469L709.732 457.473L709.233 457.477L708.729 457.48L708.218 457.484L707.702 457.487L707.18 457.492L706.652 457.496L706.118 457.499L705.578 457.504L705.032 457.507L704.481 457.512L703.924 457.516L703.36 457.52L702.791 457.525L702.216 457.528L701.635 457.533L701.049 457.537L700.456 457.542L699.858 457.546L699.254 457.551L698.644 457.555L698.028 457.56L697.407 457.564L696.779 457.569L696.146 457.573L695.507 457.578L694.862 457.583L694.212 457.588L693.555 457.593L692.893 457.598L692.225 457.602L691.551 457.608L690.872 457.613L690.186 457.618L689.495 457.623L688.798 457.629L688.096 457.633L687.387 457.639L686.673 457.644L685.953 457.649L685.228 457.655L684.496 457.66L683.759 457.666L683.016 457.671L682.268 457.677L681.513 457.682L680.753 457.688L679.987 457.694L679.216 457.699L678.438 457.706L677.655 457.711L676.867 457.717L676.072 457.723L675.272 457.729L674.466 457.734L673.655 457.741L672.838 457.747L672.015 457.753L671.186 457.759L670.352 457.765L669.512 457.772L668.666 457.778L667.815 457.784L666.958 457.791L666.096 457.797L665.227 457.803L664.353 457.81L663.474 457.817L662.589 457.823L661.698 457.829L660.801 457.837L659.899 457.843L658.991 457.85L658.078 457.857L657.159 457.864L656.234 457.87L655.304 457.877L654.368 457.885L653.426 457.891L652.479 457.898L651.527 457.905L650.568 457.913L649.604 457.92L648.635 457.927L647.66 457.934L646.679 457.942L645.693 457.949L644.701 457.956L643.703 457.963L642.7 457.971L641.692 457.979L640.678 457.986L639.658 457.993L638.632 458.001L637.602 458.009L636.565 458.017L635.523 458.024L634.476 458.032L633.423 458.04L632.364 458.047L631.3 458.056L630.231 458.064L629.156 458.072L628.075 458.08L626.989 458.088L625.897 458.096L624.8 458.104L623.698 458.113L622.589 458.121L621.476 458.129L620.356 458.137L619.231 458.145L618.102 458.154L616.966 458.162L615.825 458.171L614.678 458.18L613.526 458.188L612.368 458.197L611.206 458.205L610.037 458.214L608.863 458.223L607.683 458.231L606.499 458.24L605.309 458.249L604.113 458.258L602.912 458.267L601.705 458.275L600.493 458.285L599.276 458.294L598.053 458.303L596.825 458.313L595.591 458.322L594.352 458.331L593.107 458.34L591.857 458.349L590.602 458.359L589.341 458.368L588.075 458.377L586.803 458.387L585.527 458.396L584.244 458.406L582.956 458.416L581.664 458.425L580.365 458.435L579.061 458.445L577.752 458.454L576.437 458.464L575.117 458.474L573.792 458.484L572.462 458.493L571.126 458.503L569.784 458.513L568.438 458.523L567.085 458.533L565.728 458.543L564.365 458.553L562.997 458.564L561.624 458.574L560.245 458.584L558.861 458.595L557.472 458.605L556.078 458.615L554.678 458.626L553.273 458.636L551.862 458.646L550.446 458.657L549.026 458.667L547.599 458.678L546.167 458.689L544.73 458.7L543.289 458.711L541.841 458.721L540.389 458.731L538.931 458.742L537.467 458.753L535.999 458.764L534.525 458.776L533.045 458.787L531.562 458.797L530.072 458.808L528.577 458.819L527.078 458.831L525.573 458.842L524.062 458.854L522.546 458.864L521.025 458.876L519.499 458.887L517.968 458.899L516.431 458.91L514.89 458.921L513.343 458.933L511.79 458.944L510.234 458.956L508.671 458.968L507.104 458.979L505.531 458.991L503.952 459.003L502.369 459.015L500.781 459.026L499.187 459.038L497.589 459.05L495.985 459.062L494.376 459.074L492.761 459.086L491.143 459.098L489.518 459.11L487.888 459.122L486.254 459.134L484.614 459.147L482.968 459.158L481.318 459.171L479.663 459.183L478.002 459.196L476.337 459.208L474.666 459.221L472.99 459.233L471.31 459.245L469.624 459.258L467.933 459.271L466.237 459.283L464.535 459.296L462.829 459.309L461.117 459.321L459.401 459.334L457.679 459.347L455.953 459.359L454.221 459.373L452.485 459.385L450.743 459.398L448.995 459.412L447.243 459.424L445.487 459.437L443.725 459.451L441.958 459.463L440.186 459.477L438.408 459.49L436.626 459.503L434.839 459.517L433.046 459.53L431.249 459.543L429.447 459.556L427.639 459.57L425.827 459.584L424.01 459.597L422.188 459.611L420.36 459.624L418.528 459.638L416.69 459.651L414.848 459.665L413.001 459.679L411.148 459.693L409.292 459.707L407.429 459.72L405.562 459.735L403.689 459.748L401.812 459.762L399.93 459.776L398.043 459.79L396.151 459.804L394.254 459.818L392.353 459.832L390.445 459.847L388.534 459.86L386.617 459.875L384.695 459.889L382.769 459.904L380.838 459.918L378.901 459.933L376.96 459.947L375.013 459.962L373.062 459.976L371.106 459.991L369.145 460.005L367.179 460.02L365.209 460.034L363.233 460.049L361.252 460.064L359.267 460.078L357.277 460.093L355.282 460.108L353.282 460.123L351.277 460.138L349.267 460.153L347.252 460.168L345.233 460.183L343.208 460.198L341.179 460.213L339.145 460.228L337.106 460.243L335.062 460.258L333.014 460.274L330.961 460.289L328.903 460.305L326.839 460.32L324.771 460.335L322.699 460.351L320.621 460.366L318.539 460.382L316.452 460.397L314.36 460.412L312.263 460.428L310.162 460.444L308.055 460.459L305.944 460.475L303.829 460.491L301.708 460.506L299.583 460.523L297.452 460.538L295.317 460.554L293.178 460.57L291.033 460.586L288.884 460.602L286.73 460.618L284.571 460.634L282.408 460.65L280.24 460.667L278.067 460.682L275.889 460.698L273.706 460.714L271.519 460.731L269.327 460.747L267.131 460.763L264.93 460.78L262.724 460.796L260.513 460.813L258.297 460.829L256.077 460.846L253.853 460.862L251.622 460.879L249.388 460.895L247.149 460.913L244.906 460.929L242.657 460.945L240.405 460.962L238.147 460.979L235.884 460.996L233.618 461.013L231.346 461.029L229.07 461.046L226.789 461.064L224.503 461.081L222.213 461.097L219.917 461.114L217.618 461.132L215.314 461.149L213.005 461.166L210.692 461.183L208.374 461.2L206.051 461.217L203.724 461.235L201.391 461.253L199.055 461.27L196.714 461.287L194.368 461.304L192.018 461.322L189.663 461.34L187.304 461.357L184.939 461.375L182.57 461.392L180.197 461.41L177.819 461.427L175.437 461.445L173.049 461.464L170.658 461.481L168.262 461.499L165.861 461.517L163.455 461.534L161.046 461.552L158.632 461.57L156.212 461.588L153.789 461.606L151.361 461.625L148.929 461.643L146.492 461.661L144.05 461.679L141.604 461.697L139.153 461.715L136.698 461.733L134.238 461.752L131.774 461.77L129.305 461.788L126.833 461.806L124.354 461.825L121.872 461.843L119.385 461.862L116.894 461.881L114.399 461.9L111.899 461.918L109.394 461.937L106.885 461.955L104.372 461.974L101.853 461.993L99.3306 462.011L96.8046 462.03L94.2729 462.049L91.7367 462.068L89.1968 462.087L86.6523 462.106L84.1033 462.125L81.5496 462.144L78.9913 462.163L76.4284 462.182L73.8619 462.201L71.2908 462.22L68.715 462.239L66.1347 462.258L63.5498 462.278L60.9612 462.297L58.3682 462.316L55.7704 462.335L53.168 462.355L50.562 462.374L47.9504 462.394L45.3352 462.413L42.7155 462.432L40.092 462.451L37.463 462.471L34.8303 462.491L32.1932 462.51L29.5522 462.53L26.9058 462.55L24.2557 462.569L21.601 462.589L18.9417 462.609L16.2788 462.629L13.6113 462.649L10.9391 462.669L8.26331 462.688L5.58197 462.708L2.89697 462.728L0.208313 462.748L0.19458 460.939L2.88324 460.919L5.56824 460.899L8.24957 460.879L10.9254 460.859L13.5975 460.839L16.2651 460.819L18.9279 460.799L21.5872 460.78L24.242 460.761L26.892 460.741L29.5375 460.721L32.1794 460.701L34.8167 460.682L37.4493 460.662L40.0782 460.642L42.7017 460.623L45.3215 460.603L47.9366 460.584L50.5482 460.564L53.1542 460.545L55.7565 460.526L58.3543 460.506L60.9475 460.487L63.5361 460.468L66.121 460.448L68.7013 460.43L71.277 460.41L73.8481 460.391L76.4146 460.372L78.9775 460.353L81.5358 460.335L84.0894 460.315L86.6385 460.297L89.183 460.277L91.7229 460.258L94.2592 460.24L96.7908 460.22L99.317 460.202L101.839 460.183L104.357 460.164L106.871 460.145L109.38 460.127L111.885 460.108L114.385 460.09L116.88 460.071L119.372 460.053L121.858 460.034L124.34 460.016L126.819 459.997L129.292 459.979L131.76 459.961L134.225 459.943L136.685 459.924L139.139 459.906L141.59 459.888L144.036 459.869L146.478 459.851L148.915 459.833L151.347 459.815L153.775 459.797L156.198 459.779L158.618 459.761L161.032 459.743L163.442 459.725L165.848 459.708L168.248 459.689L170.645 459.671L173.036 459.654L175.423 459.636L177.805 459.618L180.183 459.601L182.556 459.583L184.925 459.566L187.289 459.547L189.649 459.53L192.004 459.513L194.354 459.495L196.7 459.478L199.041 459.461L201.378 459.443L203.709 459.425L206.037 459.408L208.359 459.391L210.678 459.374L212.991 459.357L215.3 459.339L217.604 459.322L219.904 459.305L222.198 459.289L224.489 459.272L226.775 459.254L229.056 459.237L231.332 459.22L233.603 459.204L235.87 459.186L238.133 459.17L240.391 459.153L242.643 459.136L244.892 459.12L247.135 459.103L249.374 459.086L251.608 459.07L253.838 459.053L256.063 459.036L258.283 459.02L260.499 459.004L262.709 458.987L264.916 458.97L267.117 458.954L269.313 458.938L271.505 458.921L273.692 458.905L275.875 458.889L278.052 458.873L280.226 458.857L282.394 458.841L284.557 458.825L286.716 458.808L288.87 458.793L291.019 458.777L293.164 458.76L295.304 458.745L297.439 458.729L299.569 458.713L301.694 458.697L303.815 458.682L305.931 458.665L308.042 458.65L310.148 458.635L312.249 458.618L314.346 458.603L316.438 458.588L318.525 458.572L320.607 458.557L322.685 458.541L324.758 458.526L326.826 458.511L328.889 458.495L330.947 458.48L333 458.465L335.049 458.449L337.093 458.434L339.131 458.418L341.165 458.404L343.194 458.389L345.219 458.373L347.239 458.359L349.253 458.343L351.262 458.329L353.268 458.313L355.268 458.299L357.263 458.284L359.253 458.269L361.238 458.255L363.219 458.239L365.195 458.225L367.166 458.21L369.132 458.196L371.092 458.181L373.048 458.167L374.999 458.152L376.946 458.138L378.887 458.123L380.824 458.109L382.755 458.095L384.681 458.08L386.603 458.066L388.52 458.052L390.432 458.038L392.339 458.023L394.241 458.009L396.138 457.995L398.029 457.981L399.916 457.967L401.799 457.953L403.676 457.939L405.548 457.925L407.415 457.911L409.277 457.897L411.135 457.884L412.987 457.869L414.834 457.856L416.676 457.842L418.514 457.829L420.347 457.815L422.174 457.801L423.996 457.788L425.813 457.774L427.626 457.761L429.433 457.747L431.235 457.734L433.032 457.721L434.825 457.707L436.612 457.694L438.394 457.681L440.172 457.668L441.944 457.654L443.711 457.641L445.473 457.628L447.23 457.615L448.982 457.602L450.729 457.589L452.471 457.576L454.207 457.564L455.939 457.55L457.666 457.537L459.387 457.525L461.104 457.512L462.815 457.499L464.521 457.487L466.223 457.474L467.919 457.461L469.61 457.449L471.296 457.436L472.977 457.423L474.652 457.412L476.323 457.399L477.988 457.386L479.649 457.374L481.304 457.362L482.954 457.349L484.6 457.337L486.24 457.325L487.874 457.313L489.503 457.301L491.129 457.288L492.748 457.277L494.362 457.265L495.971 457.252L497.575 457.241L499.174 457.229L500.767 457.217L502.355 457.205L503.938 457.193L505.517 457.182L507.09 457.17L508.657 457.158L510.219 457.146L511.777 457.135L513.329 457.124L514.876 457.112L516.418 457.1L517.954 457.089L519.486 457.078L521.012 457.067L522.532 457.055L524.048 457.044L525.559 457.032L527.064 457.022L528.563 457.011L530.058 456.999L531.548 456.988L533.032 456.977L534.511 456.966L535.985 456.956L537.453 456.944L538.917 456.933L540.374 456.922L541.827 456.911L543.275 456.901L544.716 456.89L546.154 456.88L547.585 456.869L549.011 456.858L550.433 456.848L551.849 456.837L553.259 456.827L554.664 456.816L556.064 456.805L557.458 456.795L558.848 456.785L560.231 456.775L561.611 456.765L562.983 456.755L564.352 456.744L565.714 456.734L567.072 456.724L568.423 456.714L569.77 456.704L571.112 456.694L572.448 456.684L573.778 456.674L575.104 456.664L576.423 456.654L577.738 456.644L579.047 456.635L580.351 456.625L581.65 456.615L582.943 456.606L584.23 456.596L585.513 456.586L586.789 456.577L588.061 456.568L589.327 456.558L590.588 456.549L591.843 456.539L593.093 456.53L594.337 456.521L595.577 456.512L596.81 456.503L598.039 456.493L599.262 456.484L600.48 456.475L601.692 456.466L602.898 456.458L604.099 456.449L605.295 456.44L606.485 456.431L607.67 456.422L608.85 456.414L610.023 456.405L611.192 456.396L612.355 456.387L613.512 456.378L614.664 456.37L615.811 456.361L616.952 456.353L618.087 456.345L619.218 456.336L620.342 456.328L621.462 456.32L622.576 456.311L623.683 456.303L624.786 456.295L625.883 456.287L626.975 456.279L628.061 456.271L629.142 456.263L630.217 456.254L631.286 456.246L632.351 456.238L633.409 456.231L634.463 456.223L635.509 456.216L636.552 456.207L637.588 456.199L638.619 456.192L639.644 456.185L640.664 456.177L641.678 456.169L642.686 456.162L643.689 456.154L644.687 456.147L645.679 456.14L646.665 456.132L647.646 456.125L648.621 456.118L649.59 456.111L650.554 456.103L651.513 456.096L652.465 456.089L653.413 456.082L654.354 456.075L655.29 456.068L656.22 456.061L657.145 456.055L658.064 456.047L658.977 456.041L659.885 456.034L660.787 456.027L661.684 456.02L662.575 456.014L663.46 456.007L664.34 456.001L665.213 455.994L666.082 455.988L666.944 455.981L667.801 455.975L668.653 455.969L669.498 455.962L670.338 455.956L671.172 455.95L672.001 455.944L672.824 455.938L673.641 455.931L674.453 455.925L675.258 455.92L676.058 455.913L676.853 455.908L677.642 455.902L678.425 455.896L679.202 455.89L679.973 455.884L680.739 455.879L681.499 455.874L682.254 455.867L683.002 455.862L683.745 455.856L684.482 455.851L685.214 455.846L685.939 455.84L686.659 455.835L687.374 455.829L688.082 455.824L688.785 455.819L689.481 455.814L690.173 455.808L690.858 455.804L691.537 455.798L692.211 455.793L692.879 455.789L693.541 455.784L694.198 455.779L694.848 455.774L695.493 455.77L696.132 455.764L696.765 455.76L697.393 455.755L698.014 455.751L698.63 455.746L699.24 455.741L699.844 455.737L700.443 455.732L701.035 455.728L701.622 455.723L702.202 455.719L702.777 455.715L703.346 455.711L703.91 455.706L704.467 455.703L705.019 455.698L705.564 455.694L706.104 455.69L706.638 455.686L707.166 455.683L707.688 455.678L708.205 455.675L708.715 455.671L709.22 455.667L709.718 455.664L710.211 455.66L710.698 455.656L711.179 455.653L711.654 455.649L712.123 455.646L712.586 455.642L713.043 455.638L713.495 455.636L713.94 455.632L714.38 455.628L714.813 455.626L715.241 455.622L715.663 455.619L716.078 455.616L716.488 455.613L716.892 455.61L717.29 455.607L717.682 455.604L718.068 455.601L718.448 455.599L718.822 455.596L719.19 455.593L719.553 455.59L719.909 455.588L720.259 455.585L720.603 455.582L720.941 455.58L721.273 455.578L721.6 455.575L721.92 455.572L722.234 455.571L722.542 455.568L722.844 455.566L723.14 455.563L723.431 455.561L723.715 455.56L723.993 455.557L724.265 455.555L724.531 455.553L724.791 455.552L725.045 455.55L725.293 455.548L725.535 455.546L725.77 455.544L726 455.542L726.224 455.541L726.442 455.539L726.653 455.537L726.859 455.536L727.058 455.534L727.251 455.533L727.439 455.532L727.62 455.53L727.795 455.529L727.964 455.528L728.127 455.526L728.283 455.525L728.434 455.524L728.579 455.523L728.717 455.522L728.85 455.521L728.976 455.52L729.096 455.519L729.21 455.518H729.318L729.419 455.517L729.515 455.516L729.604 455.515L729.688 455.514H729.765L729.836 455.514H729.901L729.959 455.513H730.012L730.058 455.512H730.099H730.133H730.16L730.182 455.511H730.198H730.207ZM730.217 698.866C730.808 698.174 730.807 698.173 730.804 698.172L730.795 698.164L730.756 698.132L730.747 698.124L730.666 698.058L730.605 698.008L730.493 697.916L730.365 697.812C730.264 697.729 730.144 697.633 730.008 697.523C729.479 697.096 728.688 696.464 727.637 695.639C725.536 693.99 722.397 691.576 718.24 688.503C709.927 682.357 697.544 673.582 681.25 663.054C648.662 641.998 600.432 613.931 537.841 585.864C412.657 529.732 230.024 473.604 0.200989 473.604V475.414C229.715 475.414 412.09 531.465 537.079 587.511C599.575 615.535 647.723 643.556 680.243 664.567C696.502 675.073 708.854 683.825 717.138 689.95C721.28 693.011 724.405 695.417 726.493 697.054C727.537 697.874 728.322 698.501 728.845 698.922C729.106 699.134 729.302 699.293 729.432 699.4C729.485 699.443 729.526 699.477 729.557 699.502L729.578 699.52L729.614 699.549L729.623 699.557C729.623 699.557 729.624 699.558 729.669 699.507C729.73 699.436 729.874 699.268 730.217 698.866ZM730.61 596.726C730.612 596.727 730.613 596.728 730.217 597.544C729.821 598.36 729.82 598.36 729.818 598.359L729.809 598.354L729.773 598.338L729.627 598.269C729.497 598.209 729.3 598.118 729.039 597.998C728.824 597.899 728.565 597.782 728.262 597.644C728.077 597.56 727.876 597.469 727.658 597.371C727.364 597.239 727.04 597.093 726.686 596.936C724.597 596.004 721.472 594.636 717.329 592.895C709.043 589.413 696.688 584.435 680.425 578.461C647.9 566.512 599.74 550.577 537.23 534.64C412.209 502.768 229.783 470.89 0.200989 470.89V469.081C229.956 469.081 412.538 500.982 537.69 532.889C600.267 548.842 648.486 564.796 681.067 576.765C697.357 582.75 709.738 587.737 718.049 591.231C722.205 592.977 725.343 594.35 727.444 595.287C728.494 595.755 729.285 596.115 729.814 596.358C729.963 596.426 730.091 596.485 730.198 596.535C730.282 596.573 730.353 596.606 730.411 596.634L730.561 596.703L730.6 596.721L730.61 596.726ZM730.217 516.123C730.388 515.235 730.387 515.234 730.385 515.234L730.375 515.232L730.338 515.225L730.188 515.198C730.056 515.174 729.857 515.137 729.593 515.089C729.066 514.993 728.276 514.85 727.227 514.664C725.13 514.293 721.995 513.748 717.842 513.055C709.538 511.669 697.164 509.689 680.881 507.313C648.314 502.562 600.111 496.227 537.554 489.893C412.439 477.225 229.903 464.557 0.200989 464.557V466.367C229.835 466.367 412.307 479.03 537.366 491.693C599.896 498.024 648.071 504.355 680.612 509.102C696.882 511.476 709.243 513.455 717.536 514.839C721.682 515.531 724.811 516.075 726.902 516.445C727.534 516.557 728.071 516.653 728.513 516.732C728.803 516.785 729.052 516.83 729.259 516.868C729.522 516.916 729.719 516.952 729.85 516.976L729.997 517.004L730.034 517.01L730.043 517.012C730.043 517.012 730.046 517.013 730.217 516.123Z" fill="url(#paint0_linear_5231_21915)"/>
<defs>
<linearGradient id="paint0_linear_5231_21915" x1="11.2191" y1="340.604" x2="715" y2="341" gradientUnits="userSpaceOnUse">
<stop offset="0.127609" stop-color="#DD1D63"/>
<stop offset="0.563305" stop-color="#DD1D63"/>
<stop offset="0.943305" stop-color="#FD28A8" stop-opacity="0"/>
</linearGradient>
</defs>
</svg>
