<svg width="583" height="216" viewBox="0 0 583 216" fill="none" xmlns="http://www.w3.org/2000/svg">
<path fill-rule="evenodd" clip-rule="evenodd" d="M582.515 -264.243C582.517 -264.246 582.518 -264.248 581.891 -264.626C581.264 -265.003 581.264 -265.002 581.262 -265L581.255 -264.988L581.226 -264.94C581.2 -264.897 581.161 -264.833 581.109 -264.748C581.005 -264.577 580.848 -264.322 580.639 -263.985C580.221 -263.311 579.595 -262.309 578.762 -261.001C577.095 -258.387 574.603 -254.55 571.299 -249.665C564.692 -239.896 554.843 -225.937 541.88 -209.183C515.952 -175.674 477.571 -130.997 427.758 -86.3209C328.126 3.03775 182.821 92.3408 0.00354004 92.3408V93.8038C183.318 93.8038 328.957 4.25787 428.736 -85.2325C478.629 -129.981 517.07 -174.727 543.038 -208.288C556.022 -225.068 565.89 -239.054 572.512 -248.846C575.823 -253.743 578.323 -257.59 579.996 -260.216C580.833 -261.528 581.463 -262.535 581.884 -263.215C582.094 -263.554 582.252 -263.812 582.358 -263.985C582.411 -264.072 582.451 -264.137 582.478 -264.181L582.508 -264.231L582.515 -264.243ZM582.446 -156.619C582.448 -156.621 582.449 -156.622 581.891 -157.097C581.334 -157.571 581.334 -157.57 581.332 -157.569L581.325 -157.561L581.296 -157.527L581.246 -157.468L581.18 -157.392C581.135 -157.34 581.081 -157.278 581.018 -157.204L580.916 -157.087C580.854 -157.016 580.786 -156.938 580.711 -156.853C580.293 -156.376 579.667 -155.668 578.835 -154.744C577.17 -152.895 574.678 -150.181 571.376 -146.727C564.772 -139.817 554.925 -129.942 541.965 -118.09C516.043 -94.3863 477.665 -62.7765 427.855 -31.1667C328.233 32.0537 182.896 95.2668 0.00354004 95.2668V96.7297C183.244 96.7297 328.851 33.3952 428.64 -29.9319C478.534 -61.5951 516.979 -93.2598 542.953 -117.011C555.94 -128.887 565.81 -138.785 572.435 -145.716C575.747 -149.182 578.249 -151.906 579.923 -153.765C580.76 -154.695 581.391 -155.408 581.812 -155.889C582.023 -156.13 582.181 -156.313 582.288 -156.436C582.341 -156.497 582.381 -156.543 582.408 -156.575L582.438 -156.61L582.446 -156.619ZM581.891 -82.485C582.363 -81.9254 582.362 -81.924 582.36 -81.9225L582.352 -81.9159L582.321 -81.8903L582.242 -81.8245L582.201 -81.7908C582.095 -81.7023 581.936 -81.5714 581.725 -81.3987C581.303 -81.0535 580.672 -80.5422 579.835 -79.875C578.16 -78.5423 575.658 -76.5892 572.345 -74.1051C565.719 -69.1361 555.848 -62.0406 542.86 -53.5283C516.885 -36.5029 478.441 -13.8077 428.55 8.88525C328.768 54.2727 183.193 99.6557 0.00354004 99.6557V98.1927C182.947 98.1927 328.316 52.8711 427.944 7.55396C477.758 -15.1046 516.137 -37.7625 542.057 -54.7513C555.018 -63.2461 564.863 -70.3233 571.466 -75.2747C574.768 -77.7508 577.259 -79.6951 578.923 -81.0198C579.755 -81.6818 580.381 -82.1895 580.798 -82.5303C580.887 -82.6035 580.967 -82.6693 581.037 -82.7271C581.13 -82.8039 581.207 -82.8668 581.266 -82.9166C581.318 -82.959 581.357 -82.9919 581.383 -83.0131L581.411 -83.0373L581.418 -83.0431C581.418 -83.0431 581.419 -83.0439 581.433 -83.027C581.44 -83.019 581.45 -83.0073 581.465 -82.9897C581.493 -82.9575 581.536 -82.9063 581.606 -82.8237L581.891 -82.485ZM582.204 -0.628479C582.204 -0.628479 582.205 -0.628479 582.204 -0.629944C582.204 -0.631409 582.203 -0.634338 582.2 -0.64093C582.195 -0.653351 582.183 -0.678223 582.159 -0.729431C582.117 -0.8172 582.039 -0.981781 581.891 -1.28976C581.749 -1.5882 581.67 -1.75131 581.627 -1.84055C581.607 -1.88226 581.595 -1.90787 581.587 -1.92395C581.579 -1.9393 581.576 -1.94516 581.575 -1.94736C581.574 -1.94882 581.574 -1.94882 581.574 -1.94882L581.567 -1.94516L581.538 -1.93127L581.421 -1.8764C581.317 -1.82739 581.161 -1.75424 580.952 -1.65698C580.535 -1.46313 579.91 -1.17416 579.077 -0.797455C577.412 -0.0447388 574.921 1.06125 571.618 2.46939C565.014 5.28561 555.166 9.31024 542.203 14.1403C516.277 23.8018 477.89 36.6862 428.064 49.5721C328.411 75.3432 183.001 101.119 0.00354004 101.119V102.582C183.139 102.582 328.673 76.7871 428.43 50.9883C478.309 38.0892 516.745 25.1887 542.714 15.5111C555.699 10.6723 565.568 6.63959 572.193 3.81531C575.505 2.4028 578.006 1.29239 579.681 0.535309C580.518 0.156403 581.149 -0.134735 581.57 -0.33075C581.781 -0.428772 581.94 -0.503418 582.046 -0.553162L582.166 -0.610199L582.197 -0.624817L582.204 -0.628479ZM581.891 63.8127C581.991 64.3358 582.017 64.4784 582.024 64.5172C582.026 64.5318 582.025 64.5318 582.025 64.5318L582.018 64.5333L581.988 64.5391L581.868 64.5618C581.763 64.5815 581.605 64.6108 581.394 64.6496L581.197 64.6862L580.955 64.7308C580.821 64.7549 580.674 64.782 580.516 64.8105C580.222 64.8639 579.886 64.9246 579.509 64.9926C577.837 65.2933 575.338 65.7336 572.028 66.2939C565.408 67.4153 555.545 69.0158 542.566 70.9367C516.608 74.7785 478.186 79.9004 428.322 85.0222C328.594 95.2653 183.097 105.508 0.00354004 105.508V104.045C183.043 104.045 328.489 93.8052 428.172 83.5666C478.014 78.4476 516.414 73.3287 542.352 69.4898C555.32 67.5704 565.174 65.9714 571.783 64.8515C575.088 64.2919 577.582 63.8522 579.249 63.5531C580.083 63.4031 580.71 63.2883 581.128 63.2107C581.337 63.1727 581.494 63.1434 581.599 63.1237L581.716 63.1017L581.745 63.0959L581.753 63.0944C581.753 63.0944 581.753 63.0944 581.756 63.1083C581.759 63.1222 581.764 63.1486 581.774 63.2005L581.797 63.3161C581.817 63.4221 581.847 63.5801 581.891 63.8127ZM581.883 103.313C581.885 103.313 581.886 103.313 581.891 104.045C581.897 104.776 581.896 104.776 581.894 104.776H581.887H581.875L581.857 104.777H581.835H581.808H581.776L581.739 104.778H581.697L581.651 104.778H581.599L581.542 104.779H581.481L581.414 104.78L581.343 104.781L581.267 104.781H581.186L581.1 104.782L581.009 104.783L580.913 104.783L580.813 104.784L580.707 104.785L580.597 104.786L580.481 104.787L580.361 104.788L580.236 104.789L580.106 104.79L579.972 104.791L579.832 104.791L579.688 104.793L579.539 104.794L579.385 104.795L579.226 104.797L579.062 104.797L578.893 104.799L578.72 104.8L578.541 104.802L578.358 104.803L578.17 104.805L577.978 104.806L577.78 104.808L577.578 104.809L577.37 104.81L577.158 104.812L576.941 104.813L576.72 104.815L576.493 104.817L576.262 104.819L576.026 104.821L575.785 104.822L575.539 104.824L575.289 104.826L575.034 104.828L574.774 104.83L574.509 104.832L574.239 104.834L573.965 104.836L573.686 104.838L573.402 104.84L573.113 104.843L572.82 104.845L572.522 104.847L572.219 104.849L571.911 104.851L571.599 104.854L571.282 104.857L570.96 104.859L570.633 104.861L570.301 104.864L569.965 104.866L569.624 104.869L569.279 104.871L568.928 104.874L568.573 104.877L568.214 104.879L567.849 104.882L567.48 104.885L567.106 104.888L566.727 104.891L566.344 104.893L565.956 104.896L565.563 104.9L565.166 104.903L564.763 104.906L564.357 104.909L563.945 104.911L563.529 104.915L563.108 104.918L562.682 104.921L562.252 104.925L561.817 104.928L561.378 104.931L560.933 104.934L560.484 104.938L560.031 104.941L559.572 104.944L559.109 104.948L558.642 104.952L558.17 104.955L557.693 104.959L557.211 104.963L556.725 104.966L556.234 104.97L555.739 104.974L555.239 104.977L554.734 104.981L554.225 104.985L553.711 104.989L553.192 104.993L552.669 104.997L552.141 105.001L551.609 105.004L551.071 105.009L550.53 105.013L549.984 105.017L549.433 105.021L548.877 105.026L548.317 105.029L547.752 105.034L547.183 105.038L546.609 105.042L546.031 105.047L545.448 105.051L544.86 105.056L544.268 105.06L543.671 105.064L543.07 105.069L542.464 105.074L541.854 105.078L541.239 105.083L540.619 105.088L539.995 105.092L539.367 105.097L538.733 105.102L538.096 105.107L537.453 105.111L536.806 105.116L536.155 105.121L535.499 105.126L534.839 105.131L534.174 105.136L533.504 105.141L532.83 105.146L532.152 105.151L531.469 105.156L530.781 105.162L530.089 105.167L529.392 105.173L528.691 105.178L527.986 105.183L527.276 105.188L526.561 105.194L525.842 105.199L525.118 105.205L524.39 105.21L523.658 105.216L522.92 105.221L522.179 105.227L521.433 105.233L520.683 105.238L519.928 105.244L519.168 105.249L518.404 105.255L517.636 105.261L516.863 105.267L516.086 105.273L515.304 105.279L514.518 105.285L513.727 105.29L512.932 105.296L512.133 105.302L511.329 105.309L510.521 105.314L509.708 105.32L508.89 105.327L508.069 105.333L507.243 105.339L506.412 105.345L505.578 105.352L504.738 105.358L503.894 105.364L503.046 105.371L502.194 105.377L501.337 105.384L500.475 105.391L499.609 105.397L498.739 105.404L497.864 105.41L496.986 105.417L496.103 105.423L495.215 105.43L494.323 105.437L493.426 105.443L492.526 105.451L491.62 105.457L490.711 105.464L489.796 105.471L488.879 105.478L487.956 105.485L487.029 105.492L486.097 105.499L485.162 105.506L484.221 105.513L483.277 105.52L482.328 105.527L481.375 105.535L480.418 105.542L479.456 105.549L478.49 105.556L477.52 105.563L476.545 105.57L475.566 105.579L474.582 105.586L473.595 105.593L472.603 105.601L471.606 105.608L470.606 105.616L469.601 105.623L468.592 105.63L467.578 105.639L466.56 105.646L465.538 105.654L464.512 105.662L463.481 105.669L462.446 105.677L461.407 105.685L460.363 105.693L459.315 105.701L458.263 105.709L457.207 105.717L456.146 105.725L455.081 105.733L454.012 105.741L452.939 105.749L451.861 105.757L450.779 105.765L449.693 105.773L448.602 105.782L447.508 105.79L446.409 105.798L445.306 105.807L444.198 105.815L443.087 105.823L441.971 105.832L440.851 105.84L439.727 105.848L438.598 105.857L437.466 105.865L436.329 105.874L435.187 105.883L434.042 105.892L432.893 105.9L431.739 105.908L430.581 105.917L429.419 105.926L428.252 105.935L427.082 105.944L425.907 105.953L424.728 105.962L423.545 105.971L422.358 105.979L421.167 105.988L419.971 105.998L418.772 106.006L417.568 106.016L416.359 106.025L415.147 106.034L413.931 106.043L412.71 106.053L411.485 106.061L410.256 106.071L409.024 106.08L407.786 106.089L406.545 106.099L405.3 106.108L404.05 106.118L402.796 106.127L401.538 106.137L400.276 106.146L399.01 106.156L397.74 106.165L396.466 106.175L395.187 106.184L393.905 106.194L392.618 106.204L391.328 106.213L390.033 106.223L388.734 106.233L387.431 106.243L386.124 106.253L384.812 106.263L383.497 106.273L382.178 106.282L380.854 106.292L379.527 106.303L378.195 106.313L376.859 106.322L375.519 106.333L374.176 106.343L372.827 106.353L371.476 106.363L370.119 106.374L368.759 106.384L367.395 106.394L366.027 106.404L364.655 106.415L363.279 106.425L361.898 106.436L360.514 106.446L359.126 106.456L357.733 106.467L356.336 106.478L354.936 106.488L353.531 106.499L352.123 106.509L350.711 106.52L349.294 106.531L347.874 106.541L346.449 106.552L345.02 106.563L343.587 106.573L342.151 106.584L340.71 106.595L339.265 106.606L337.817 106.617L336.365 106.628L334.908 106.639L333.447 106.65L331.983 106.661L330.514 106.672L329.042 106.683L327.565 106.695L326.085 106.706L324.601 106.717L323.112 106.728L321.62 106.739L320.124 106.75L318.623 106.762L317.119 106.773L315.611 106.785L314.099 106.796L312.583 106.807L311.063 106.819L309.539 106.83L308.012 106.842L306.48 106.854L304.944 106.865L303.405 106.877L301.861 106.889L300.314 106.9L298.762 106.912L297.207 106.924L295.648 106.935L294.085 106.947L292.518 106.959L290.947 106.971L289.372 106.982L287.794 106.995L286.211 107.006L284.625 107.018L283.034 107.031L281.44 107.042L279.842 107.055L278.24 107.066L276.634 107.079L275.025 107.091L273.411 107.103L271.793 107.115L270.172 107.127L268.547 107.14L266.918 107.152L265.285 107.164L263.648 107.177L262.008 107.189L260.364 107.202L258.715 107.214L257.063 107.227L255.407 107.239L253.748 107.251L252.084 107.264L250.417 107.276L248.745 107.289L247.07 107.302L245.391 107.314L243.708 107.327L242.022 107.34L240.331 107.352L238.638 107.366L236.939 107.378L235.238 107.391L233.532 107.404L231.822 107.417L230.11 107.43L228.393 107.442L226.672 107.456L224.947 107.469L223.219 107.482L221.488 107.494L219.751 107.508L218.012 107.521L216.268 107.534L214.521 107.547L212.77 107.56L211.016 107.573L209.258 107.586L207.495 107.6L205.729 107.614L203.959 107.627L202.186 107.64L200.409 107.654L198.628 107.667L196.843 107.681L195.055 107.694L193.263 107.707L191.467 107.721L189.667 107.734L187.864 107.748L186.058 107.762L184.247 107.775L182.432 107.789L180.614 107.803L178.792 107.817L176.967 107.83L175.137 107.844L173.304 107.858L171.468 107.872L169.627 107.886L167.783 107.9L165.936 107.913L164.084 107.927L162.229 107.941L160.37 107.956L158.508 107.97L156.642 107.984L154.772 107.998L152.899 108.012L151.021 108.026L149.141 108.04L147.256 108.055L145.368 108.069L143.477 108.083L141.581 108.097L139.682 108.112L137.779 108.126L135.873 108.14L133.963 108.155L132.05 108.169L130.132 108.183L128.211 108.198L126.287 108.213L124.358 108.227L122.427 108.242L120.492 108.257L118.553 108.271L116.61 108.286L114.664 108.3L112.714 108.315L110.761 108.33L108.804 108.344L106.843 108.36L104.879 108.374L102.911 108.389L100.94 108.404L98.9647 108.419L96.9863 108.434L95.0042 108.449L93.0185 108.464L91.0298 108.479L89.0367 108.494L87.04 108.509L85.0404 108.524L83.0371 108.539L81.0294 108.554L79.0187 108.569L77.0052 108.584L74.9873 108.6L72.9657 108.615L70.9412 108.63L68.913 108.646L66.8811 108.661L64.8456 108.676L62.8065 108.692L60.7636 108.707L58.7178 108.722L56.6685 108.738L54.6154 108.753L52.5586 108.769L50.4982 108.785L48.4349 108.8L46.3679 108.815L44.2972 108.831L42.223 108.847L40.1458 108.862L38.0641 108.878L35.9796 108.894L33.8914 108.91L31.8002 108.925L29.7047 108.941L27.6062 108.957L25.5042 108.973L23.399 108.989L21.2897 109.005L19.1772 109.02L17.0613 109.036L14.9416 109.052L12.819 109.068L10.6927 109.085L8.56281 109.101L6.42993 109.117L4.29266 109.133L2.15247 109.149L0.00939941 109.165L-0.00158691 107.702L2.14154 107.686L4.28174 107.67L6.41895 107.654L8.55182 107.638L10.6817 107.622L12.808 107.606L14.9306 107.589L17.0503 107.573L19.1663 107.558L21.2787 107.542L23.3874 107.526L25.4932 107.51L27.5953 107.494L29.6937 107.478L31.7892 107.462L33.8804 107.447L35.9686 107.431L38.0531 107.415L40.1348 107.399L42.212 107.384L44.2863 107.368L46.3569 107.352L48.4239 107.337L50.4872 107.322L52.5477 107.306L54.6044 107.29L56.6575 107.275L58.7068 107.26L60.7526 107.244L62.7955 107.229L64.8346 107.213L66.8701 107.198L68.902 107.183L70.9302 107.167L72.9547 107.152L74.9763 107.137L76.9942 107.121L79.0078 107.106L81.0184 107.091L83.0254 107.076L85.0294 107.061L87.0291 107.046L89.0258 107.031L91.0181 107.016L93.0075 107.001L94.9932 106.986L96.9753 106.971L98.9537 106.956L100.929 106.941L102.9 106.926L104.868 106.911L106.832 106.897L108.793 106.881L110.75 106.867L112.703 106.852L114.653 106.837L116.599 106.823L118.542 106.808L120.481 106.794L122.416 106.779L124.347 106.764L126.276 106.75L128.2 106.735L130.121 106.72L132.039 106.707L133.952 106.692L135.862 106.677L137.768 106.663L139.671 106.649L141.57 106.634L143.466 106.62L145.357 106.606L147.245 106.592L149.129 106.577L151.01 106.563L152.888 106.549L154.761 106.535L156.631 106.521L158.497 106.507L160.359 106.493L162.218 106.478L164.073 106.464L165.924 106.451L167.772 106.437L169.616 106.423L171.457 106.409L173.293 106.395L175.126 106.381L176.955 106.368L178.781 106.354L180.603 106.34L182.421 106.326L184.236 106.312L186.046 106.299L187.853 106.285L189.656 106.272L191.456 106.258L193.252 106.244L195.044 106.231L196.832 106.218L198.617 106.204L200.398 106.191L202.175 106.177L203.948 106.164L205.718 106.151L207.484 106.137L209.246 106.124L211.005 106.11L212.759 106.097L214.51 106.084L216.257 106.071L218.001 106.058L219.74 106.045L221.476 106.031L223.208 106.019L224.936 106.006L226.661 105.993L228.382 105.979L230.099 105.967L231.811 105.954L233.521 105.941L235.227 105.928L236.928 105.915L238.627 105.903L240.32 105.889L242.011 105.877L243.697 105.864L245.38 105.851L247.059 105.839L248.734 105.826L250.406 105.813L252.073 105.801L253.737 105.788L255.396 105.776L257.052 105.764L258.704 105.751L260.353 105.739L261.997 105.726L263.637 105.714L265.274 105.701L266.907 105.689L268.536 105.677L270.161 105.664L271.782 105.652L273.4 105.64L275.014 105.628L276.623 105.616L278.229 105.603L279.831 105.592L281.429 105.579L283.023 105.568L284.614 105.555L286.2 105.543L287.783 105.532L289.361 105.519L290.936 105.508L292.507 105.496L294.074 105.484L295.637 105.472L297.196 105.461L298.751 105.449L300.303 105.437L301.85 105.426L303.394 105.414L304.933 105.402L306.469 105.391L308.001 105.379L309.528 105.368L311.052 105.356L312.572 105.344L314.088 105.333L315.6 105.322L317.108 105.31L318.612 105.299L320.113 105.287L321.609 105.276L323.101 105.265L324.589 105.254L326.074 105.243L327.554 105.232L329.031 105.22L330.503 105.209L331.972 105.198L333.436 105.187L334.897 105.176L336.354 105.165L337.806 105.154L339.254 105.143L340.699 105.132L342.14 105.121L343.576 105.11L345.009 105.1L346.438 105.089L347.862 105.078L349.283 105.068L350.7 105.057L352.112 105.046L353.52 105.036L354.925 105.025L356.325 105.015L357.722 105.004L359.115 104.993L360.503 104.983L361.887 104.973L363.268 104.962L364.644 104.952L366.016 104.941L367.384 104.931L368.748 104.921L370.108 104.911L371.465 104.9L372.816 104.89L374.165 104.88L375.508 104.87L376.848 104.859L378.184 104.85L379.515 104.84L380.843 104.829L382.166 104.82L383.486 104.81L384.801 104.8L386.113 104.79L387.42 104.78L388.723 104.77L390.021 104.761L391.317 104.751L392.607 104.741L393.894 104.731L395.176 104.721L396.455 104.712L397.729 104.702L398.999 104.693L400.265 104.683L401.527 104.674L402.785 104.664L404.039 104.655L405.289 104.645L406.534 104.636L407.775 104.626L409.013 104.617L410.245 104.608L411.474 104.598L412.699 104.59L413.92 104.58L415.136 104.571L416.348 104.562L417.557 104.553L418.761 104.544L419.96 104.535L421.156 104.526L422.347 104.516L423.534 104.508L424.717 104.499L425.896 104.49L427.071 104.481L428.241 104.472L429.408 104.463L430.57 104.454L431.728 104.445L432.882 104.437L434.031 104.429L435.177 104.42L436.318 104.411L437.454 104.402L438.587 104.394L439.716 104.385L440.84 104.377L441.96 104.369L443.076 104.36L444.187 104.352L445.295 104.344L446.398 104.335L447.497 104.327L448.591 104.319L449.682 104.31L450.768 104.302L451.85 104.294L452.927 104.286L454.001 104.278L455.07 104.27L456.135 104.262L457.196 104.254L458.252 104.246L459.304 104.238L460.352 104.23L461.396 104.222L462.435 104.214L463.47 104.206L464.501 104.199L465.527 104.191L466.549 104.183L467.567 104.176L468.581 104.168L469.59 104.16L470.595 104.153L471.595 104.145L472.592 104.138L473.583 104.13L474.571 104.123L475.554 104.116L476.534 104.108L477.509 104.1L478.479 104.093L479.445 104.086L480.407 104.079L481.364 104.072L482.317 104.064L483.266 104.057L484.21 104.05L485.151 104.043L486.086 104.036L487.018 104.029L487.945 104.022L488.868 104.015L489.785 104.008L490.7 104.001L491.609 103.994L492.514 103.988L493.415 103.98L494.312 103.974L495.204 103.967L496.092 103.961L496.974 103.954L497.854 103.947L498.728 103.941L499.598 103.934L500.464 103.928L501.326 103.921L502.183 103.914L503.035 103.908L503.883 103.901L504.727 103.895L505.567 103.889L506.401 103.883L507.232 103.876L508.058 103.87L508.879 103.864L509.697 103.858L510.51 103.852L511.318 103.846L512.122 103.84L512.921 103.833L513.716 103.827L514.507 103.822L515.293 103.816L516.075 103.81L516.852 103.804L517.625 103.798L518.393 103.792L519.157 103.786L519.916 103.781L520.671 103.775L521.422 103.77L522.168 103.764L522.909 103.758L523.647 103.753L524.379 103.747L525.107 103.742L525.831 103.736L526.55 103.731L527.264 103.725L527.975 103.72L528.68 103.715L529.381 103.71L530.078 103.704L530.77 103.699L531.458 103.694L532.141 103.688L532.819 103.683L533.493 103.678L534.163 103.673L534.828 103.668L535.488 103.664L536.144 103.658L536.795 103.653L537.442 103.648L538.084 103.644L538.722 103.639L539.356 103.634L539.984 103.629L540.608 103.625L541.228 103.62L541.843 103.615L542.453 103.611L543.059 103.606L543.661 103.601L544.257 103.597L544.849 103.593L545.437 103.588L546.02 103.584L546.598 103.579L547.172 103.575L547.741 103.571L548.306 103.566L548.866 103.563L549.422 103.558L549.973 103.554L550.519 103.55L551.06 103.546L551.598 103.541L552.13 103.538L552.658 103.534L553.181 103.53L553.7 103.526L554.214 103.522L554.723 103.518L555.228 103.514L555.728 103.511L556.223 103.507L556.714 103.503L557.2 103.5L557.682 103.496L558.159 103.492L558.631 103.489L559.098 103.485L559.561 103.481L560.02 103.478L560.473 103.475L560.922 103.471L561.367 103.468L561.806 103.465L562.241 103.462L562.671 103.458L563.097 103.455L563.518 103.452L563.934 103.448L564.346 103.446L564.752 103.443L565.155 103.44L565.552 103.437L565.945 103.434L566.333 103.431L566.716 103.428L567.095 103.425L567.469 103.422L567.838 103.419L568.203 103.416L568.562 103.414L568.917 103.411L569.268 103.408L569.613 103.406L569.954 103.403L570.29 103.401L570.622 103.398L570.949 103.396L571.27 103.394L571.588 103.391L571.9 103.388L572.208 103.386L572.511 103.384L572.809 103.382L573.102 103.38L573.391 103.378L573.675 103.375L573.954 103.373L574.228 103.371L574.498 103.369L574.763 103.367L575.023 103.365L575.278 103.363L575.528 103.361L575.774 103.359L576.015 103.358L576.251 103.356L576.482 103.354L576.709 103.353L576.93 103.35L577.147 103.349L577.359 103.348L577.566 103.346L577.769 103.345L577.966 103.343L578.159 103.342L578.347 103.34L578.53 103.339L578.709 103.337L578.882 103.336L579.051 103.334L579.215 103.334L579.373 103.332L579.528 103.331L579.677 103.33L579.821 103.328L579.961 103.328L580.096 103.327L580.225 103.326L580.35 103.325L580.47 103.324L580.586 103.323L580.696 103.322L580.802 103.321L580.902 103.32L580.998 103.32L581.089 103.319H581.175L581.256 103.318L581.332 103.318L581.403 103.317L581.47 103.316H581.531L581.588 103.315H581.639L581.686 103.315H581.728L581.765 103.314H581.797H581.824H581.846L581.864 103.313H581.876H581.883ZM581.891 300.084C582.363 299.524 582.362 299.523 582.36 299.522L582.352 299.515L582.321 299.49L582.314 299.483L582.25 299.43L582.201 299.389L582.111 299.315L582.009 299.231C581.929 299.164 581.834 299.087 581.725 298.997C581.303 298.652 580.672 298.141 579.835 297.474C578.16 296.141 575.658 294.189 572.345 291.704C565.719 286.735 555.848 279.639 542.86 271.127C516.885 254.102 478.441 231.407 428.55 208.713C328.768 163.326 183.193 117.943 0.00354004 117.943V119.406C182.947 119.406 328.316 164.727 427.944 210.045C477.758 232.704 516.137 255.361 542.057 272.35C555.018 280.845 564.863 287.922 571.466 292.874C574.768 295.349 577.259 297.294 578.923 298.618C579.755 299.281 580.381 299.788 580.798 300.129C581.006 300.3 581.162 300.429 581.266 300.515C581.308 300.55 581.341 300.577 581.366 300.598L581.383 300.612L581.411 300.636L581.418 300.642C581.418 300.642 581.419 300.642 581.454 300.602C581.503 300.544 581.618 300.408 581.891 300.084ZM582.204 217.496C582.206 217.496 582.207 217.497 581.891 218.157C581.576 218.817 581.575 218.817 581.574 218.816L581.567 218.812L581.538 218.799L581.421 218.744C581.317 218.695 581.161 218.621 580.952 218.524C580.781 218.444 580.575 218.349 580.333 218.238C580.186 218.17 580.025 218.096 579.852 218.017C579.617 217.91 579.359 217.793 579.077 217.665C577.412 216.912 574.921 215.806 571.618 214.398C565.014 211.582 555.166 207.558 542.203 202.727C516.277 193.065 477.89 180.181 428.064 167.295C328.411 141.524 183.001 115.748 0.00354004 115.748V114.285C183.139 114.285 328.673 140.08 428.43 165.879C478.309 178.778 516.745 191.678 542.714 201.356C555.699 206.195 565.568 210.228 572.193 213.053C575.505 214.464 578.006 215.575 579.681 216.333C580.518 216.711 581.149 217.002 581.57 217.198C581.689 217.253 581.791 217.301 581.877 217.341C581.943 217.372 582 217.399 582.046 217.421L582.166 217.477L582.197 217.492L582.204 217.496ZM581.891 152.323C582.028 151.605 582.027 151.604 582.025 151.604L582.018 151.602L581.988 151.597L581.868 151.575C581.763 151.555 581.605 151.525 581.394 151.486C580.974 151.409 580.345 151.293 579.509 151.143C577.837 150.842 575.338 150.402 572.028 149.842C565.408 148.721 555.545 147.12 542.566 145.199C516.608 141.357 478.186 136.235 428.322 131.113C328.594 120.87 183.097 110.628 0.00354004 110.628V112.091C183.043 112.091 328.489 122.33 428.172 132.569C478.014 137.688 516.414 142.807 542.352 146.646C555.32 148.565 565.174 150.165 571.783 151.284C575.088 151.844 577.582 152.283 579.249 152.583C579.753 152.673 580.181 152.751 580.533 152.815C580.764 152.858 580.963 152.894 581.128 152.925C581.337 152.964 581.494 152.993 581.599 153.012L581.716 153.035L581.745 153.04L581.753 153.041C581.754 153.041 581.755 153.042 581.891 152.323Z" fill="url(#paint0_linear_5231_20971)"/>
<defs>
<linearGradient id="paint0_linear_5231_20971" x1="8.78597" y1="10.4031" x2="571.219" y2="10.4031" gradientUnits="userSpaceOnUse">
<stop offset="0.127609" stop-color="#DD1D63"/>
<stop offset="0.563305" stop-color="#DD1D63"/>
<stop offset="0.943305" stop-color="#FD28A8" stop-opacity="0"/>
</linearGradient>
</defs>
</svg>
