<svg width="390" height="673" viewBox="0 0 390 673" fill="none" xmlns="http://www.w3.org/2000/svg">
<g opacity="0.4">
<path d="M-217.185 -270.184L-217.185 -166.495M-217.185 -166.495L-217.185 -61.9908M-217.185 -166.495H-218M-217.185 -166.495H-112.831M-217.185 -61.9908L-217.185 42.5138M-217.185 -61.9908H-218M-217.185 -61.9908H-112.831M-217.185 42.5138L-217.185 147.018M-217.185 42.5138H-218M-217.185 42.5138H-112.831M-217.185 147.018L-217.185 251.523M-217.185 147.018H-218M-217.185 147.018H-112.831M-217.185 251.523L-217.185 356.028M-217.185 251.523H-218M-217.185 251.523H-112.831M-217.185 356.028L-217.185 460.532M-217.185 356.028H-218M-217.185 356.028H-112.831M-217.185 460.532L-217.185 565.037M-217.185 460.532H-218M-217.185 460.532H-112.831M-217.185 565.037L-217.185 669.541M-217.185 565.037H-218M-217.185 565.037H-112.831M-217.185 669.541L-217.185 774.046M-217.185 669.541H-218M-217.185 669.541H-112.831M-217.185 774.046L-217.185 1362.5H-112.831M-217.185 774.046H-218M-217.185 774.046H-112.831M-112.831 -270.184V-166.495M-112.831 -166.495L-112.831 -61.9908M-112.831 -166.495H-8.47693M-112.831 -61.9908V42.5138M-112.831 -61.9908H-8.47693M-112.831 42.5138L-112.831 147.018M-112.831 42.5138H-8.47694M-112.831 147.018V251.523M-112.831 147.018H-8.47694M-112.831 251.523L-112.831 356.028M-112.831 251.523H-8.47694M-112.831 356.028V460.532M-112.831 356.028H-8.47694M-112.831 460.532L-112.831 565.037M-112.831 460.532H-8.47694M-112.831 565.037V669.541M-112.831 565.037H-8.47696M-112.831 669.541V774.046M-112.831 669.541H-8.47696M-112.831 774.046L-112.831 1362.5M-112.831 774.046H-8.47696M-112.831 1362.5H-8.47697M-8.47693 -270.184V-166.495M-8.47693 -166.495V-61.9908M-8.47693 -166.495H95.877M-8.47693 -61.9908L-8.47694 42.5138M-8.47693 -61.9908H95.877M-8.47694 42.5138V147.018M-8.47694 42.5138H95.877M-8.47694 147.018V251.523M-8.47694 147.018H95.8769M-8.47694 251.523V356.028M-8.47694 251.523H95.8769M-8.47694 356.028V460.532M-8.47694 356.028H95.8769M-8.47694 460.532L-8.47696 565.037M-8.47694 460.532H95.8769M-8.47696 565.037V669.541M-8.47696 565.037H95.8769M-8.47696 669.541V774.046M-8.47696 669.541H95.8769M-8.47696 774.046L-8.47697 1362.5M-8.47696 774.046H95.8769M-8.47697 1362.5H95.8769M95.877 -270.184V-166.495M95.877 -166.495V-61.9908M95.877 -166.495H200.231M95.877 -61.9908V42.5138M95.877 -61.9908H200.231M95.877 42.5138L95.8769 147.018M95.877 42.5138H200.231M95.8769 147.018V251.523M95.8769 147.018H200.231M95.8769 251.523V356.028M95.8769 251.523H200.231M95.8769 356.028V460.532M95.8769 356.028H200.231M95.8769 460.532V565.037M95.8769 460.532H200.231M95.8769 565.037V669.541M95.8769 565.037H200.231M95.8769 669.541V774.046M95.8769 669.541H200.231M95.8769 774.046L95.8769 1362.5M95.8769 774.046H200.231M95.8769 1362.5H200.231M200.231 -270.184V-166.495M200.231 -166.495V-61.9908M200.231 -166.495H304.585M200.231 -61.9908V42.5138M200.231 -61.9908H304.585M200.231 42.5138V147.018M200.231 42.5138H304.585M200.231 147.018V251.523M200.231 147.018H304.585M200.231 251.523V356.028M200.231 251.523H304.585M200.231 356.028V460.532M200.231 356.028H304.585M200.231 460.532V565.037M200.231 460.532H304.585M200.231 565.037V669.541M200.231 565.037H304.585M200.231 669.541V774.046M200.231 669.541H304.585M200.231 774.046L200.231 1362.5M200.231 774.046H304.585M200.231 1362.5H304.585M304.585 -270.184V-166.495M304.585 -166.495V-61.9908M304.585 -166.495H408.939M304.585 -61.9908V42.5138M304.585 -61.9908H408.939M304.585 42.5138V147.018M304.585 42.5138H408.939M304.585 147.018V251.523M304.585 147.018H408.939M304.585 251.523V356.028M304.585 251.523H408.939M304.585 356.028V460.532M304.585 356.028H408.939M304.585 460.532L304.585 565.037M304.585 460.532H408.939M304.585 565.037V669.541M304.585 565.037H408.939M304.585 669.541V774.046M304.585 669.541H408.939M304.585 774.046V1362.5M304.585 774.046H408.939M304.585 1362.5H408.939M408.939 -270.184V-166.495M408.939 -166.495V-61.9908M408.939 -166.495H513.292M408.939 -61.9908V42.5138M408.939 -61.9908H513.292M408.939 42.5138V147.018M408.939 42.5138H513.292M408.939 147.018V251.523M408.939 147.018H513.292M408.939 251.523V356.028M408.939 251.523H513.292M408.939 356.028V460.532M408.939 356.028H513.292M408.939 460.532L408.939 565.037M408.939 460.532H513.292M408.939 565.037V669.541M408.939 565.037H513.292M408.939 669.541V774.046M408.939 669.541H513.292M408.939 774.046V1362.5M408.939 774.046H513.292M408.939 1362.5H513.292M513.292 -270.184V-166.495M513.292 -166.495V-61.9908M513.292 -166.495H617.646M513.292 -61.9908V42.5138M513.292 -61.9908H617.646M513.292 42.5138V147.018M513.292 42.5138H617.646M513.292 147.018V251.523M513.292 147.018H617.646M513.292 251.523V356.028M513.292 251.523H617.646M513.292 356.028V460.532M513.292 356.028H617.646M513.292 460.532L513.292 565.037M513.292 460.532H617.646M513.292 565.037V669.541M513.292 565.037H617.646M513.292 669.541V774.046M513.292 669.541H617.646M513.292 774.046V1362.5M513.292 774.046H617.646M513.292 1362.5H617.646M617.646 -270.184V-166.495M617.646 -166.495V-61.9908M617.646 -166.495H721.184M617.646 -61.9908V42.5138M617.646 -61.9908H721.184M617.646 42.5138V147.018M617.646 42.5138H721.184M617.646 147.018V251.523M617.646 147.018H721.184M617.646 251.523V356.028M617.646 251.523H721.184M617.646 356.028V460.532M617.646 356.028H721.184M617.646 460.532V565.037M617.646 460.532H721.184M617.646 565.037V669.541M617.646 565.037H721.184M617.646 669.541V774.046M617.646 669.541H721.184M617.646 774.046V1362.5M617.646 774.046H721.184M617.646 1362.5H722V-270.184M-218 -271H721.184M-218 891.775H721.184M-218 1009.51H721.184M-218 1127.24H721.184M-218 1244.97H721.184" stroke="url(#paint0_linear_5245_25494)" stroke-width="1.83953"/>
<path d="M-217.185 -270.184L-217.185 -166.495M-217.185 -166.495L-217.185 -61.9908M-217.185 -166.495H-218M-217.185 -166.495H-112.831M-217.185 -61.9908L-217.185 42.5138M-217.185 -61.9908H-218M-217.185 -61.9908H-112.831M-217.185 42.5138L-217.185 147.018M-217.185 42.5138H-218M-217.185 42.5138H-112.831M-217.185 147.018L-217.185 251.523M-217.185 147.018H-218M-217.185 147.018H-112.831M-217.185 251.523L-217.185 356.028M-217.185 251.523H-218M-217.185 251.523H-112.831M-217.185 356.028L-217.185 460.532M-217.185 356.028H-218M-217.185 356.028H-112.831M-217.185 460.532L-217.185 565.037M-217.185 460.532H-218M-217.185 460.532H-112.831M-217.185 565.037L-217.185 669.541M-217.185 565.037H-218M-217.185 565.037H-112.831M-217.185 669.541L-217.185 774.046M-217.185 669.541H-218M-217.185 669.541H-112.831M-217.185 774.046L-217.185 1362.5H-112.831M-217.185 774.046H-218M-217.185 774.046H-112.831M-112.831 -270.184V-166.495M-112.831 -166.495L-112.831 -61.9908M-112.831 -166.495H-8.47693M-112.831 -61.9908V42.5138M-112.831 -61.9908H-8.47693M-112.831 42.5138L-112.831 147.018M-112.831 42.5138H-8.47694M-112.831 147.018V251.523M-112.831 147.018H-8.47694M-112.831 251.523L-112.831 356.028M-112.831 251.523H-8.47694M-112.831 356.028V460.532M-112.831 356.028H-8.47694M-112.831 460.532L-112.831 565.037M-112.831 460.532H-8.47694M-112.831 565.037V669.541M-112.831 565.037H-8.47696M-112.831 669.541V774.046M-112.831 669.541H-8.47696M-112.831 774.046L-112.831 1362.5M-112.831 774.046H-8.47696M-112.831 1362.5H-8.47697M-8.47693 -270.184V-166.495M-8.47693 -166.495V-61.9908M-8.47693 -166.495H95.877M-8.47693 -61.9908L-8.47694 42.5138M-8.47693 -61.9908H95.877M-8.47694 42.5138V147.018M-8.47694 42.5138H95.877M-8.47694 147.018V251.523M-8.47694 147.018H95.8769M-8.47694 251.523V356.028M-8.47694 251.523H95.8769M-8.47694 356.028V460.532M-8.47694 356.028H95.8769M-8.47694 460.532L-8.47696 565.037M-8.47694 460.532H95.8769M-8.47696 565.037V669.541M-8.47696 565.037H95.8769M-8.47696 669.541V774.046M-8.47696 669.541H95.8769M-8.47696 774.046L-8.47697 1362.5M-8.47696 774.046H95.8769M-8.47697 1362.5H95.8769M95.877 -270.184V-166.495M95.877 -166.495V-61.9908M95.877 -166.495H200.231M95.877 -61.9908V42.5138M95.877 -61.9908H200.231M95.877 42.5138L95.8769 147.018M95.877 42.5138H200.231M95.8769 147.018V251.523M95.8769 147.018H200.231M95.8769 251.523V356.028M95.8769 251.523H200.231M95.8769 356.028V460.532M95.8769 356.028H200.231M95.8769 460.532V565.037M95.8769 460.532H200.231M95.8769 565.037V669.541M95.8769 565.037H200.231M95.8769 669.541V774.046M95.8769 669.541H200.231M95.8769 774.046L95.8769 1362.5M95.8769 774.046H200.231M95.8769 1362.5H200.231M200.231 -270.184V-166.495M200.231 -166.495V-61.9908M200.231 -166.495H304.585M200.231 -61.9908V42.5138M200.231 -61.9908H304.585M200.231 42.5138V147.018M200.231 42.5138H304.585M200.231 147.018V251.523M200.231 147.018H304.585M200.231 251.523V356.028M200.231 251.523H304.585M200.231 356.028V460.532M200.231 356.028H304.585M200.231 460.532V565.037M200.231 460.532H304.585M200.231 565.037V669.541M200.231 565.037H304.585M200.231 669.541V774.046M200.231 669.541H304.585M200.231 774.046L200.231 1362.5M200.231 774.046H304.585M200.231 1362.5H304.585M304.585 -270.184V-166.495M304.585 -166.495V-61.9908M304.585 -166.495H408.939M304.585 -61.9908V42.5138M304.585 -61.9908H408.939M304.585 42.5138V147.018M304.585 42.5138H408.939M304.585 147.018V251.523M304.585 147.018H408.939M304.585 251.523V356.028M304.585 251.523H408.939M304.585 356.028V460.532M304.585 356.028H408.939M304.585 460.532L304.585 565.037M304.585 460.532H408.939M304.585 565.037V669.541M304.585 565.037H408.939M304.585 669.541V774.046M304.585 669.541H408.939M304.585 774.046V1362.5M304.585 774.046H408.939M304.585 1362.5H408.939M408.939 -270.184V-166.495M408.939 -166.495V-61.9908M408.939 -166.495H513.292M408.939 -61.9908V42.5138M408.939 -61.9908H513.292M408.939 42.5138V147.018M408.939 42.5138H513.292M408.939 147.018V251.523M408.939 147.018H513.292M408.939 251.523V356.028M408.939 251.523H513.292M408.939 356.028V460.532M408.939 356.028H513.292M408.939 460.532L408.939 565.037M408.939 460.532H513.292M408.939 565.037V669.541M408.939 565.037H513.292M408.939 669.541V774.046M408.939 669.541H513.292M408.939 774.046V1362.5M408.939 774.046H513.292M408.939 1362.5H513.292M513.292 -270.184V-166.495M513.292 -166.495V-61.9908M513.292 -166.495H617.646M513.292 -61.9908V42.5138M513.292 -61.9908H617.646M513.292 42.5138V147.018M513.292 42.5138H617.646M513.292 147.018V251.523M513.292 147.018H617.646M513.292 251.523V356.028M513.292 251.523H617.646M513.292 356.028V460.532M513.292 356.028H617.646M513.292 460.532L513.292 565.037M513.292 460.532H617.646M513.292 565.037V669.541M513.292 565.037H617.646M513.292 669.541V774.046M513.292 669.541H617.646M513.292 774.046V1362.5M513.292 774.046H617.646M513.292 1362.5H617.646M617.646 -270.184V-166.495M617.646 -166.495V-61.9908M617.646 -166.495H721.184M617.646 -61.9908V42.5138M617.646 -61.9908H721.184M617.646 42.5138V147.018M617.646 42.5138H721.184M617.646 147.018V251.523M617.646 147.018H721.184M617.646 251.523V356.028M617.646 251.523H721.184M617.646 356.028V460.532M617.646 356.028H721.184M617.646 460.532V565.037M617.646 460.532H721.184M617.646 565.037V669.541M617.646 565.037H721.184M617.646 669.541V774.046M617.646 669.541H721.184M617.646 774.046V1362.5M617.646 774.046H721.184M617.646 1362.5H722V-270.184M-218 -271H721.184M-218 891.775H721.184M-218 1009.51H721.184M-218 1127.24H721.184M-218 1244.97H721.184" stroke="#DD1D63" stroke-width="1.83953"/>
<path d="M-217.185 -270.184L-217.185 -166.495M-217.185 -166.495L-217.185 -61.9908M-217.185 -166.495H-218M-217.185 -166.495H-112.831M-217.185 -61.9908L-217.185 42.5138M-217.185 -61.9908H-218M-217.185 -61.9908H-112.831M-217.185 42.5138L-217.185 147.018M-217.185 42.5138H-218M-217.185 42.5138H-112.831M-217.185 147.018L-217.185 251.523M-217.185 147.018H-218M-217.185 147.018H-112.831M-217.185 251.523L-217.185 356.028M-217.185 251.523H-218M-217.185 251.523H-112.831M-217.185 356.028L-217.185 460.532M-217.185 356.028H-218M-217.185 356.028H-112.831M-217.185 460.532L-217.185 565.037M-217.185 460.532H-218M-217.185 460.532H-112.831M-217.185 565.037L-217.185 669.541M-217.185 565.037H-218M-217.185 565.037H-112.831M-217.185 669.541L-217.185 774.046M-217.185 669.541H-218M-217.185 669.541H-112.831M-217.185 774.046L-217.185 1362.5H-112.831M-217.185 774.046H-218M-217.185 774.046H-112.831M-112.831 -270.184V-166.495M-112.831 -166.495L-112.831 -61.9908M-112.831 -166.495H-8.47693M-112.831 -61.9908V42.5138M-112.831 -61.9908H-8.47693M-112.831 42.5138L-112.831 147.018M-112.831 42.5138H-8.47694M-112.831 147.018V251.523M-112.831 147.018H-8.47694M-112.831 251.523L-112.831 356.028M-112.831 251.523H-8.47694M-112.831 356.028V460.532M-112.831 356.028H-8.47694M-112.831 460.532L-112.831 565.037M-112.831 460.532H-8.47694M-112.831 565.037V669.541M-112.831 565.037H-8.47696M-112.831 669.541V774.046M-112.831 669.541H-8.47696M-112.831 774.046L-112.831 1362.5M-112.831 774.046H-8.47696M-112.831 1362.5H-8.47697M-8.47693 -270.184V-166.495M-8.47693 -166.495V-61.9908M-8.47693 -166.495H95.877M-8.47693 -61.9908L-8.47694 42.5138M-8.47693 -61.9908H95.877M-8.47694 42.5138V147.018M-8.47694 42.5138H95.877M-8.47694 147.018V251.523M-8.47694 147.018H95.8769M-8.47694 251.523V356.028M-8.47694 251.523H95.8769M-8.47694 356.028V460.532M-8.47694 356.028H95.8769M-8.47694 460.532L-8.47696 565.037M-8.47694 460.532H95.8769M-8.47696 565.037V669.541M-8.47696 565.037H95.8769M-8.47696 669.541V774.046M-8.47696 669.541H95.8769M-8.47696 774.046L-8.47697 1362.5M-8.47696 774.046H95.8769M-8.47697 1362.5H95.8769M95.877 -270.184V-166.495M95.877 -166.495V-61.9908M95.877 -166.495H200.231M95.877 -61.9908V42.5138M95.877 -61.9908H200.231M95.877 42.5138L95.8769 147.018M95.877 42.5138H200.231M95.8769 147.018V251.523M95.8769 147.018H200.231M95.8769 251.523V356.028M95.8769 251.523H200.231M95.8769 356.028V460.532M95.8769 356.028H200.231M95.8769 460.532V565.037M95.8769 460.532H200.231M95.8769 565.037V669.541M95.8769 565.037H200.231M95.8769 669.541V774.046M95.8769 669.541H200.231M95.8769 774.046L95.8769 1362.5M95.8769 774.046H200.231M95.8769 1362.5H200.231M200.231 -270.184V-166.495M200.231 -166.495V-61.9908M200.231 -166.495H304.585M200.231 -61.9908V42.5138M200.231 -61.9908H304.585M200.231 42.5138V147.018M200.231 42.5138H304.585M200.231 147.018V251.523M200.231 147.018H304.585M200.231 251.523V356.028M200.231 251.523H304.585M200.231 356.028V460.532M200.231 356.028H304.585M200.231 460.532V565.037M200.231 460.532H304.585M200.231 565.037V669.541M200.231 565.037H304.585M200.231 669.541V774.046M200.231 669.541H304.585M200.231 774.046L200.231 1362.5M200.231 774.046H304.585M200.231 1362.5H304.585M304.585 -270.184V-166.495M304.585 -166.495V-61.9908M304.585 -166.495H408.939M304.585 -61.9908V42.5138M304.585 -61.9908H408.939M304.585 42.5138V147.018M304.585 42.5138H408.939M304.585 147.018V251.523M304.585 147.018H408.939M304.585 251.523V356.028M304.585 251.523H408.939M304.585 356.028V460.532M304.585 356.028H408.939M304.585 460.532L304.585 565.037M304.585 460.532H408.939M304.585 565.037V669.541M304.585 565.037H408.939M304.585 669.541V774.046M304.585 669.541H408.939M304.585 774.046V1362.5M304.585 774.046H408.939M304.585 1362.5H408.939M408.939 -270.184V-166.495M408.939 -166.495V-61.9908M408.939 -166.495H513.292M408.939 -61.9908V42.5138M408.939 -61.9908H513.292M408.939 42.5138V147.018M408.939 42.5138H513.292M408.939 147.018V251.523M408.939 147.018H513.292M408.939 251.523V356.028M408.939 251.523H513.292M408.939 356.028V460.532M408.939 356.028H513.292M408.939 460.532L408.939 565.037M408.939 460.532H513.292M408.939 565.037V669.541M408.939 565.037H513.292M408.939 669.541V774.046M408.939 669.541H513.292M408.939 774.046V1362.5M408.939 774.046H513.292M408.939 1362.5H513.292M513.292 -270.184V-166.495M513.292 -166.495V-61.9908M513.292 -166.495H617.646M513.292 -61.9908V42.5138M513.292 -61.9908H617.646M513.292 42.5138V147.018M513.292 42.5138H617.646M513.292 147.018V251.523M513.292 147.018H617.646M513.292 251.523V356.028M513.292 251.523H617.646M513.292 356.028V460.532M513.292 356.028H617.646M513.292 460.532L513.292 565.037M513.292 460.532H617.646M513.292 565.037V669.541M513.292 565.037H617.646M513.292 669.541V774.046M513.292 669.541H617.646M513.292 774.046V1362.5M513.292 774.046H617.646M513.292 1362.5H617.646M617.646 -270.184V-166.495M617.646 -166.495V-61.9908M617.646 -166.495H721.184M617.646 -61.9908V42.5138M617.646 -61.9908H721.184M617.646 42.5138V147.018M617.646 42.5138H721.184M617.646 147.018V251.523M617.646 147.018H721.184M617.646 251.523V356.028M617.646 251.523H721.184M617.646 356.028V460.532M617.646 356.028H721.184M617.646 460.532V565.037M617.646 460.532H721.184M617.646 565.037V669.541M617.646 565.037H721.184M617.646 669.541V774.046M617.646 669.541H721.184M617.646 774.046V1362.5M617.646 774.046H721.184M617.646 1362.5H722V-270.184M-218 -271H721.184M-218 891.775H721.184M-218 1009.51H721.184M-218 1127.24H721.184M-218 1244.97H721.184" stroke="url(#paint1_linear_5245_25494)" stroke-opacity="0.8" stroke-width="1.83953"/>
</g>
<defs>
<linearGradient id="paint0_linear_5245_25494" x1="-201.094" y1="138.219" x2="930.672" y2="339.943" gradientUnits="userSpaceOnUse">
<stop stop-color="#FA8C85"/>
<stop offset="1" stop-color="#DD1D63"/>
</linearGradient>
<linearGradient id="paint1_linear_5245_25494" x1="-111.953" y1="199.92" x2="79.8026" y2="72.8711" gradientUnits="userSpaceOnUse">
<stop stop-color="#141417"/>
<stop offset="0.125" stop-color="#E93D67"/>
<stop offset="0.849578" stop-color="#E42F65"/>
<stop offset="1" stop-color="#151518"/>
</linearGradient>
</defs>
</svg>
 