<svg width="942" height="911" viewBox="0 0 942 911" fill="none" xmlns="http://www.w3.org/2000/svg">
<g opacity="0.4">
<path d="M1.81532 -16.1836L1.81531 87.5046M1.81531 87.5046L1.81531 192.009M1.81531 87.5046H1M1.81531 87.5046H106.169M1.81531 192.009L1.81531 296.514M1.81531 192.009H1M1.81531 192.009H106.169M1.81531 296.514L1.8153 401.018M1.81531 296.514H1M1.81531 296.514H106.169M1.8153 401.018L1.8153 505.523M1.8153 401.018H1M1.8153 401.018H106.169M1.8153 505.523L1.8153 610.028M1.8153 505.523H1M1.8153 505.523H106.169M1.8153 610.028L1.81529 714.532M1.8153 610.028H1M1.8153 610.028H106.169M1.81529 714.532L1.81529 819.037M1.81529 714.532H1M1.81529 714.532H106.169M1.81529 819.037L1.81529 923.541M1.81529 819.037H1M1.81529 819.037H106.169M1.81529 923.541L1.81528 1028.05M1.81529 923.541H1M1.81529 923.541H106.169M1.81528 1028.05L1.81526 1616.5H106.169M1.81528 1028.05H1M1.81528 1028.05H106.169M106.169 -16.1836V87.5046M106.169 87.5046L106.169 192.009M106.169 87.5046H210.523M106.169 192.009V296.514M106.169 192.009H210.523M106.169 296.514L106.169 401.018M106.169 296.514H210.523M106.169 401.018V505.523M106.169 401.018H210.523M106.169 505.523L106.169 610.028M106.169 505.523H210.523M106.169 610.028V714.532M106.169 610.028H210.523M106.169 714.532L106.169 819.037M106.169 714.532H210.523M106.169 819.037V923.541M106.169 819.037H210.523M106.169 923.541V1028.05M106.169 923.541H210.523M106.169 1028.05L106.169 1616.5M106.169 1028.05H210.523M106.169 1616.5H210.523M210.523 -16.1836V87.5046M210.523 87.5046V192.009M210.523 87.5046H314.877M210.523 192.009L210.523 296.514M210.523 192.009H314.877M210.523 296.514V401.018M210.523 296.514H314.877M210.523 401.018V505.523M210.523 401.018H314.877M210.523 505.523V610.028M210.523 505.523H314.877M210.523 610.028V714.532M210.523 610.028H314.877M210.523 714.532L210.523 819.037M210.523 714.532H314.877M210.523 819.037V923.541M210.523 819.037H314.877M210.523 923.541V1028.05M210.523 923.541H314.877M210.523 1028.05L210.523 1616.5M210.523 1028.05H314.877M210.523 1616.5H314.877M314.877 -16.1836V87.5046M314.877 87.5046V192.009M314.877 87.5046H419.231M314.877 192.009V296.514M314.877 192.009H419.231M314.877 296.514L314.877 401.018M314.877 296.514H419.231M314.877 401.018V505.523M314.877 401.018H419.231M314.877 505.523V610.028M314.877 505.523H419.231M314.877 610.028V714.532M314.877 610.028H419.231M314.877 714.532V819.037M314.877 714.532H419.231M314.877 819.037V923.541M314.877 819.037H419.231M314.877 923.541V1028.05M314.877 923.541H419.231M314.877 1028.05L314.877 1616.5M314.877 1028.05H419.231M314.877 1616.5H419.231M419.231 -16.1836V87.5046M419.231 87.5046V192.009M419.231 87.5046H523.585M419.231 192.009V296.514M419.231 192.009H523.585M419.231 296.514V401.018M419.231 296.514H523.585M419.231 401.018V505.523M419.231 401.018H523.585M419.231 505.523V610.028M419.231 505.523H523.585M419.231 610.028V714.532M419.231 610.028H523.585M419.231 714.532V819.037M419.231 714.532H523.585M419.231 819.037V923.541M419.231 819.037H523.585M419.231 923.541V1028.05M419.231 923.541H523.585M419.231 1028.05L419.231 1616.5M419.231 1028.05H523.585M419.231 1616.5H523.585M523.585 -16.1836V87.5046M523.585 87.5046V192.009M523.585 87.5046H627.939M523.585 192.009V296.514M523.585 192.009H627.939M523.585 296.514V401.018M523.585 296.514H627.939M523.585 401.018V505.523M523.585 401.018H627.939M523.585 505.523V610.028M523.585 505.523H627.939M523.585 610.028V714.532M523.585 610.028H627.939M523.585 714.532L523.585 819.037M523.585 714.532H627.939M523.585 819.037V923.541M523.585 819.037H627.939M523.585 923.541V1028.05M523.585 923.541H627.939M523.585 1028.05V1616.5M523.585 1028.05H627.939M523.585 1616.5H627.939M627.939 -16.1836V87.5046M627.939 87.5046V192.009M627.939 87.5046H732.292M627.939 192.009V296.514M627.939 192.009H732.292M627.939 296.514V401.018M627.939 296.514H732.292M627.939 401.018V505.523M627.939 401.018H732.292M627.939 505.523V610.028M627.939 505.523H732.292M627.939 610.028V714.532M627.939 610.028H732.292M627.939 714.532L627.939 819.037M627.939 714.532H732.292M627.939 819.037V923.541M627.939 819.037H732.292M627.939 923.541V1028.05M627.939 923.541H732.292M627.939 1028.05V1616.5M627.939 1028.05H732.292M627.939 1616.5H732.292M732.292 -16.1836V87.5046M732.292 87.5046V192.009M732.292 87.5046H836.646M732.292 192.009V296.514M732.292 192.009H836.646M732.292 296.514V401.018M732.292 296.514H836.646M732.292 401.018V505.523M732.292 401.018H836.646M732.292 505.523V610.028M732.292 505.523H836.646M732.292 610.028V714.532M732.292 610.028H836.646M732.292 714.532L732.292 819.037M732.292 714.532H836.646M732.292 819.037V923.541M732.292 819.037H836.646M732.292 923.541V1028.05M732.292 923.541H836.646M732.292 1028.05V1616.5M732.292 1028.05H836.646M732.292 1616.5H836.646M836.646 -16.1836V87.5046M836.646 87.5046V192.009M836.646 87.5046H940.184M836.646 192.009V296.514M836.646 192.009H940.184M836.646 296.514V401.018M836.646 296.514H940.184M836.646 401.018V505.523M836.646 401.018H940.184M836.646 505.523V610.028M836.646 505.523H940.184M836.646 610.028V714.532M836.646 610.028H940.184M836.646 714.532V819.037M836.646 714.532H940.184M836.646 819.037V923.541M836.646 819.037H940.184M836.646 923.541V1028.05M836.646 923.541H940.184M836.646 1028.05V1616.5M836.646 1028.05H940.184M836.646 1616.5H941V-16.1836M1 -17H940.184M1 1145.78H940.184M1 1263.51H940.184M1 1381.24H940.184M1 1498.97H940.184" stroke="url(#paint0_linear_5231_19942)" stroke-width="1.83953"/>
<path d="M1.81532 -16.1836L1.81531 87.5046M1.81531 87.5046L1.81531 192.009M1.81531 87.5046H1M1.81531 87.5046H106.169M1.81531 192.009L1.81531 296.514M1.81531 192.009H1M1.81531 192.009H106.169M1.81531 296.514L1.8153 401.018M1.81531 296.514H1M1.81531 296.514H106.169M1.8153 401.018L1.8153 505.523M1.8153 401.018H1M1.8153 401.018H106.169M1.8153 505.523L1.8153 610.028M1.8153 505.523H1M1.8153 505.523H106.169M1.8153 610.028L1.81529 714.532M1.8153 610.028H1M1.8153 610.028H106.169M1.81529 714.532L1.81529 819.037M1.81529 714.532H1M1.81529 714.532H106.169M1.81529 819.037L1.81529 923.541M1.81529 819.037H1M1.81529 819.037H106.169M1.81529 923.541L1.81528 1028.05M1.81529 923.541H1M1.81529 923.541H106.169M1.81528 1028.05L1.81526 1616.5H106.169M1.81528 1028.05H1M1.81528 1028.05H106.169M106.169 -16.1836V87.5046M106.169 87.5046L106.169 192.009M106.169 87.5046H210.523M106.169 192.009V296.514M106.169 192.009H210.523M106.169 296.514L106.169 401.018M106.169 296.514H210.523M106.169 401.018V505.523M106.169 401.018H210.523M106.169 505.523L106.169 610.028M106.169 505.523H210.523M106.169 610.028V714.532M106.169 610.028H210.523M106.169 714.532L106.169 819.037M106.169 714.532H210.523M106.169 819.037V923.541M106.169 819.037H210.523M106.169 923.541V1028.05M106.169 923.541H210.523M106.169 1028.05L106.169 1616.5M106.169 1028.05H210.523M106.169 1616.5H210.523M210.523 -16.1836V87.5046M210.523 87.5046V192.009M210.523 87.5046H314.877M210.523 192.009L210.523 296.514M210.523 192.009H314.877M210.523 296.514V401.018M210.523 296.514H314.877M210.523 401.018V505.523M210.523 401.018H314.877M210.523 505.523V610.028M210.523 505.523H314.877M210.523 610.028V714.532M210.523 610.028H314.877M210.523 714.532L210.523 819.037M210.523 714.532H314.877M210.523 819.037V923.541M210.523 819.037H314.877M210.523 923.541V1028.05M210.523 923.541H314.877M210.523 1028.05L210.523 1616.5M210.523 1028.05H314.877M210.523 1616.5H314.877M314.877 -16.1836V87.5046M314.877 87.5046V192.009M314.877 87.5046H419.231M314.877 192.009V296.514M314.877 192.009H419.231M314.877 296.514L314.877 401.018M314.877 296.514H419.231M314.877 401.018V505.523M314.877 401.018H419.231M314.877 505.523V610.028M314.877 505.523H419.231M314.877 610.028V714.532M314.877 610.028H419.231M314.877 714.532V819.037M314.877 714.532H419.231M314.877 819.037V923.541M314.877 819.037H419.231M314.877 923.541V1028.05M314.877 923.541H419.231M314.877 1028.05L314.877 1616.5M314.877 1028.05H419.231M314.877 1616.5H419.231M419.231 -16.1836V87.5046M419.231 87.5046V192.009M419.231 87.5046H523.585M419.231 192.009V296.514M419.231 192.009H523.585M419.231 296.514V401.018M419.231 296.514H523.585M419.231 401.018V505.523M419.231 401.018H523.585M419.231 505.523V610.028M419.231 505.523H523.585M419.231 610.028V714.532M419.231 610.028H523.585M419.231 714.532V819.037M419.231 714.532H523.585M419.231 819.037V923.541M419.231 819.037H523.585M419.231 923.541V1028.05M419.231 923.541H523.585M419.231 1028.05L419.231 1616.5M419.231 1028.05H523.585M419.231 1616.5H523.585M523.585 -16.1836V87.5046M523.585 87.5046V192.009M523.585 87.5046H627.939M523.585 192.009V296.514M523.585 192.009H627.939M523.585 296.514V401.018M523.585 296.514H627.939M523.585 401.018V505.523M523.585 401.018H627.939M523.585 505.523V610.028M523.585 505.523H627.939M523.585 610.028V714.532M523.585 610.028H627.939M523.585 714.532L523.585 819.037M523.585 714.532H627.939M523.585 819.037V923.541M523.585 819.037H627.939M523.585 923.541V1028.05M523.585 923.541H627.939M523.585 1028.05V1616.5M523.585 1028.05H627.939M523.585 1616.5H627.939M627.939 -16.1836V87.5046M627.939 87.5046V192.009M627.939 87.5046H732.292M627.939 192.009V296.514M627.939 192.009H732.292M627.939 296.514V401.018M627.939 296.514H732.292M627.939 401.018V505.523M627.939 401.018H732.292M627.939 505.523V610.028M627.939 505.523H732.292M627.939 610.028V714.532M627.939 610.028H732.292M627.939 714.532L627.939 819.037M627.939 714.532H732.292M627.939 819.037V923.541M627.939 819.037H732.292M627.939 923.541V1028.05M627.939 923.541H732.292M627.939 1028.05V1616.5M627.939 1028.05H732.292M627.939 1616.5H732.292M732.292 -16.1836V87.5046M732.292 87.5046V192.009M732.292 87.5046H836.646M732.292 192.009V296.514M732.292 192.009H836.646M732.292 296.514V401.018M732.292 296.514H836.646M732.292 401.018V505.523M732.292 401.018H836.646M732.292 505.523V610.028M732.292 505.523H836.646M732.292 610.028V714.532M732.292 610.028H836.646M732.292 714.532L732.292 819.037M732.292 714.532H836.646M732.292 819.037V923.541M732.292 819.037H836.646M732.292 923.541V1028.05M732.292 923.541H836.646M732.292 1028.05V1616.5M732.292 1028.05H836.646M732.292 1616.5H836.646M836.646 -16.1836V87.5046M836.646 87.5046V192.009M836.646 87.5046H940.184M836.646 192.009V296.514M836.646 192.009H940.184M836.646 296.514V401.018M836.646 296.514H940.184M836.646 401.018V505.523M836.646 401.018H940.184M836.646 505.523V610.028M836.646 505.523H940.184M836.646 610.028V714.532M836.646 610.028H940.184M836.646 714.532V819.037M836.646 714.532H940.184M836.646 819.037V923.541M836.646 819.037H940.184M836.646 923.541V1028.05M836.646 923.541H940.184M836.646 1028.05V1616.5M836.646 1028.05H940.184M836.646 1616.5H941V-16.1836M1 -17H940.184M1 1145.78H940.184M1 1263.51H940.184M1 1381.24H940.184M1 1498.97H940.184" stroke="#DD1D63" stroke-width="1.83953"/>
<path d="M1.81532 -16.1836L1.81531 87.5046M1.81531 87.5046L1.81531 192.009M1.81531 87.5046H1M1.81531 87.5046H106.169M1.81531 192.009L1.81531 296.514M1.81531 192.009H1M1.81531 192.009H106.169M1.81531 296.514L1.8153 401.018M1.81531 296.514H1M1.81531 296.514H106.169M1.8153 401.018L1.8153 505.523M1.8153 401.018H1M1.8153 401.018H106.169M1.8153 505.523L1.8153 610.028M1.8153 505.523H1M1.8153 505.523H106.169M1.8153 610.028L1.81529 714.532M1.8153 610.028H1M1.8153 610.028H106.169M1.81529 714.532L1.81529 819.037M1.81529 714.532H1M1.81529 714.532H106.169M1.81529 819.037L1.81529 923.541M1.81529 819.037H1M1.81529 819.037H106.169M1.81529 923.541L1.81528 1028.05M1.81529 923.541H1M1.81529 923.541H106.169M1.81528 1028.05L1.81526 1616.5H106.169M1.81528 1028.05H1M1.81528 1028.05H106.169M106.169 -16.1836V87.5046M106.169 87.5046L106.169 192.009M106.169 87.5046H210.523M106.169 192.009V296.514M106.169 192.009H210.523M106.169 296.514L106.169 401.018M106.169 296.514H210.523M106.169 401.018V505.523M106.169 401.018H210.523M106.169 505.523L106.169 610.028M106.169 505.523H210.523M106.169 610.028V714.532M106.169 610.028H210.523M106.169 714.532L106.169 819.037M106.169 714.532H210.523M106.169 819.037V923.541M106.169 819.037H210.523M106.169 923.541V1028.05M106.169 923.541H210.523M106.169 1028.05L106.169 1616.5M106.169 1028.05H210.523M106.169 1616.5H210.523M210.523 -16.1836V87.5046M210.523 87.5046V192.009M210.523 87.5046H314.877M210.523 192.009L210.523 296.514M210.523 192.009H314.877M210.523 296.514V401.018M210.523 296.514H314.877M210.523 401.018V505.523M210.523 401.018H314.877M210.523 505.523V610.028M210.523 505.523H314.877M210.523 610.028V714.532M210.523 610.028H314.877M210.523 714.532L210.523 819.037M210.523 714.532H314.877M210.523 819.037V923.541M210.523 819.037H314.877M210.523 923.541V1028.05M210.523 923.541H314.877M210.523 1028.05L210.523 1616.5M210.523 1028.05H314.877M210.523 1616.5H314.877M314.877 -16.1836V87.5046M314.877 87.5046V192.009M314.877 87.5046H419.231M314.877 192.009V296.514M314.877 192.009H419.231M314.877 296.514L314.877 401.018M314.877 296.514H419.231M314.877 401.018V505.523M314.877 401.018H419.231M314.877 505.523V610.028M314.877 505.523H419.231M314.877 610.028V714.532M314.877 610.028H419.231M314.877 714.532V819.037M314.877 714.532H419.231M314.877 819.037V923.541M314.877 819.037H419.231M314.877 923.541V1028.05M314.877 923.541H419.231M314.877 1028.05L314.877 1616.5M314.877 1028.05H419.231M314.877 1616.5H419.231M419.231 -16.1836V87.5046M419.231 87.5046V192.009M419.231 87.5046H523.585M419.231 192.009V296.514M419.231 192.009H523.585M419.231 296.514V401.018M419.231 296.514H523.585M419.231 401.018V505.523M419.231 401.018H523.585M419.231 505.523V610.028M419.231 505.523H523.585M419.231 610.028V714.532M419.231 610.028H523.585M419.231 714.532V819.037M419.231 714.532H523.585M419.231 819.037V923.541M419.231 819.037H523.585M419.231 923.541V1028.05M419.231 923.541H523.585M419.231 1028.05L419.231 1616.5M419.231 1028.05H523.585M419.231 1616.5H523.585M523.585 -16.1836V87.5046M523.585 87.5046V192.009M523.585 87.5046H627.939M523.585 192.009V296.514M523.585 192.009H627.939M523.585 296.514V401.018M523.585 296.514H627.939M523.585 401.018V505.523M523.585 401.018H627.939M523.585 505.523V610.028M523.585 505.523H627.939M523.585 610.028V714.532M523.585 610.028H627.939M523.585 714.532L523.585 819.037M523.585 714.532H627.939M523.585 819.037V923.541M523.585 819.037H627.939M523.585 923.541V1028.05M523.585 923.541H627.939M523.585 1028.05V1616.5M523.585 1028.05H627.939M523.585 1616.5H627.939M627.939 -16.1836V87.5046M627.939 87.5046V192.009M627.939 87.5046H732.292M627.939 192.009V296.514M627.939 192.009H732.292M627.939 296.514V401.018M627.939 296.514H732.292M627.939 401.018V505.523M627.939 401.018H732.292M627.939 505.523V610.028M627.939 505.523H732.292M627.939 610.028V714.532M627.939 610.028H732.292M627.939 714.532L627.939 819.037M627.939 714.532H732.292M627.939 819.037V923.541M627.939 819.037H732.292M627.939 923.541V1028.05M627.939 923.541H732.292M627.939 1028.05V1616.5M627.939 1028.05H732.292M627.939 1616.5H732.292M732.292 -16.1836V87.5046M732.292 87.5046V192.009M732.292 87.5046H836.646M732.292 192.009V296.514M732.292 192.009H836.646M732.292 296.514V401.018M732.292 296.514H836.646M732.292 401.018V505.523M732.292 401.018H836.646M732.292 505.523V610.028M732.292 505.523H836.646M732.292 610.028V714.532M732.292 610.028H836.646M732.292 714.532L732.292 819.037M732.292 714.532H836.646M732.292 819.037V923.541M732.292 819.037H836.646M732.292 923.541V1028.05M732.292 923.541H836.646M732.292 1028.05V1616.5M732.292 1028.05H836.646M732.292 1616.5H836.646M836.646 -16.1836V87.5046M836.646 87.5046V192.009M836.646 87.5046H940.184M836.646 192.009V296.514M836.646 192.009H940.184M836.646 296.514V401.018M836.646 296.514H940.184M836.646 401.018V505.523M836.646 401.018H940.184M836.646 505.523V610.028M836.646 505.523H940.184M836.646 610.028V714.532M836.646 610.028H940.184M836.646 714.532V819.037M836.646 714.532H940.184M836.646 819.037V923.541M836.646 819.037H940.184M836.646 923.541V1028.05M836.646 923.541H940.184M836.646 1028.05V1616.5M836.646 1028.05H940.184M836.646 1616.5H941V-16.1836M1 -17H940.184M1 1145.78H940.184M1 1263.51H940.184M1 1381.24H940.184M1 1498.97H940.184" stroke="url(#paint1_linear_5231_19942)" stroke-opacity="0.8" stroke-width="1.83953"/>
</g>
<defs>
<linearGradient id="paint0_linear_5231_19942" x1="17.9065" y1="392.219" x2="1149.67" y2="593.943" gradientUnits="userSpaceOnUse">
<stop stop-color="#FA8C85"/>
<stop offset="1" stop-color="#DD1D63"/>
</linearGradient>
<linearGradient id="paint1_linear_5231_19942" x1="107.047" y1="453.92" x2="298.803" y2="326.871" gradientUnits="userSpaceOnUse">
<stop stop-color="#141417"/>
<stop offset="0.125" stop-color="#E93D67"/>
<stop offset="0.849578" stop-color="#E42F65"/>
<stop offset="1" stop-color="#151518"/>
</linearGradient>
</defs>
</svg>
